<svg width="36" height="37" viewBox="0 0 36 37" fill="none" xmlns="http://www.w3.org/2000/svg">
<path d="M13.706 10.6603C13.3797 10.2252 12.727 10.2252 12.4007 10.6603L8.52547 15.8273C8.30792 16.1174 8.30792 16.5162 8.52547 16.8063L12.4007 21.9733C12.727 22.4083 13.3797 22.4083 13.706 21.9733L17.5812 16.8063C17.7987 16.5162 17.7987 16.1174 17.5812 15.8273L13.706 10.6603Z" fill="#9B7DD7" fill-opacity="0.06"/>
<path d="M5.04592 7.56873C4.95458 7.4317 4.95458 7.2532 5.04592 7.11618L6.18734 5.40405C6.3488 5.16186 6.7047 5.16186 6.86615 5.40405L8.00757 7.11617C8.09891 7.2532 8.09891 7.4317 8.00757 7.56871L6.86615 9.28084C6.7047 9.52303 6.3488 9.52303 6.18734 9.28084L5.04592 7.56873Z" fill="#9B7DD7" fill-opacity="0.06"/>
<path d="M19.9195 23.3525C19.7581 23.1104 19.4021 23.1104 19.2407 23.3525L18.0992 25.0646C18.008 25.2017 18.008 25.3802 18.0992 25.5172L19.2407 27.2294C19.4021 27.4715 19.7581 27.4715 19.9195 27.2294L21.0608 25.5172C21.1522 25.3802 21.1522 25.2017 21.0608 25.0646L19.9195 23.3525Z" fill="#9B7DD7" fill-opacity="0.06"/>
<path fill-rule="evenodd" clip-rule="evenodd" d="M0 4.89502C0 2.19158 2.19158 0 4.89502 0H21.2117C23.0593 0 24.6678 1.02358 25.5011 2.53459L32.3707 4.37529C34.9821 5.075 36.5317 7.75912 35.832 10.3704L29.9196 32.4355C29.22 35.0468 26.5359 36.5964 23.9246 35.8968L11.7456 32.6334H4.89502C2.19158 32.6334 0 30.4419 0 27.7384V4.89502ZM26.1067 27.7384V6.07535L31.526 7.52746C32.3965 7.76069 32.9131 8.65538 32.6798 9.52583L26.7676 31.5908C26.5342 32.4613 25.6396 32.9779 24.7691 32.7446L23.0389 32.281C24.8373 31.557 26.1067 29.796 26.1067 27.7384ZM4.89502 3.26334C3.99388 3.26334 3.26334 3.99388 3.26334 4.89502V27.7384C3.26334 28.6396 3.99388 29.3701 4.89502 29.3701H21.2117C22.1129 29.3701 22.8434 28.6396 22.8434 27.7384V4.89502C22.8434 3.99388 22.1129 3.26334 21.2117 3.26334H4.89502Z" fill="#9B7DD7" fill-opacity="0.06"/>
</svg>
