<svg width="34" height="34" viewBox="0 0 34 34" fill="none" xmlns="http://www.w3.org/2000/svg">
<path d="M28.2878 12.9294L29.0939 12.1233L31.5175 14.547L30.7114 15.3531L28.2878 12.9294Z" fill="#EEF8FF"/>
<path d="M18.5881 3.22974L19.3942 2.42364L21.8231 4.85255L21.017 5.65865L18.5881 3.22974Z" fill="#EEF8FF"/>
<path d="M29.9053 16.1592L30.7114 15.3531L31.5228 16.1645L30.7167 16.9706L29.9053 16.1592Z" fill="#EEF8FF"/>
<path d="M26.6756 12.9294L27.4817 12.1233L28.2878 12.9294L27.4817 13.7355L26.6756 12.9294Z" fill="#EEF8FF"/>
<path d="M20.2109 6.46472L21.017 5.65862L21.8231 6.46472L21.017 7.27082L20.2109 6.46472Z" fill="#EEF8FF"/>
<path d="M16.9759 3.22974L17.782 2.42363L18.5881 3.22974L17.782 4.03584L16.9759 3.22974Z" fill="#EEF8FF"/>
<path d="M29.9053 17.782L30.7167 16.9706L31.5228 17.7767L30.7114 18.5881L29.9053 17.782Z" fill="#EEF8FF"/>
<path d="M27.4764 15.353L28.2878 14.5416L29.0992 15.353L28.2878 16.1644L27.4764 15.353Z" fill="#EEF8FF"/>
<path d="M25.0528 12.9294L25.8642 12.118L26.6756 12.9294L25.8642 13.7408L25.0528 12.9294Z" fill="#EEF8FF"/>
<path d="M20.2056 8.08228L21.017 7.27087L21.8231 8.07697L21.0117 8.88838L20.2056 8.08228Z" fill="#EEF8FF"/>
<path d="M15.3584 3.23499L16.1698 2.42358L16.9759 3.22968L16.1645 4.04109L15.3584 3.23499Z" fill="#EEF8FF"/>
<path d="M23.4406 12.9294L24.2467 12.1233L25.0528 12.9294L24.2467 13.7355L23.4406 12.9294Z" fill="#EEF8FF"/>
<path d="M20.2056 9.69446L21.0117 8.88836L21.8231 9.69976L21.017 10.5059L20.2056 9.69446Z" fill="#EEF8FF"/>
<path d="M17.782 7.27087L18.5881 6.46477L19.3995 7.27618L18.5934 8.08228L17.782 7.27087Z" fill="#EEF8FF"/>
<path d="M28.2878 21.0117L30.7114 18.5881L31.5175 19.3942L29.0939 21.8178L28.2878 21.0117Z" fill="#EEF8FF"/>
<path d="M27.4817 18.5828L28.2878 17.7767L29.0992 18.5881L28.2931 19.3942L27.4817 18.5828Z" fill="#EEF8FF"/>
<path d="M25.8642 16.9653L26.6703 16.1592L27.4817 16.9706L26.6756 17.7767L25.8642 16.9653Z" fill="#EEF8FF"/>
<path d="M24.252 15.353L25.0581 14.5469L25.8642 15.353L25.0581 16.1591L24.252 15.353Z" fill="#EEF8FF"/>
<path d="M20.2109 11.312L21.017 10.5059L21.8231 11.312L21.017 12.1181L20.2109 11.312Z" fill="#EEF8FF"/>
<path d="M12.1234 4.84729L14.547 2.42368L15.3584 3.23509L12.9348 5.6587L12.1234 4.84729Z" fill="#EEF8FF"/>
<path d="M17.782 10.5059L18.5934 9.69446L19.3995 10.5006L18.5881 11.312L17.782 10.5059Z" fill="#EEF8FF"/>
<path d="M16.1645 8.88831L16.9759 8.0769L17.7873 8.88831L16.9759 9.69971L16.1645 8.88831Z" fill="#EEF8FF"/>
<path d="M14.547 7.27087L15.3584 6.45947L16.1698 7.27087L15.3584 8.08228L14.547 7.27087Z" fill="#EEF8FF"/>
<path d="M26.6756 21.0117L27.4817 20.2056L28.2878 21.0117L27.4817 21.8178L26.6756 21.0117Z" fill="#EEF8FF"/>
<path d="M24.2467 18.5828L25.0528 17.7767L25.8642 18.5881L25.0581 19.3942L24.2467 18.5828Z" fill="#EEF8FF"/>
<path d="M19.3995 12.1234L18.5934 12.9295L17.782 12.1181L16.9706 12.9295L16.1645 12.1234L15.3584 12.9295L14.5523 12.1234L13.7462 12.9295L12.9348 12.1181L12.1234 12.9295L11.3172 12.1234L10.5111 12.9295L12.1287 14.547L11.3226 15.3531L12.1287 16.1592L11.3172 16.9706L12.1234 17.7767L11.3172 18.5828L12.1287 19.3942L10.5111 21.0117L11.3172 21.8178L12.1234 21.0117L12.9348 21.8231L13.7462 21.0117L14.5523 21.8178L15.3584 21.0117L16.1645 21.8178L16.9759 21.0064L17.7873 21.8178L18.5934 21.0117L19.3995 21.8178L20.2056 21.0117L21.0117 21.8178L21.8231 21.0064L22.6345 21.8178L23.4406 21.0117L21.8231 19.3942L22.6292 18.5881L21.8231 17.782L22.6345 16.9706L21.8231 16.1592L22.6292 15.3531L21.8231 14.547L23.4406 12.9295L22.6345 12.1234L21.8284 12.9295L21.017 12.1181L20.2056 12.9295L19.3995 12.1234ZM19.3995 15.3584L18.5934 16.1645L19.3995 16.9706L18.5934 17.7767L19.3995 18.5828L18.5881 19.3942L17.782 18.5881L16.9759 19.3942L16.1698 18.5881L15.3637 19.3942L13.7462 17.7767L14.5523 16.9706L13.7409 16.1592L14.547 15.3531L15.3584 16.1645L16.1698 15.3531L15.3584 14.5417L16.1645 13.7356L16.9759 14.547L17.782 13.7409L19.3995 15.3584Z" fill="#EEF8FF"/>
<path d="M12.1286 6.46472L12.9347 5.65862L13.7409 6.46472L12.9347 7.27082L12.1286 6.46472Z" fill="#EEF8FF"/>
<path d="M25.0528 21.0117L25.8642 20.2003L26.6756 21.0117L25.8642 21.8231L25.0528 21.0117Z" fill="#EEF8FF"/>
<path d="M14.547 10.5059L15.3584 9.69446L16.1698 10.5059L15.3584 11.3173L14.547 10.5059Z" fill="#EEF8FF"/>
<path d="M12.1234 8.08228L12.9348 7.27087L13.7409 8.07697L12.9295 8.88838L12.1234 8.08228Z" fill="#EEF8FF"/>
<path d="M23.4406 21.0117L24.2467 20.2056L25.0528 21.0117L24.2467 21.8178L23.4406 21.0117Z" fill="#EEF8FF"/>
<path d="M12.1234 9.69446L12.9295 8.88836L13.7409 9.69976L12.9348 10.5059L12.1234 9.69446Z" fill="#EEF8FF"/>
<path d="M12.1286 11.312L12.9347 10.5059L13.7409 11.312L12.9347 12.1181L12.1286 11.312Z" fill="#EEF8FF"/>
<path d="M20.2056 22.6239L21.0117 21.8178L21.8231 22.6292L21.017 23.4353L20.2056 22.6239Z" fill="#EEF8FF"/>
<path d="M20.2109 24.2415L21.017 23.4354L21.8231 24.2415L21.017 25.0476L20.2109 24.2415Z" fill="#EEF8FF"/>
<path d="M8.89363 12.9242L9.69973 12.1181L10.5111 12.9295L9.70504 13.7356L8.89363 12.9242Z" fill="#EEF8FF"/>
<path d="M20.2056 25.8589L21.017 25.0475L21.8284 25.8589L21.017 26.6703L20.2056 25.8589Z" fill="#EEF8FF"/>
<path d="M17.782 23.4353L18.5934 22.6239L19.3995 23.43L18.5881 24.2414L17.782 23.4353Z" fill="#EEF8FF"/>
<path d="M7.27612 12.9294L8.08753 12.118L8.89363 12.9241L8.08222 13.7355L7.27612 12.9294Z" fill="#EEF8FF"/>
<path d="M20.2109 27.4764L21.017 26.6703L21.8231 27.4764L21.017 28.2825L20.2109 27.4764Z" fill="#EEF8FF"/>
<path d="M8.08754 15.353L8.89364 14.5469L9.69974 15.353L8.89364 16.1591L8.08754 15.353Z" fill="#EEF8FF"/>
<path d="M5.66393 12.9294L6.47003 12.1233L7.27613 12.9294L6.47003 13.7355L5.66393 12.9294Z" fill="#EEF8FF"/>
<path d="M17.782 26.6703L18.5934 25.8589L19.3995 26.665L18.5881 27.4764L17.782 26.6703Z" fill="#EEF8FF"/>
<path d="M16.1645 25.0529L16.9759 24.2415L17.782 25.0476L16.9706 25.859L16.1645 25.0529Z" fill="#EEF8FF"/>
<path d="M14.547 23.4353L15.3584 22.6239L16.1698 23.4353L15.3584 24.2467L14.547 23.4353Z" fill="#EEF8FF"/>
<path d="M18.5934 30.7062L21.017 28.2826L21.8231 29.0887L19.3995 31.5123L18.5934 30.7062Z" fill="#EEF8FF"/>
<path d="M12.1286 22.6292L12.9347 21.823L13.7409 22.6291L12.9347 23.4353L12.1286 22.6292Z" fill="#EEF8FF"/>
<path d="M8.08754 18.5881L8.89364 17.782L9.69974 18.5881L8.89364 19.3942L8.08754 18.5881Z" fill="#EEF8FF"/>
<path d="M6.47003 16.9706L7.27613 16.1645L8.08224 16.9706L7.27613 17.7767L6.47003 16.9706Z" fill="#EEF8FF"/>
<path d="M4.85252 15.353L5.65863 14.5469L6.46473 15.353L5.65863 16.1591L4.85252 15.353Z" fill="#EEF8FF"/>
<path d="M2.42891 14.5416L4.85252 12.118L5.66392 12.9294L3.24031 15.353L2.42891 14.5416Z" fill="#EEF8FF"/>
<path d="M14.5523 26.665L15.3584 25.8589L16.1645 26.665L15.3584 27.4711L14.5523 26.665Z" fill="#EEF8FF"/>
<path d="M12.1286 24.2415L12.9347 23.4354L13.7409 24.2415L12.9347 25.0476L12.1286 24.2415Z" fill="#EEF8FF"/>
<path d="M8.89363 21.0063L9.69973 20.2002L10.5111 21.0117L9.70504 21.8178L8.89363 21.0063Z" fill="#EEF8FF"/>
<path d="M16.9759 30.7114L17.7873 29.9L18.5934 30.7061L17.782 31.5175L16.9759 30.7114Z" fill="#EEF8FF"/>
<path d="M12.1234 25.8589L12.9348 25.0475L13.7462 25.8589L12.9348 26.6703L12.1234 25.8589Z" fill="#EEF8FF"/>
<path d="M7.27612 21.0117L8.08753 20.2003L8.89363 21.0064L8.08223 21.8178L7.27612 21.0117Z" fill="#EEF8FF"/>
<path d="M4.85252 18.5881L5.66393 17.7767L6.47003 18.5828L5.65863 19.3942L4.85252 18.5881Z" fill="#EEF8FF"/>
<path d="M2.42891 16.1644L3.24031 15.353L4.04642 16.1591L3.23501 16.9705L2.42891 16.1644Z" fill="#EEF8FF"/>
<path d="M15.3584 30.7062L16.1645 29.9001L16.9759 30.7115L16.1698 31.5176L15.3584 30.7062Z" fill="#EEF8FF"/>
<path d="M12.1286 27.4764L12.9347 26.6703L13.7409 27.4764L12.9347 28.2825L12.1286 27.4764Z" fill="#EEF8FF"/>
<path d="M5.66393 21.0117L6.47003 20.2056L7.27613 21.0117L6.47003 21.8178L5.66393 21.0117Z" fill="#EEF8FF"/>
<path d="M2.42891 17.7767L3.23501 16.9706L4.04111 17.7767L3.23501 18.5828L2.42891 17.7767Z" fill="#EEF8FF"/>
<path d="M12.1234 29.0939L12.9348 28.2825L15.3584 30.7061L14.547 31.5175L12.1234 29.0939Z" fill="#EEF8FF"/>
<path d="M2.42361 19.3942L3.23502 18.5828L5.66393 21.0117L4.85253 21.8231L2.42361 19.3942Z" fill="#EEF8FF"/>
</svg>
