<svg width="23" height="24" viewBox="0 0 23 24" fill="none" xmlns="http://www.w3.org/2000/svg">
<path d="M18.285 6.85498V10.2825H13.71V12.57H18.285V15.9975H19.425V14.8575H20.5725V13.7175H21.7125V12.57H22.8525V10.2825H21.7125V9.14248H20.5725V8.00248H19.425V6.85498H18.285Z" fill="#EEF8FF"/>
<path d="M14.8575 15.9976H15.9975V20.5726H14.8575V15.9976Z" fill="#EEF8FF"/>
<path d="M14.8575 1.14001H15.9975V6.85501H14.8575V1.14001Z" fill="#EEF8FF"/>
<path d="M10.2825 22.86V21.7125H14.8575V20.5725H10.2825V5.71497H9.1425V22.86H10.2825Z" fill="#EEF8FF"/>
<path d="M5.715 22.86H9.1425V24H5.715V22.86Z" fill="#EEF8FF"/>
<path d="M6.855 12.5699H7.995V14.8574H6.855V12.5699Z" fill="#EEF8FF"/>
<path d="M6.855 4.57495H9.1425V5.71495H6.855V4.57495Z" fill="#EEF8FF"/>
<path d="M3.42751 21.7125H5.71501V22.86H3.42751V21.7125Z" fill="#EEF8FF"/>
<path d="M4.5675 3.42749H6.855V4.57499H4.5675V3.42749Z" fill="#EEF8FF"/>
<path d="M1.14 20.5725H3.4275V21.7125H1.14V20.5725Z" fill="#EEF8FF"/>
<path d="M2.28751 2.28748H4.56751V3.42748H2.28751V2.28748Z" fill="#EEF8FF"/>
<path d="M1.14 0V1.14H0V20.5725H1.14V2.2875H2.2875V1.14H14.8575V0L1.14 0Z" fill="#EEF8FF"/>
</svg>
