<svg width="36" height="36" viewBox="0 0 36 36" fill="none" xmlns="http://www.w3.org/2000/svg">
<path d="M0 18C0 20.448 0.48 22.776 1.44 24.984C2.4 27.192 3.672 29.112 5.256 30.744C6.84 32.376 8.76 33.66 11.016 34.596C13.272 35.532 15.6 36 18 36C20.4 36 22.728 35.532 24.984 34.596C27.24 33.66 29.16 32.376 30.744 30.744C32.328 29.112 33.6 27.192 34.56 24.984C35.52 22.776 36 20.448 36 18C36 15.552 35.52 13.224 34.56 11.016C33.6 8.808 32.328 6.888 30.744 5.256C29.16 3.624 27.252 2.352 25.02 1.44C22.788 0.528 20.448 0.048 18 0C15.552 0 13.224 0.48 11.016 1.44C8.808 2.4 6.888 3.672 5.256 5.256C3.624 6.84 2.352 8.76 1.44 11.016C0.528 13.272 0.048 15.6 0 18ZM4.5 18C4.5 15.552 5.1 13.296 6.3 11.232C7.5 9.168 9.144 7.536 11.232 6.336C13.32 5.136 15.576 4.524 18 4.5C20.424 4.476 22.68 5.088 24.768 6.336C26.856 7.584 28.5 9.216 29.7 11.232C30.9 13.248 31.5 15.504 31.5 18C31.5 20.496 30.9 22.764 29.7 24.804C28.5 26.844 26.856 28.476 24.768 29.7C22.68 30.924 20.424 31.524 18 31.5C15.576 31.476 13.32 30.876 11.232 29.7C9.144 28.524 7.5 26.892 6.3 24.804C5.1 22.716 4.5 20.448 4.5 18ZM13.5 11.268C13.5 12.012 13.692 13.128 14.076 14.616C14.46 16.104 14.832 17.424 15.192 18.576L15.768 20.268C15.768 20.892 15.984 21.42 16.416 21.852C16.848 22.284 17.376 22.5 18 22.5C18.624 22.5 19.152 22.284 19.584 21.852C20.016 21.42 20.244 20.892 20.268 20.268L22.5 11.268C22.5 10.02 22.056 8.952 21.168 8.064C20.28 7.176 19.224 6.744 18 6.768C16.776 6.792 15.72 7.224 14.832 8.064C13.944 8.904 13.5 9.972 13.5 11.268ZM15.768 27C15.768 27.624 15.984 28.164 16.416 28.62C16.848 29.076 17.376 29.292 18 29.268C18.624 29.244 19.152 29.028 19.584 28.62C20.016 28.212 20.244 27.672 20.268 27C20.292 26.328 20.064 25.8 19.584 25.416C19.104 25.032 18.576 24.816 18 24.768C17.424 24.72 16.896 24.936 16.416 25.416C15.936 25.896 15.72 26.424 15.768 27Z" fill="#CE4A3A"/>
</svg>
