<svg width="37" height="40" viewBox="0 0 37 40" fill="none" xmlns="http://www.w3.org/2000/svg">
<path d="M31.8948 3.62932C31.7915 1.80103 31.3547 1.00599 30.1023 0.367551C28.7547 -0.319614 26.6293 0.000172228 24.1284 1.26662C23.0512 1.81236 22.9415 1.82347 21.0537 1.58143C18.5443 1.25959 15.3139 1.26073 12.9978 1.58438C11.2464 1.82913 11.1314 1.8169 10.0515 1.27003C6.50157 -0.527665 3.69885 -0.410042 2.68398 1.57916C2.17742 2.57206 2.08336 5.14846 2.47614 7.27342C2.69392 8.45148 2.67084 8.59857 2.14619 9.37164C-1.54504 14.8112 1.11462 23.6283 7.43977 26.9188C7.92378 27.1707 8.33165 27.3265 8.66409 27.4534C9.68482 27.8432 9.99472 27.9615 9.61951 29.7556C9.43882 30.6185 9.22122 32.764 9.13567 34.5236C8.98108 37.7042 8.98339 37.7264 9.54123 38.3753C10.3005 39.258 11.3949 39.2729 12.1365 38.4106C12.6201 37.8483 12.6673 37.5828 12.6673 35.4134C12.6673 32.2074 13.0188 30.0765 13.8491 28.2505C14.8364 26.0775 14.1045 25.2673 11.8465 24.7817C8.70793 24.1065 6.25664 22.1696 4.89033 19.2852C3.5913 16.5434 3.39553 12.7544 5.74405 10.45C6.41194 9.65629 6.45844 8.93739 5.98153 6.76961C5.80333 5.95939 5.65389 4.91413 5.64945 4.44657C5.64271 3.70818 5.70997 3.59668 6.16346 3.59668C6.45046 3.59668 7.54698 4.01415 8.59984 4.52431L10.2803 5.3388C10.4331 5.41283 10.604 5.4413 10.7726 5.42195C15.0457 4.93148 19.1059 4.9239 23.3998 5.42387C23.5691 5.44357 23.7408 5.4151 23.8941 5.3407L25.5737 4.52567C26.6266 4.0146 27.7231 3.59668 28.01 3.59668C28.6734 3.59668 28.6834 4.08644 28.0787 6.99624C27.7093 8.77334 27.4608 9.16932 28.5286 10.5903C30.1291 12.7202 30.5289 15.3651 29.6706 18.144C28.5888 21.6458 25.9399 24.0115 22.2158 24.8008C19.9708 25.2767 19.384 25.8975 20.2413 28.4718C20.9161 30.4977 21.3428 31.0198 22.3235 31.0198C23.6429 31.0198 24.4695 29.8768 24.0146 28.6807C23.8143 28.1536 23.8739 28.0973 25.11 27.6465C28.8832 26.2708 31.7693 23.1873 33.0887 19.1214C34.1086 15.979 33.6599 11.8889 32.0238 9.41674C31.4667 8.575 31.4581 8.50361 31.718 6.89221C31.8651 5.98001 31.9447 4.51185 31.8948 3.62932Z" fill="#9B7DD7"/>
<path d="M33.2125 26.6169C33.7562 25.8014 34.8582 25.5809 35.6738 26.1247C36.4894 26.6684 36.7098 27.7704 36.1661 28.586C35.7647 29.1882 35.2844 29.6829 34.8766 30.0905C34.8014 30.1658 34.7284 30.2384 34.657 30.3092C34.3154 30.6486 34.0138 30.9482 33.7109 31.3039C33.0408 32.0903 32.3724 33.1496 31.9925 35.049C31.8233 35.8951 31.2151 36.3509 30.8781 36.5501C30.5127 36.7659 30.1134 36.8931 29.7848 36.976C29.1126 37.1455 28.2967 37.2336 27.5223 37.2849C26.6722 37.3413 25.7511 37.3596 24.9274 37.3645C24.9268 38.3441 24.1324 39.1382 23.1526 39.1382C22.1723 39.1382 21.3777 38.3436 21.3777 37.3633V35.5884C21.3777 34.6082 22.1723 33.8135 23.1526 33.8135C23.3199 33.8135 23.5009 33.8141 23.6926 33.8148C24.7342 33.818 26.0919 33.8221 27.2877 33.7429C27.8643 33.7047 28.3383 33.6506 28.6859 33.5844C29.2211 31.4831 30.0859 30.085 31.0086 29.0018C31.4165 28.5231 31.8389 28.1043 32.1825 27.7635C32.2468 27.6998 32.3084 27.6387 32.3666 27.5805C32.763 27.1842 33.0223 26.9023 33.2125 26.6169Z" fill="#9B7DD7"/>
</svg>
