<svg width="24" height="23" viewBox="0 0 24 23" fill="none" xmlns="http://www.w3.org/2000/svg">
<path d="M22.86 4.5675H24V6.855H22.86V4.5675Z" fill="#EEF8FF"/>
<path d="M21.72 3.42749H22.86V4.56749H21.72V3.42749Z" fill="#EEF8FF"/>
<path d="M19.4325 6.85498H22.86V7.99498H19.4325V6.85498Z" fill="#EEF8FF"/>
<path d="M8.00251 6.85128H6.86251V7.99128H5.71501V9.13878H4.57501V10.2788H3.43501V11.4263H2.28751V13.7063H3.43501V22.8488H20.5725V13.71H21.72V11.43H20.5725V10.2825H19.4325V9.14253H18.2925V7.99503H17.145V6.85128H16.005V5.71503H14.8575V4.56753H13.7175V3.42753H12.5775V2.28003H11.43V3.42753H10.29V4.56753H9.14251V5.71503H8.00251V6.85128ZM11.43 19.4213H10.29V17.1338H11.43V19.4213ZM9.14251 7.99128H10.29V6.85128H11.43V5.71503H12.5775V6.85128H13.7175V7.99128H14.8575V9.13878H16.005V10.2788H17.145V11.4263H18.2925V12.5663H19.4325V17.1338H17.145V18.2813H19.4325V21.7088H14.8575V14.8538H13.7175V13.7063H10.29V14.8538H9.14251V21.7088H4.57501V20.5763H6.86251V19.4288H4.57501V16.0013H6.86251V14.8613H4.57501V12.5738H5.71501V11.4338H6.86251V10.2863H8.00251V9.14628H9.14251V7.99128Z" fill="#EEF8FF"/>
<path d="M18.2925 2.28003H21.72V3.42753H18.2925V2.28003Z" fill="#EEF8FF"/>
<path d="M18.2925 5.71497H19.4325V6.85497H18.2925V5.71497Z" fill="#EEF8FF"/>
<path d="M17.145 14.8575H18.2925V15.9975H17.145V14.8575Z" fill="#EEF8FF"/>
<path d="M17.145 3.42749H18.2925V5.71499H17.145V3.42749Z" fill="#EEF8FF"/>
<path d="M16.005 19.425H18.2925V20.5725H16.005V19.425Z" fill="#EEF8FF"/>
<path d="M14.8575 11.4301H17.145V12.5701H14.8575V11.4301Z" fill="#EEF8FF"/>
<path d="M11.43 7.995H13.7175V9.1425H11.43V7.995Z" fill="#EEF8FF"/>
<path d="M10.29 10.2825H12.5775V11.43H10.29V10.2825Z" fill="#EEF8FF"/>
<path d="M6.8625 11.4301H9.1425V12.5701H6.8625V11.4301Z" fill="#EEF8FF"/>
<path d="M6.8625 2.28003H8.0025V4.56753H6.8625V2.28003Z" fill="#EEF8FF"/>
<path d="M5.715 17.1375H8.0025V18.285H5.715V17.1375Z" fill="#EEF8FF"/>
<path d="M5.715 1.14001H6.8625V2.28001H5.715V1.14001Z" fill="#EEF8FF"/>
<path d="M2.28751 0H5.71501V1.14H2.28751V0Z" fill="#EEF8FF"/>
<path d="M1.14751 4.5675H6.86251V5.715H1.14751V4.5675Z" fill="#EEF8FF"/>
<path d="M1.14751 1.14001H2.28751V2.28001H1.14751V1.14001Z" fill="#EEF8FF"/>
<path d="M0 2.28003H1.1475V4.56753H0V2.28003Z" fill="#EEF8FF"/>
</svg>
