<svg width="14" height="12" viewBox="0 0 14 12" fill="none" xmlns="http://www.w3.org/2000/svg">
<path d="M10.125 0C11.2035 0 12.085 0.832616 12.1466 1.88249L12.15 2V4.90007L12.5509 4.72413C12.9651 4.54229 13.4435 4.82446 13.4954 5.25574L13.5 5.33333V10.6667C13.5 11.3696 12.9493 11.9454 12.2508 11.9963L12.15 12H1.35C0.638305 12 0.0552385 11.4561 0.0037029 10.7662L0 10.6667V5.33333C0 4.8856 0.45538 4.56845 0.875476 4.6968L0.949145 4.72413L1.35 4.90007V2C1.35 0.934882 2.19302 0.0642262 3.25602 0.00339508L3.375 0H10.125ZM10.125 1.33333H3.375C3.00221 1.33333 2.7 1.63181 2.7 2V5.49267L6.75 7.27047L10.8 5.49267V2C10.8 1.63181 10.4978 1.33333 10.125 1.33333ZM6.75 3.33333C7.1228 3.33333 7.425 3.63181 7.425 4C7.425 4.34189 7.16443 4.62367 6.82872 4.66218L6.75 4.66667H5.4C5.02721 4.66667 4.725 4.36819 4.725 4C4.725 3.65811 4.98558 3.37633 5.32128 3.33782L5.4 3.33333H6.75Z" fill="#9B7DD7"/>
</svg>
