<svg width="16" height="14" viewBox="0 0 16 14" fill="none" xmlns="http://www.w3.org/2000/svg">
<path d="M15.6647 3.29648H13.3821C13.3396 3.29648 13.2971 3.27383 13.2773 3.23701L11.4449 0.0594728C11.4223 0.0226564 11.3826 0 11.3373 0H3.86077C3.81829 0 3.77581 0.0226564 3.75598 0.0594728L1.85002 3.35596L0.0148682 6.5335C-0.00495606 6.57031 -0.00495606 6.61562 0.0148682 6.65527L1.85002 9.83281L3.75315 13.1321C3.77297 13.1689 3.81545 13.1944 3.85793 13.1916H11.3373C11.3798 13.1916 11.4223 13.1689 11.4449 13.1321L13.2801 9.95459C13.2999 9.91777 13.3424 9.89228 13.3849 9.89512H15.6675C15.744 9.89512 15.8034 9.83281 15.8034 9.75918V3.43525C15.8006 3.35879 15.7383 3.29648 15.6647 3.29648ZM6.92219 9.95459L6.34729 10.9458C6.33879 10.96 6.32463 10.9741 6.31047 10.9826C6.29348 10.9911 6.27649 10.9968 6.25667 10.9968H5.11536C5.07571 10.9968 5.03889 10.977 5.0219 10.9401L3.31985 7.98633L3.15276 7.69463L2.54104 6.64961C2.53254 6.63545 2.52688 6.61846 2.52971 6.59863C2.52971 6.58164 2.53538 6.56182 2.54387 6.54766L3.15842 5.48281L5.02473 2.2543C5.04456 2.22031 5.08137 2.19766 5.11819 2.19766H6.25667C6.27649 2.19766 6.29631 2.20332 6.31614 2.21182C6.3303 2.22031 6.34446 2.23164 6.35295 2.24863L6.92786 3.24551C6.94485 3.27949 6.94202 3.32197 6.92219 3.35312L5.07854 6.54766C5.07004 6.56182 5.06721 6.57881 5.06721 6.59297C5.06721 6.60996 5.07288 6.62412 5.07854 6.63828L6.92219 9.82998C6.94768 9.87246 6.94485 9.91777 6.92219 9.95459ZM12.6457 6.64961L12.034 7.69463L11.8669 7.98633L10.1649 10.9401C10.145 10.9741 10.1111 10.9968 10.0714 10.9968H8.9301C8.91028 10.9968 8.89329 10.9911 8.87629 10.9826C8.86213 10.9741 8.84797 10.9628 8.83948 10.9458L8.26458 9.95459C8.23909 9.91777 8.23909 9.87246 8.26174 9.83565L10.1054 6.64395C10.1139 6.62979 10.1167 6.61279 10.1167 6.59863C10.1167 6.58164 10.1111 6.56748 10.1054 6.55332L8.26174 3.35879C8.24192 3.3248 8.23909 3.28516 8.25608 3.25117L8.83098 2.2543C8.83948 2.24014 8.85364 2.22598 8.8678 2.21748C8.88479 2.20615 8.90461 2.20332 8.92727 2.20332H10.0714C10.1111 2.20332 10.1479 2.22314 10.1649 2.25996L12.0312 5.48848L12.6457 6.55332C12.6542 6.57031 12.6599 6.5873 12.6599 6.6043C12.6599 6.61562 12.6542 6.63262 12.6457 6.64961Z" fill="#EEF8FF"/>
</svg>
