<svg width="13" height="13" viewBox="0 0 13 13" fill="none" xmlns="http://www.w3.org/2000/svg">
<path d="M9.94038 7.99029C9.68656 8.24411 9.68656 8.65569 9.94038 8.90952C10.1942 9.16334 10.6058 9.16334 10.8596 8.90952L12.7531 7.01607C12.7628 7.00632 12.7723 6.99631 12.7814 6.9861C12.9155 6.86702 13 6.69334 13 6.4999C13 6.30646 12.9155 6.13278 12.7814 6.0137C12.7723 6.0035 12.7628 5.99349 12.7531 5.98374L10.8596 4.09028C10.6058 3.83644 10.1942 3.83644 9.94038 4.09028C9.68656 4.34413 9.68656 4.75568 9.94038 5.00952L10.7808 5.8499H7.15C6.79101 5.8499 6.5 6.14091 6.5 6.4999C6.5 6.8589 6.79101 7.1499 7.15 7.1499H10.7808L9.94038 7.99029Z" fill="#CE4A3A"/>
<path d="M1.95 0C0.873047 0 0 0.873047 0 1.95V11.05C0 12.127 0.873047 13 1.95 13H8.125C9.02245 13 9.75 12.2725 9.75 11.375V9.57619C9.65373 9.52055 9.56312 9.45158 9.48077 9.36923C9.05541 8.94387 8.98645 8.29718 9.27381 7.8H7.15C6.43201 7.8 5.85 7.21799 5.85 6.5C5.85 5.78201 6.43201 5.2 7.15 5.2H9.27381C8.98645 4.70284 9.05541 4.0561 9.48077 3.63076C9.56312 3.54841 9.65373 3.47942 9.75 3.4238V1.625C9.75 0.727538 9.02245 0 8.125 0H1.95Z" fill="#CE4A3A"/>
</svg>
