<svg width="13" height="13" viewBox="0 0 13 13" fill="none" xmlns="http://www.w3.org/2000/svg">
<path fill-rule="evenodd" clip-rule="evenodd" d="M7.15 4.55C7.15 4.19102 6.85899 3.9 6.5 3.9C6.141 3.9 5.85 4.19102 5.85 4.55V5.85H4.55C4.19102 5.85 3.9 6.141 3.9 6.5C3.9 6.85899 4.19102 7.15 4.55 7.15H5.85V8.45C5.85 8.80899 6.141 9.1 6.5 9.1C6.85899 9.1 7.15 8.80899 7.15 8.45V7.15H8.45C8.80899 7.15 9.1 6.85899 9.1 6.5C9.1 6.141 8.80899 5.85 8.45 5.85H7.15V4.55ZM3.41255 0.252083C4.25671 0.06448 5.28079 0 6.5 0C7.7192 0 8.74328 0.06448 9.58744 0.252083C10.439 0.44133 11.1467 0.7644 11.6912 1.30883C12.2356 1.85325 12.5586 2.56101 12.7479 3.41255C12.9355 4.25671 13 5.28079 13 6.5C13 7.7192 12.9355 8.74328 12.7479 9.58744C12.5586 10.439 12.2356 11.1467 11.6912 11.6912C11.1467 12.2356 10.439 12.5586 9.58744 12.7479C8.74328 12.9355 7.7192 13 6.5 13C5.28079 13 4.25671 12.9355 3.41255 12.7479C2.56101 12.5586 1.85325 12.2356 1.30883 11.6912C0.7644 11.1467 0.44133 10.439 0.252083 9.58744C0.06448 8.74328 0 7.7192 0 6.5C0 5.28079 0.06448 4.25671 0.252083 3.41255C0.44133 2.56101 0.7644 1.85325 1.30883 1.30883C1.85325 0.7644 2.56101 0.44133 3.41255 0.252083Z" fill="#9B7DD7"/>
</svg>
