<svg width="39" height="39" viewBox="0 0 39 39" fill="none" xmlns="http://www.w3.org/2000/svg">
<g clip-path="url(#clip0_1759_1075)">
<path d="M17.0625 7.3125V0H21.9375V7.3125H17.0625Z" fill="#F5F5F5"/>
<path d="M21.9375 31.6875V39H17.0625V31.6875H21.9375Z" fill="#F5F5F5"/>
<path d="M26.8125 19.5C26.8125 23.5386 23.5386 26.8125 19.5 26.8125C15.4614 26.8125 12.1875 23.5386 12.1875 19.5C12.1875 15.4614 15.4614 12.1875 19.5 12.1875C23.5386 12.1875 26.8125 15.4614 26.8125 19.5Z" fill="#F5F5F5"/>
<path d="M0 21.9375H7.3125V17.0625H0V21.9375Z" fill="#F5F5F5"/>
<path d="M39 17.0625H31.6875V21.9375H39V17.0625Z" fill="#F5F5F5"/>
<path d="M9.15851 12.6057L3.98779 7.43495L7.43495 3.98779L12.6057 9.15851L9.15851 12.6057Z" fill="#F5F5F5"/>
<path d="M29.8413 26.394L35.0122 31.5647L31.5648 35.0121L26.3942 29.8412L29.8413 26.394Z" fill="#F5F5F5"/>
<path d="M7.43495 35.0121L12.6057 29.8412L9.15851 26.394L3.98779 31.565L7.43495 35.0121Z" fill="#F5F5F5"/>
<path d="M31.5648 3.98779L26.3942 9.15851L29.8413 12.6057L35.0122 7.43495L31.5648 3.98779Z" fill="#F5F5F5"/>
</g>
<defs>
<clipPath id="clip0_1759_1075">
<rect width="39" height="39" fill="white"/>
</clipPath>
</defs>
</svg>
