<svg width="23" height="23" viewBox="0 0 23 23" fill="none" xmlns="http://www.w3.org/2000/svg">
<path d="M21.72 17.145H20.5725V16.005H19.4325V14.8575H18.285V12.5775H17.145V14.8575H16.005V16.005H14.8575V17.145H12.5775V18.285H14.8575V19.4325H16.005V20.5725H17.145V21.72H18.285V22.86H21.72V21.72H22.86V18.285H21.72V17.145ZM21.72 20.5725H20.5725V19.4325H19.4325V18.285H18.285V17.145H19.4325V18.285H20.5725V19.4325H21.72V20.5725Z" fill="#EEF8FF"/>
<path d="M18.285 6.86255H19.4325V12.5775H18.285V6.86255Z" fill="#EEF8FF"/>
<path d="M17.145 4.57495H18.285V6.86245H17.145V4.57495Z" fill="#EEF8FF"/>
<path d="M16.005 3.43506H17.145V4.57506H16.005V3.43506Z" fill="#EEF8FF"/>
<path d="M14.8575 2.28748H16.005V3.43498H14.8575V2.28748Z" fill="#EEF8FF"/>
<path d="M12.5775 13.7175H13.7175V14.8575H12.5775V13.7175Z" fill="#EEF8FF"/>
<path d="M12.5775 1.14746H14.8575V2.28746H12.5775V1.14746Z" fill="#EEF8FF"/>
<path d="M6.8625 14.8575H12.5775V16.005H6.8625V14.8575Z" fill="#EEF8FF"/>
<path d="M11.43 9.14246H12.5775V11.43H11.43V9.14246Z" fill="#EEF8FF"/>
<path d="M6.8625 18.285H12.5775V19.4325H6.8625V18.285Z" fill="#EEF8FF"/>
<path d="M8.0025 12.5775H11.43V13.7175H8.0025V12.5775Z" fill="#EEF8FF"/>
<path d="M6.8625 0H12.5775V1.1475H6.8625V0Z" fill="#EEF8FF"/>
<path d="M6.8625 9.14246H8.0025V11.43H6.8625V9.14246Z" fill="#EEF8FF"/>
<path d="M4.575 17.145H6.8625V18.285H4.575V17.145Z" fill="#EEF8FF"/>
<path d="M5.715 13.7175H6.8625V14.8575H5.715V13.7175Z" fill="#EEF8FF"/>
<path d="M4.575 1.14746H6.8625V2.28746H4.575V1.14746Z" fill="#EEF8FF"/>
<path d="M5.715 8.00256H6.8625V6.86256H12.5775V8.00256H13.7175V13.7176H14.8575V5.71506H13.7175V4.57506H12.5775V3.43506H6.8625V4.57506H5.715V5.71506H4.575V13.7176H5.715V8.00256Z" fill="#EEF8FF"/>
<path d="M3.42751 16.005H4.57501V17.145H3.42751V16.005Z" fill="#EEF8FF"/>
<path d="M3.42751 2.28748H4.57501V3.43498H3.42751V2.28748Z" fill="#EEF8FF"/>
<path d="M2.28751 14.8575H3.42751V16.005H2.28751V14.8575Z" fill="#EEF8FF"/>
<path d="M2.28751 3.43506H3.42751V4.57506H2.28751V3.43506Z" fill="#EEF8FF"/>
<path d="M1.14751 12.5775H2.28751V14.8575H1.14751V12.5775Z" fill="#EEF8FF"/>
<path d="M1.14751 4.57495H2.28751V6.86245H1.14751V4.57495Z" fill="#EEF8FF"/>
<path d="M0 6.86255H1.1475V12.5775H0V6.86255Z" fill="#EEF8FF"/>
</svg>
