<svg width="12" height="16" viewBox="0 0 12 16" fill="none" xmlns="http://www.w3.org/2000/svg">
<path fill-rule="evenodd" clip-rule="evenodd" d="M11.0242 5.55665C11.0487 8.60083 8.5119 11.4164 5.46771 11.3918C2.4235 11.3673 0.0247455 8.5119 0.000183239 5.46769C-0.024379 2.4235 2.4235 -0.024379 5.46771 0.000183239C8.5119 0.0247455 10.9996 2.51246 11.0242 5.55665ZM5.88413 2.38862C5.57972 2.38617 5.33093 2.63096 5.32843 2.93538C5.32601 3.2398 5.57075 3.48857 5.87517 3.49103C6.78225 3.49834 7.52603 4.24212 7.5333 5.14914C7.5358 5.45356 7.78458 5.69835 8.089 5.6959C8.39342 5.69344 8.63816 5.44467 8.63574 5.14025C8.62354 3.63133 7.393 2.4008 5.88413 2.38862Z" fill="#F8F7EF"/>
<path d="M7.10482 11.9169C7.34898 12.6977 6.84303 13.4836 6.06346 13.642V14.699C6.06346 15.0035 5.81667 15.2503 5.51225 15.2503C5.20783 15.2503 4.96103 15.0035 4.96103 14.699V13.642C4.18146 13.4836 3.67547 12.6977 3.91964 11.9169L3.9247 11.9012C4.41297 12.0436 4.92737 12.1223 5.46183 12.1267C6.02848 12.1312 6.57735 12.0514 7.09931 11.8997C7.1013 11.9055 7.10306 11.9112 7.10482 11.9169Z" fill="#F8F7EF"/>
</svg>
