<svg width="14" height="15" viewBox="0 0 14 15" fill="none" xmlns="http://www.w3.org/2000/svg">
<path fill-rule="evenodd" clip-rule="evenodd" d="M3.11111 0C2.90483 0 2.707 0.0824833 2.56114 0.229305C2.41528 0.376126 2.33333 0.575258 2.33333 0.782895V1.56657C1.58589 1.57753 1.29111 1.66757 0.994778 1.82728C0.681632 1.99414 0.425551 2.25191 0.259778 2.56711C0.0902223 2.88575 0 3.20204 0 4.07497V12.3658C0 13.238 0.0902223 13.555 0.259778 13.8737C0.429333 14.1923 0.678222 14.4428 0.994778 14.6135C1.31133 14.7842 1.62556 14.875 2.49278 14.875H11.5072C12.3737 14.875 12.6887 14.7842 13.0052 14.6135C13.3218 14.4428 13.5707 14.1923 13.7402 13.8737C13.9098 13.555 14 13.2387 14 12.3658V4.07497C14 3.20204 13.9098 2.88575 13.7402 2.56711C13.5744 2.25191 13.3184 1.99414 13.0052 1.82728C12.7089 1.66757 12.4141 1.57753 11.6667 1.56579V0.782895C11.6667 0.575258 11.5847 0.376126 11.4389 0.229305C11.293 0.0824833 11.0952 0 10.8889 0C10.6826 0 10.4848 0.0824833 10.3389 0.229305C10.1931 0.376126 10.1111 0.575258 10.1111 0.782895V1.56579H3.88889V0.782895C3.88889 0.575258 3.80694 0.376126 3.66108 0.229305C3.51522 0.0824833 3.31739 0 3.11111 0ZM1.55556 5.48026V12.3658C1.55556 12.7001 1.57033 12.9092 1.59367 13.0305C1.603 13.0775 1.60689 13.0884 1.63178 13.1354C1.6524 13.1778 1.68629 13.2122 1.72822 13.2333C1.77489 13.2575 1.785 13.2615 1.83244 13.2708C1.953 13.2943 2.16067 13.3092 2.49278 13.3092H11.5072C11.8393 13.3092 12.047 13.2943 12.1676 13.2708C12.2045 13.2653 12.24 13.2523 12.2718 13.2325C12.3139 13.2117 12.348 13.1776 12.369 13.1354C12.3884 13.1034 12.4011 13.0677 12.4063 13.0305C12.4297 12.9092 12.4444 12.7001 12.4444 12.3658L12.4476 5.48026H1.55556ZM8.36111 8.61184C8.2064 8.61184 8.05803 8.6737 7.94863 8.78382C7.83924 8.89394 7.77778 9.04329 7.77778 9.19901V11.1562C7.77778 11.4804 8.03911 11.7434 8.36111 11.7434H10.3056C10.4603 11.7434 10.6086 11.6816 10.718 11.5714C10.8274 11.4613 10.8889 11.312 10.8889 11.1562V9.19901C10.8889 9.04329 10.8274 8.89394 10.718 8.78382C10.6086 8.6737 10.4603 8.61184 10.3056 8.61184H8.36111Z" fill="#F8F7EF"/>
</svg>
