<svg width="20" height="20" viewBox="0 0 20 20" fill="none" xmlns="http://www.w3.org/2000/svg">
<path fill-rule="evenodd" clip-rule="evenodd" d="M14.8492 12.3744L12.3743 9.89949L14.8492 7.42462C15.5328 6.74094 15.5325 5.63312 14.8492 4.94975C14.1658 4.26637 13.058 4.26606 12.3743 4.94975L9.89941 7.42462L7.42454 4.94975C6.74117 4.26637 5.63335 4.26606 4.94967 4.94975C4.26598 5.63343 4.26629 6.74125 4.94967 7.42462L7.42454 9.89949L4.94967 12.3744C4.26598 13.0581 4.26629 14.1659 4.94967 14.8492C5.63304 15.5326 6.74086 15.5329 7.42454 14.8492L9.89941 12.3744L12.3743 14.8492C13.0577 15.5326 14.1655 15.5329 14.8492 14.8492C15.5328 14.1656 15.5325 13.0577 14.8492 12.3744Z" fill="#BB1A24"/>
</svg>
