<svg width="14" height="14" viewBox="0 0 14 14" fill="none" xmlns="http://www.w3.org/2000/svg">
<path d="M13.4262 12.8525H13.082V1.49221C13.082 1.1755 12.825 0.918462 12.5082 0.918462H9.75424C9.43753 0.918462 9.18049 1.1755 9.18049 1.49221C9.18049 1.80892 9.43753 2.06597 9.75424 2.06597H11.9345V13.4262C11.935 13.743 12.1915 13.9995 12.5082 14H13.4262C13.743 14 14 13.743 14 13.4262C14 13.1095 13.743 12.8525 13.4262 12.8525ZM7.81266 0.00826203L2.3152 0.926265C2.04164 0.973542 1.83601 1.20901 1.83601 1.49221V12.8525H0.573752C0.257041 12.8525 0 13.1095 0 13.4262C0 13.743 0.257041 14 0.573752 14H7.90722C8.22393 13.9995 8.48051 13.743 8.48097 13.4262V0.574211C8.48097 0.2575 8.22439 0 7.90722 0C7.87371 0 7.84112 0.00275401 7.80899 0.00826203L7.8122 0.007803L7.81266 0.00826203ZM2.98397 12.8525V1.9783L7.33392 1.2517V12.8525H2.98397ZM6.34845 6.59631C6.2952 6.5472 6.23462 6.50405 6.16944 6.47008L6.16485 6.46779C6.09967 6.44163 6.02393 6.42648 5.94453 6.42648C5.86512 6.42648 5.78938 6.44163 5.72008 6.46917L5.72421 6.46779C5.65214 6.499 5.5911 6.54261 5.54061 6.59631L5.54015 6.59677C5.48736 6.64818 5.44422 6.70876 5.41346 6.77624L5.41209 6.77991C5.38271 6.84463 5.36573 6.92036 5.36573 7.00023C5.36573 7.0801 5.38271 7.15583 5.41346 7.22422L5.41209 7.22055C5.44467 7.29215 5.48782 7.35274 5.54015 7.40415C5.59064 7.45785 5.65214 7.50146 5.72053 7.53084L5.72421 7.53221C5.78984 7.55562 5.86558 7.56893 5.94453 7.56893C6.02347 7.56893 6.09921 7.55562 6.16944 7.53084L6.16485 7.53221C6.23507 7.49595 6.2952 7.45326 6.34891 7.40369L6.34845 7.40415C6.39802 7.35274 6.43841 7.2917 6.46641 7.22422L6.46779 7.22055C6.49671 7.15583 6.51369 7.0801 6.51369 7.00023C6.51369 6.92036 6.49671 6.84463 6.46641 6.77624L6.46779 6.77991C6.43841 6.70876 6.39802 6.64818 6.34845 6.59631Z" fill="#F8F7EF"/>
</svg>
