<svg width="18" height="19" viewBox="0 0 18 19" fill="none" xmlns="http://www.w3.org/2000/svg">
<path d="M16.0167 4.81934C16.6261 5.17905 17 5.83402 17 6.54167V15.6775C17 16.7821 16.1046 17.6775 15 17.6775H13C11.8954 17.6775 11 16.7821 11 15.6775V11.6774C11 10.5729 10.1046 9.67744 9 9.67744C7.8954 9.67744 7 10.5729 7 11.6774V15.6775C7 16.7821 6.10457 17.6775 5 17.6775H3C1.89543 17.6775 1 16.7821 1 15.6775V6.54167C1 5.83402 1.37395 5.17905 1.98335 4.81934L7.9833 1.27767C8.6106 0.907443 9.3894 0.907443 10.0167 1.27767L16.0167 4.81934Z" stroke="#F8F7EF" stroke-width="2" stroke-linecap="round" stroke-linejoin="round"/>
</svg>
