<svg width="16" height="14" viewBox="0 0 16 14" fill="none" xmlns="http://www.w3.org/2000/svg">
<path fill-rule="evenodd" clip-rule="evenodd" d="M12 0C13.2782 0 14.3229 0.971385 14.3959 2.19623L14.4 2.33333V5.71674L14.8751 5.51149C15.3661 5.29934 15.933 5.62854 15.9945 6.1317L16 6.22222V12.4444C16 13.2645 15.3473 13.9364 14.5194 13.9957L14.4 14H1.6C0.75651 14 0.0654679 13.3654 0.00438862 12.5605L0 12.4444V6.22222C0 5.69987 0.539709 5.32986 1.0376 5.4796L1.12491 5.51149L1.6 5.71674V2.33333C1.6 1.0907 2.59914 0.0749306 3.85898 0.00396093L4 0H12ZM14.4 7.41907L8.64984 9.90368C8.23608 10.0824 7.76392 10.0824 7.35016 9.90368L1.6 7.41907V12.4444H14.4V7.41907ZM12 1.55556H4C3.55818 1.55556 3.2 1.90378 3.2 2.33333V6.40811L8 8.48221L12.8 6.40811V2.33333C12.8 1.90378 12.4418 1.55556 12 1.55556ZM8 3.88889C8.44184 3.88889 8.8 4.23712 8.8 4.66667C8.8 5.06554 8.49118 5.39428 8.0933 5.43921L8 5.44444H6.4C5.95818 5.44444 5.6 5.09622 5.6 4.66667C5.6 4.2678 5.90884 3.93905 6.3067 3.89412L6.4 3.88889H8Z" fill="#F8F7EF"/>
</svg>
