<svg width="20" height="20" viewBox="0 0 20 20" fill="none" xmlns="http://www.w3.org/2000/svg">
<path d="M5.38832 14.813C5.09382 14.5217 4.61895 14.5243 4.32767 14.8188C4.0364 15.1133 4.03901 15.5882 4.33351 15.8794L5.38832 14.813ZM17.7619 5.95635C17.8758 6.35458 18.2911 6.58502 18.6893 6.47105C19.0875 6.35709 19.3179 5.94187 19.204 5.54365L17.7619 5.95635ZM19.1416 9.9767C19.2667 9.5818 19.0481 9.1603 18.6533 9.0351C18.2585 8.9099 17.8369 9.1285 17.7117 9.5233L19.1416 9.9767ZM10.8661 8.6339C10.378 8.1457 10.378 7.35427 10.8661 6.86612L9.8055 5.80546C8.7315 6.8794 8.7315 8.6206 9.8055 9.6945L10.8661 8.6339ZM12.6339 8.6339C12.1457 9.122 11.3543 9.122 10.8661 8.6339L9.8055 9.6945C10.8794 10.7685 12.6206 10.7685 13.6945 9.6945L12.6339 8.6339ZM12.6339 6.86612C13.122 7.35427 13.122 8.1457 12.6339 8.6339L13.6945 9.6945C14.7685 8.6206 14.7685 6.8794 13.6945 5.80546L12.6339 6.86612ZM13.6945 5.80546C12.6206 4.73151 10.8794 4.73151 9.8055 5.80546L10.8661 6.86612C11.3543 6.37796 12.1457 6.37796 12.6339 6.86612L13.6945 5.80546ZM17.2574 2.24258C14.2673 -0.747528 9.4194 -0.747528 6.42928 2.24258L7.48994 3.30324C9.8943 0.898922 13.7924 0.898922 16.1968 3.30324L17.2574 2.24258ZM4.36525 9.888L0.653164 13.6001L1.71382 14.6608L5.42591 10.9487L4.36525 9.888ZM5.89989 18.8468L7.14029 17.6064L6.07963 16.5458L4.83923 17.7862L5.89989 18.8468ZM7.14029 17.6064L9.6123 15.1345L8.5516 14.0738L6.07963 16.5458L7.14029 17.6064ZM0.013654 15.4232L0.245724 17.5118L1.73654 17.3462L1.50447 15.2576L0.013654 15.4232ZM1.98819 19.2543L4.07678 19.4864L4.24242 17.9955L2.15384 17.7635L1.98819 19.2543ZM0.743754 18.548L0.951964 18.7562L2.01263 17.6956L1.80441 17.4874L0.743754 18.548ZM2.15384 17.7635C2.10042 17.7575 2.05063 17.7336 2.01263 17.6956L0.951964 18.7562C1.23081 19.035 1.59626 19.2107 1.98819 19.2543L2.15384 17.7635ZM0.245724 17.5118C0.289264 17.9037 0.464904 18.2692 0.743754 18.548L1.80441 17.4874C1.76641 17.4494 1.74248 17.3996 1.73654 17.3462L0.245724 17.5118ZM4.83923 17.7862C4.68242 17.943 4.46283 18.02 4.24242 17.9955L4.07678 19.4864C4.75007 19.5612 5.42087 19.3259 5.89989 18.8468L4.83923 17.7862ZM0.653164 13.6001C0.174144 14.0791 -0.061156 14.7499 0.013654 15.4232L1.50447 15.2576C1.47999 15.0372 1.55701 14.8176 1.71382 14.6608L0.653164 13.6001ZM5.88075 9.1946C5.35655 7.1533 5.89412 4.89906 7.48994 3.30324L6.42928 2.24258C4.44321 4.22865 3.77725 7.03401 4.42789 9.5677L5.88075 9.1946ZM16.1968 12.0101C14.6009 13.6059 12.3467 14.1434 10.3054 13.6193L9.9323 15.0721C12.466 15.7228 15.2714 15.0568 17.2574 13.0707L16.1968 12.0101ZM9.6123 15.1345C9.6681 15.0787 9.7824 15.0336 9.9323 15.0721L10.3054 13.6193C9.7175 13.4683 9.0345 13.5909 8.5516 14.0738L9.6123 15.1345ZM5.42591 10.9487C5.90857 10.466 6.03182 9.7829 5.88075 9.1946L4.42789 9.5677C4.4663 9.7172 4.42127 9.832 4.36525 9.888L5.42591 10.9487ZM7.13736 16.5429L5.38832 14.813L4.33351 15.8794L6.08255 17.6093L7.13736 16.5429ZM16.1968 3.30324C16.963 4.0695 17.484 4.98555 17.7619 5.95635L19.204 5.54365C18.8579 4.33425 18.2083 3.1935 17.2574 2.24258L16.1968 3.30324ZM17.7117 9.5233C17.4235 10.4321 16.9192 11.2876 16.1968 12.0101L17.2574 13.0707C18.1538 12.1744 18.7825 11.1092 19.1416 9.9767L17.7117 9.5233Z" fill="#F8F7EF"/>
</svg>
