<svg width="16" height="16" viewBox="0 0 16 16" fill="none" xmlns="http://www.w3.org/2000/svg">
<path fill-rule="evenodd" clip-rule="evenodd" d="M11.181 7.71098C11.181 7.39159 10.922 7.13265 10.6026 7.13265H2.14169L3.65355 5.83677C3.89606 5.62891 3.92414 5.26381 3.71628 5.02131C3.50842 4.77879 3.14332 4.75071 2.90081 4.95858L0.201959 7.27191C0.0737712 7.38172 0 7.54218 0 7.71098C0 7.87977 0.0737712 8.04024 0.201959 8.15004L2.90081 10.4633C3.14332 10.6712 3.50842 10.6432 3.71628 10.4007C3.92414 10.1581 3.89606 9.79303 3.65355 9.58522L2.14169 8.2893H10.6026C10.922 8.2893 11.181 8.03037 11.181 7.71098Z" fill="#F8F7EF"/>
<path d="M5.97604 4.62661C5.97604 5.16807 5.97604 5.4388 6.10597 5.63328C6.16224 5.71749 6.23455 5.7898 6.31876 5.84607C6.51326 5.97601 6.784 5.97601 7.32546 5.97601H10.6026C11.5608 5.97601 12.3376 6.75277 12.3376 7.71101C12.3376 8.66918 11.5608 9.44599 10.6026 9.44599H7.32546C6.784 9.44599 6.51319 9.44599 6.31871 9.57592C6.23453 9.63221 6.16226 9.70447 6.106 9.78867C5.97604 9.98314 5.97604 10.2539 5.97604 10.7954C5.97604 12.9764 5.97604 14.0669 6.6536 14.7445C7.33117 15.422 8.42151 15.422 10.6025 15.422H11.3736C13.5546 15.422 14.6451 15.422 15.3226 14.7445C16.0002 14.0669 16.0002 12.9764 16.0002 10.7954V4.62661C16.0002 2.44561 16.0002 1.3551 15.3226 0.677551C14.6451 0 13.5546 0 11.3736 0H10.6025C8.42151 0 7.33117 0 6.6536 0.677551C5.97604 1.3551 5.97604 2.4456 5.97604 4.62661Z" fill="#F8F7EF"/>
</svg>
