<svg width="20" height="21" viewBox="0 0 20 21" fill="none" xmlns="http://www.w3.org/2000/svg">
<path opacity="0.5" d="M1.17157 5.92157C2.01536 5.07778 3.22954 4.84171 5.25179 4.77566L6.75208 4.75188C7.1435 4.75 7.55885 4.75 8 4.75H12C12.4412 4.75 12.8565 4.75 13.2479 4.75188L14.7482 4.77566C16.7705 4.84171 17.9846 5.07778 18.8284 5.92157C20 7.09315 20 8.9788 20 12.75C20 16.5212 20 18.4069 18.8284 19.5784C17.6569 20.75 15.7712 20.75 12 20.75H7.99998C4.22876 20.75 2.34314 20.75 1.17157 19.5784C1.19209e-07 18.4069 0 16.5212 0 12.75C0 8.9788 1.19209e-07 7.09315 1.17157 5.92157Z" fill="#E25555"/>
<path d="M10.75 8.75C10.75 8.33579 10.4142 8 10 8C9.5858 8 9.25 8.33579 9.25 8.75V8.7602C8.1612 9.0345 7.25 9.893 7.25 11.0833C7.25 12.5403 8.6151 13.5 10 13.5C10.8242 13.5 11.25 14.0326 11.25 14.4167C11.25 14.8007 10.8242 15.3333 10 15.3333C9.1758 15.3333 8.75 14.8007 8.75 14.4167C8.75 14.0025 8.4142 13.6667 8 13.6667C7.58579 13.6667 7.25 14.0025 7.25 14.4167C7.25 15.607 8.1612 16.4655 9.25 16.7398V16.75C9.25 17.1642 9.5858 17.5 10 17.5C10.4142 17.5 10.75 17.1642 10.75 16.75V16.7398C11.8388 16.4655 12.75 15.607 12.75 14.4167C12.75 12.9597 11.3849 12 10 12C9.1758 12 8.75 11.4674 8.75 11.0833C8.75 10.6993 9.1758 10.1667 10 10.1667C10.8242 10.1667 11.25 10.6993 11.25 11.0833C11.25 11.4975 11.5858 11.8333 12 11.8333C12.4142 11.8333 12.75 11.4975 12.75 11.0833C12.75 9.893 11.8388 9.0345 10.75 8.7602V8.75Z" fill="#E25555"/>
<path d="M10.0522 1.15089e-06H9.9482C9.0497 -2.88491e-05 8.3005 -4.88162e-05 7.70568 0.0799112C7.07789 0.164321 6.51109 0.349991 6.05562 0.805461C5.60015 1.26093 5.41448 1.82773 5.33007 2.45552C5.27275 2.88189 5.25653 3.90147 5.25195 4.77566L6.75224 4.75188C6.75677 3.90523 6.77116 2.99407 6.8167 2.6554C6.87874 2.19393 6.98596 1.99644 7.11628 1.86612C7.24659 1.7358 7.44409 1.62858 7.90555 1.56654C8.3886 1.5016 9.0362 1.5 10.0002 1.5C10.9642 1.5 11.6117 1.5016 12.0948 1.56654C12.5562 1.62858 12.7537 1.7358 12.884 1.86612C13.0144 1.99644 13.1216 2.19393 13.1836 2.6554C13.2292 2.99407 13.2436 3.90523 13.2481 4.75188L14.7484 4.77566C14.7438 3.90147 14.7276 2.88189 14.6702 2.45552C14.5858 1.82773 14.4002 1.26093 13.9447 0.805461C13.4892 0.349991 12.9224 0.164321 12.2946 0.0799112C11.6999 -4.88162e-05 10.9506 -2.88491e-05 10.0522 1.15089e-06Z" fill="#E25555"/>
</svg>
