<svg width="16" height="16" viewBox="0 0 16 16" fill="none" xmlns="http://www.w3.org/2000/svg">
<path d="M7.99993 16C8.21209 16 8.41554 15.9157 8.56554 15.7656L15.7656 8.5667C15.8473 8.48509 15.9103 8.38679 15.9503 8.27855C15.9904 8.1703 16.0065 8.05467 15.9976 7.93959L15.4832 1.25498C15.4687 1.06455 15.3865 0.885609 15.2515 0.750494C15.1165 0.615379 14.9377 0.533014 14.7472 0.518288L8.06153 0.00236441C7.94644 -0.00650308 7.83079 0.00963764 7.72252 0.0496784C7.61426 0.0897191 7.51594 0.152711 7.43433 0.23433L0.234232 7.43327C0.0842533 7.58327 0 7.78668 0 7.99878C0 8.21088 0.0842533 8.4143 0.234232 8.5643L7.43433 15.7632C7.5084 15.838 7.59648 15.8973 7.69354 15.9379C7.7906 15.9786 7.89471 15.9997 7.99993 16ZM8.30554 1.62772L13.9408 2.06126L14.3744 7.69563L7.99993 14.0691L1.93105 8.00118L8.30554 1.62772ZM9.95436 6.04707C9.73054 5.82336 9.57811 5.53831 9.51633 5.22797C9.45455 4.91764 9.48621 4.59595 9.6073 4.3036C9.72839 4.01126 9.93347 3.76138 10.1966 3.58558C10.4597 3.40977 10.7691 3.31593 11.0856 3.31593C11.402 3.31593 11.7114 3.40977 11.9745 3.58558C12.2377 3.76138 12.4428 4.01126 12.5638 4.3036C12.6849 4.59595 12.7166 4.91764 12.6548 5.22797C12.593 5.53831 12.4406 5.82336 12.2168 6.04707C11.9167 6.34698 11.5098 6.51546 11.0856 6.51546C10.6613 6.51546 10.2544 6.34698 9.95436 6.04707Z" fill="#F8F7EF"/>
</svg>
