<svg width="15" height="14" viewBox="0 0 15 14" fill="none" xmlns="http://www.w3.org/2000/svg">
<path d="M5.67905 10.9623C5.496 10.9623 5.34729 11.1106 5.34729 11.2939C5.34729 11.4771 5.49603 11.6256 5.67905 11.6256C5.86233 11.6256 6.01084 11.4771 6.01084 11.2939C6.01084 11.1106 5.86233 10.9623 5.67905 10.9623Z" fill="#F8F7EF"/>
<path d="M5.67905 9.72266C5.496 9.72266 5.34729 9.87116 5.34729 10.0544C5.34729 10.2375 5.49603 10.386 5.67905 10.386C5.86233 10.386 6.01084 10.2375 6.01084 10.0544C6.01084 9.87113 5.86233 9.72266 5.67905 9.72266Z" fill="#F8F7EF"/>
<path d="M14.3972 5.73328H6.01084H5.95005H5.34727H3.01213H2.40941V6.33583V12.5332V13.136H3.01216H5.3473H5.95008H6.01087H14.3972H15V12.5332V6.33583V5.73328H14.3972ZM14.3972 12.5332H6.01084C6.01084 12.3499 5.86234 12.2016 5.67906 12.2016C5.49601 12.2016 5.3473 12.3499 5.3473 12.5332H3.01216V6.33583H5.3473C5.3473 6.51908 5.49604 6.66741 5.67906 6.66741C5.86234 6.66741 6.01084 6.51911 6.01084 6.33583H14.3972L14.3972 12.5332Z" fill="#F8F7EF"/>
<path d="M5.67905 8.48315C5.496 8.48315 5.34729 8.63166 5.34729 8.81491C5.34729 8.99796 5.49603 9.14649 5.67905 9.14649C5.86233 9.14649 6.01084 8.99796 6.01084 8.81491C6.01084 8.63166 5.86233 8.48315 5.67905 8.48315Z" fill="#F8F7EF"/>
<path d="M5.67905 7.24377C5.496 7.24377 5.34729 7.39207 5.34729 7.57536C5.34729 7.75864 5.49603 7.90714 5.67905 7.90714C5.86233 7.90714 6.01084 7.75864 6.01084 7.57536C6.01084 7.39207 5.86233 7.24377 5.67905 7.24377Z" fill="#F8F7EF"/>
<path d="M3.45252 4.81682L10.824 0.817119L13.1648 5.13056H13.8502L11.3536 0.529394L11.0663 0L10.5363 0.28708L3.16547 4.28722L3.11203 4.31607L2.58223 4.60336L0.529805 5.71728L0 6.00477L0.28749 6.53461L1.80683 9.33439V8.07064L0.817324 6.24712L1.80683 5.7099L3.45252 4.81682Z" fill="#F8F7EF"/>
</svg>
