<svg width="10" height="14" viewBox="0 0 10 14" fill="none" xmlns="http://www.w3.org/2000/svg">
<path opacity="0.4" d="M4.92743 0C3.0934 0 1.60237 1.49103 1.60237 3.32506C1.60237 5.1241 3.0094 6.58012 4.84343 6.64312C4.89943 6.63612 4.95543 6.63612 4.99744 6.64312C5.01144 6.64312 5.01844 6.64312 5.03244 6.64312C5.03944 6.64312 5.03944 6.64312 5.04644 6.64312C6.83847 6.58012 8.2455 5.1241 8.2525 3.32506C8.2525 1.49103 6.76147 0 4.92743 0Z" fill="#F8F7EF"/>
<path d="M8.48413 8.50508C6.5311 7.20306 3.34606 7.20306 1.37903 8.50508C0.490009 9.10009 0 9.90511 0 10.7661C0 11.6271 0.490009 12.4252 1.37203 13.0132C2.35204 13.6712 3.64004 14.0002 4.92806 14.0002C6.21609 14.0002 7.50411 13.6712 8.48413 13.0132C9.36615 12.4182 9.85616 11.6201 9.85616 10.7521C9.84916 9.89111 9.36615 9.09309 8.48413 8.50508Z" fill="#F8F7EF"/>
</svg>
