<svg width="127" height="46" viewBox="0 0 127 46" fill="none" xmlns="http://www.w3.org/2000/svg">
<path d="M10.6667 22.75H34.8333M13.0833 14.2917C13.0833 14.2917 15.5 15.5 17.9167 15.5C21.5417 15.5 23.9583 13.0833 27.5833 13.0833C30 13.0833 32.4167 14.2917 32.4167 14.2917M13.0833 31.2083C13.0833 31.2083 15.5 32.4167 17.9167 32.4167C21.5417 32.4167 23.9583 30 27.5833 30C30 30 32.4167 31.2083 32.4167 31.2083M44.5 22.75C44.5 34.7623 34.7623 44.5 22.75 44.5C10.7378 44.5 1 34.7623 1 22.75C1 10.7378 10.7378 1 22.75 1C34.7623 1 44.5 10.7378 44.5 22.75Z" stroke="white" stroke-width="2" stroke-linecap="round" stroke-linejoin="round"/>
<path d="M74.64 29.75H73.24L65.5 17.99V29.75H64.1V15.77H65.5L73.24 27.51V15.77H74.64V29.75ZM82.5909 29.91C81.5643 29.91 80.6376 29.6833 79.8109 29.23C78.9976 28.7633 78.3509 28.11 77.8709 27.27C77.4043 26.4167 77.1709 25.4233 77.1709 24.29C77.1709 23.1567 77.4109 22.17 77.8909 21.33C78.3709 20.4767 79.0243 19.8233 79.8509 19.37C80.6776 18.9033 81.6043 18.67 82.6309 18.67C83.6576 18.67 84.5843 18.9033 85.4109 19.37C86.2509 19.8233 86.9043 20.4767 87.3709 21.33C87.8509 22.17 88.0909 23.1567 88.0909 24.29C88.0909 25.41 87.8509 26.3967 87.3709 27.25C86.8909 28.1033 86.2309 28.7633 85.3909 29.23C84.5509 29.6833 83.6176 29.91 82.5909 29.91ZM82.5909 28.69C83.3109 28.69 83.9776 28.53 84.5909 28.21C85.2043 27.8767 85.6976 27.3833 86.0709 26.73C86.4576 26.0633 86.6509 25.25 86.6509 24.29C86.6509 23.33 86.4643 22.5233 86.0909 21.87C85.7176 21.2033 85.2243 20.71 84.6109 20.39C83.9976 20.0567 83.3309 19.89 82.6109 19.89C81.8909 19.89 81.2243 20.0567 80.6109 20.39C79.9976 20.71 79.5043 21.2033 79.1309 21.87C78.7709 22.5233 78.5909 23.33 78.5909 24.29C78.5909 25.25 78.7709 26.0633 79.1309 26.73C79.5043 27.3833 79.9909 27.8767 80.5909 28.21C81.2043 28.53 81.8709 28.69 82.5909 28.69ZM97.183 22.53C97.9696 22.6767 98.6363 23.0767 99.183 23.73C99.7296 24.3833 100.003 25.1433 100.003 26.01C100.003 26.7167 99.823 27.3567 99.463 27.93C99.1163 28.49 98.603 28.9367 97.923 29.27C97.243 29.59 96.4296 29.75 95.483 29.75H90.643V15.77H95.343C96.7563 15.77 97.8296 16.0967 98.563 16.75C99.3096 17.4033 99.683 18.25 99.683 19.29C99.683 20.1567 99.4496 20.8633 98.983 21.41C98.5163 21.9433 97.9163 22.3167 97.183 22.53ZM92.043 21.95H95.303C96.2496 21.95 96.9763 21.73 97.483 21.29C98.003 20.8367 98.263 20.2167 98.263 19.43C98.263 18.6567 98.003 18.05 97.483 17.61C96.9763 17.17 96.2296 16.95 95.243 16.95H92.043V21.95ZM95.383 28.57C96.3963 28.57 97.183 28.33 97.743 27.85C98.3163 27.37 98.603 26.71 98.603 25.87C98.603 25.03 98.303 24.3633 97.703 23.87C97.1163 23.3633 96.323 23.11 95.323 23.11H92.043V28.57H95.383ZM112.457 23.73C112.457 24.21 112.443 24.5767 112.417 24.83H103.357C103.397 25.6567 103.597 26.3633 103.957 26.95C104.317 27.5367 104.79 27.9833 105.377 28.29C105.963 28.5833 106.603 28.73 107.297 28.73C108.203 28.73 108.963 28.51 109.577 28.07C110.203 27.63 110.617 27.0367 110.817 26.29H112.297C112.03 27.3567 111.457 28.23 110.577 28.91C109.71 29.5767 108.617 29.91 107.297 29.91C106.27 29.91 105.35 29.6833 104.537 29.23C103.723 28.7633 103.083 28.11 102.617 27.27C102.163 26.4167 101.937 25.4233 101.937 24.29C101.937 23.1567 102.163 22.1633 102.617 21.31C103.07 20.4567 103.703 19.8033 104.517 19.35C105.33 18.8967 106.257 18.67 107.297 18.67C108.337 18.67 109.243 18.8967 110.017 19.35C110.803 19.8033 111.403 20.4167 111.817 21.19C112.243 21.95 112.457 22.7967 112.457 23.73ZM111.037 23.69C111.05 22.8767 110.883 22.1833 110.537 21.61C110.203 21.0367 109.743 20.6033 109.157 20.31C108.57 20.0167 107.93 19.87 107.237 19.87C106.197 19.87 105.31 20.2033 104.577 20.87C103.843 21.5367 103.437 22.4767 103.357 23.69H111.037ZM116.838 20.01V26.79C116.838 27.4567 116.965 27.9167 117.218 28.17C117.471 28.4233 117.918 28.55 118.558 28.55H119.838V29.75H118.338C117.351 29.75 116.618 29.5233 116.138 29.07C115.658 28.6033 115.418 27.8433 115.418 26.79V20.01H113.898V18.83H115.418V16.09H116.838V18.83H119.838V20.01H116.838Z" fill="white"/>
</svg>
