<svg width="138" height="36" viewBox="0 0 138 36" fill="none" xmlns="http://www.w3.org/2000/svg">
<path d="M0 11C0 4.92487 4.92487 0 11 0H36V36H0V11Z" fill="#6C63FF"/>
<path d="M22.7319 21.9796C21.4346 23.2769 20.1298 23.9482 18.8174 23.9934C17.4975 24.0312 16.2454 23.4579 15.0612 22.2738C13.8394 21.0519 13.2473 19.7583 13.285 18.3932C13.3227 17.028 14.0166 15.6703 15.3667 14.3202C15.8193 13.8677 16.253 13.4868 16.6678 13.1775C17.0902 12.8607 17.5163 12.593 17.9462 12.3743L19.7677 14.1958C19.3077 14.3994 18.8777 14.6559 18.478 14.9651C18.0782 15.2743 17.6936 15.6138 17.324 15.9833C16.6225 16.6848 16.253 17.3711 16.2152 18.0424C16.1851 18.7062 16.5245 19.3925 17.2335 20.1015C17.8972 20.7653 18.527 21.0934 19.1229 21.0858C19.7263 21.0707 20.3259 20.7653 20.9217 20.1694C21.1178 19.9733 21.2913 19.7772 21.4422 19.5811C21.5855 19.3774 21.7099 19.1776 21.8155 18.9815L20.752 17.918L19.3039 19.3661L17.9915 18.0537L21.2159 14.8293L24.8815 18.495C24.7759 18.9475 24.5572 19.4755 24.2253 20.0789C23.901 20.6748 23.4032 21.3083 22.7319 21.9796Z" fill="#F5F5F5"/>
<path d="M49.032 24.16C47.1973 24.16 45.8 23.712 44.84 22.816C43.88 21.9093 43.4 20.6187 43.4 18.944C43.4 17.216 43.896 15.8827 44.888 14.944C45.88 14.0053 47.3307 13.536 49.24 13.536C49.88 13.536 50.456 13.5733 50.968 13.648C51.4907 13.7227 51.9813 13.8347 52.44 13.984V16.56C51.9707 16.3787 51.4853 16.256 50.984 16.192C50.4827 16.128 49.9707 16.096 49.448 16.096C48.456 16.096 47.7093 16.32 47.208 16.768C46.7173 17.216 46.472 17.9413 46.472 18.944C46.472 19.8827 46.6853 20.56 47.112 20.976C47.5493 21.392 48.1893 21.6 49.032 21.6C49.3093 21.6 49.5707 21.584 49.816 21.552C50.0613 21.5093 50.2907 21.456 50.504 21.392V19.888H48.456V18.032H53.016V23.216C52.6213 23.4613 52.0933 23.68 51.432 23.872C50.7813 24.064 49.9813 24.16 49.032 24.16ZM58.9419 24.16C57.9819 24.16 57.1339 24.0053 56.3979 23.696C55.6725 23.376 55.1019 22.912 54.6859 22.304C54.2699 21.6853 54.0619 20.928 54.0619 20.032V13.696H57.0699V19.712C57.0699 20.9707 57.6939 21.6 58.9419 21.6C59.5392 21.6 59.9979 21.4453 60.3179 21.136C60.6379 20.8267 60.7979 20.352 60.7979 19.712V13.696H63.8059V20.032C63.8059 20.928 63.5979 21.6853 63.1819 22.304C62.7765 22.912 62.2059 23.376 61.4699 23.696C60.7445 24.0053 59.9019 24.16 58.9419 24.16ZM65.1731 24V13.696H72.9811V16H68.1811V17.68H72.3891V20.016H68.1811V21.696H72.9811V24H65.1731ZM77.3148 24.16C76.6214 24.16 75.9654 24.1067 75.3468 24C74.7281 23.8827 74.2001 23.7227 73.7628 23.52V21.04C74.2428 21.264 74.7761 21.4453 75.3628 21.584C75.9494 21.7227 76.4988 21.792 77.0108 21.792C77.5441 21.792 77.9441 21.7493 78.2108 21.664C78.4881 21.568 78.6268 21.36 78.6268 21.04C78.6268 20.816 78.5468 20.64 78.3868 20.512C78.2374 20.384 77.9974 20.2667 77.6668 20.16C77.3468 20.0533 76.9254 19.92 76.4028 19.76C75.7094 19.536 75.1601 19.2907 74.7548 19.024C74.3494 18.7573 74.0561 18.432 73.8748 18.048C73.7041 17.664 73.6188 17.1947 73.6188 16.64C73.6188 15.6267 73.9761 14.8587 74.6908 14.336C75.4161 13.8027 76.4881 13.536 77.9068 13.536C78.4721 13.536 79.0534 13.584 79.6508 13.68C80.2588 13.776 80.7494 13.8827 81.1228 14V16.496C80.6214 16.2933 80.1414 16.1493 79.6828 16.064C79.2241 15.9787 78.7921 15.936 78.3868 15.936C77.9174 15.936 77.5174 15.9733 77.1868 16.048C76.8561 16.1227 76.6908 16.3147 76.6908 16.624C76.6908 16.8907 76.8294 17.088 77.1068 17.216C77.3948 17.3333 77.9014 17.488 78.6268 17.68C79.4694 17.904 80.1094 18.176 80.5468 18.496C80.9948 18.816 81.2988 19.1893 81.4588 19.616C81.6188 20.032 81.6988 20.5067 81.6988 21.04C81.6988 21.9787 81.3361 22.736 80.6108 23.312C79.8854 23.8773 78.7868 24.16 77.3148 24.16ZM86.0335 24.16C85.3402 24.16 84.6842 24.1067 84.0655 24C83.4468 23.8827 82.9188 23.7227 82.4815 23.52V21.04C82.9615 21.264 83.4948 21.4453 84.0815 21.584C84.6682 21.7227 85.2175 21.792 85.7295 21.792C86.2628 21.792 86.6628 21.7493 86.9295 21.664C87.2068 21.568 87.3455 21.36 87.3455 21.04C87.3455 20.816 87.2655 20.64 87.1055 20.512C86.9562 20.384 86.7162 20.2667 86.3855 20.16C86.0655 20.0533 85.6442 19.92 85.1215 19.76C84.4282 19.536 83.8788 19.2907 83.4735 19.024C83.0682 18.7573 82.7748 18.432 82.5935 18.048C82.4228 17.664 82.3375 17.1947 82.3375 16.64C82.3375 15.6267 82.6948 14.8587 83.4095 14.336C84.1348 13.8027 85.2068 13.536 86.6255 13.536C87.1908 13.536 87.7722 13.584 88.3695 13.68C88.9775 13.776 89.4682 13.8827 89.8415 14V16.496C89.3402 16.2933 88.8602 16.1493 88.4015 16.064C87.9428 15.9787 87.5108 15.936 87.1055 15.936C86.6362 15.936 86.2362 15.9733 85.9055 16.048C85.5748 16.1227 85.4095 16.3147 85.4095 16.624C85.4095 16.8907 85.5482 17.088 85.8255 17.216C86.1135 17.3333 86.6202 17.488 87.3455 17.68C88.1882 17.904 88.8282 18.176 89.2655 18.496C89.7135 18.816 90.0175 19.1893 90.1775 19.616C90.3375 20.032 90.4175 20.5067 90.4175 21.04C90.4175 21.9787 90.0548 22.736 89.3295 23.312C88.6042 23.8773 87.5055 24.16 86.0335 24.16ZM91.5325 24V13.696H99.3405V16H94.5405V17.68H98.7485V20.016H94.5405V21.696H99.3405V24H91.5325ZM100.298 24V13.696H105.658C106.501 13.696 107.189 13.8507 107.722 14.16C108.266 14.4693 108.671 14.9013 108.938 15.456C109.205 16 109.338 16.6347 109.338 17.36C109.338 18.0533 109.162 18.6667 108.81 19.2C108.469 19.7227 108.01 20.1227 107.434 20.4C107.551 20.496 107.653 20.6133 107.738 20.752C107.823 20.88 107.919 21.0613 108.026 21.296L109.21 24H106.074L104.986 21.52C104.901 21.328 104.794 21.1947 104.666 21.12C104.549 21.0347 104.378 20.992 104.154 20.992H103.306V24H100.298ZM103.306 18.688H104.89C105.327 18.688 105.663 18.576 105.898 18.352C106.143 18.1173 106.266 17.7867 106.266 17.36C106.266 16.4533 105.839 16 104.986 16H103.306V18.688ZM113.83 24.16C113.137 24.16 112.481 24.1067 111.862 24C111.244 23.8827 110.716 23.7227 110.278 23.52V21.04C110.758 21.264 111.292 21.4453 111.878 21.584C112.465 21.7227 113.014 21.792 113.526 21.792C114.06 21.792 114.46 21.7493 114.726 21.664C115.004 21.568 115.142 21.36 115.142 21.04C115.142 20.816 115.062 20.64 114.902 20.512C114.753 20.384 114.513 20.2667 114.182 20.16C113.862 20.0533 113.441 19.92 112.918 19.76C112.225 19.536 111.676 19.2907 111.27 19.024C110.865 18.7573 110.572 18.432 110.39 18.048C110.22 17.664 110.134 17.1947 110.134 16.64C110.134 15.6267 110.492 14.8587 111.206 14.336C111.932 13.8027 113.004 13.536 114.422 13.536C114.988 13.536 115.569 13.584 116.166 13.68C116.774 13.776 117.265 13.8827 117.638 14V16.496C117.137 16.2933 116.657 16.1493 116.198 16.064C115.74 15.9787 115.308 15.936 114.902 15.936C114.433 15.936 114.033 15.9733 113.702 16.048C113.372 16.1227 113.206 16.3147 113.206 16.624C113.206 16.8907 113.345 17.088 113.622 17.216C113.91 17.3333 114.417 17.488 115.142 17.68C115.985 17.904 116.625 18.176 117.062 18.496C117.51 18.816 117.814 19.1893 117.974 19.616C118.134 20.032 118.214 20.5067 118.214 21.04C118.214 21.9787 117.852 22.736 117.126 23.312C116.401 23.8773 115.302 24.16 113.83 24.16ZM119.009 24V21.84H121.377V24H119.009ZM122.501 24V13.696H125.509V24H122.501ZM131.898 24.16C130.192 24.16 128.885 23.744 127.978 22.912C127.082 22.08 126.634 20.736 126.634 18.88C126.634 17.6 126.837 16.5707 127.242 15.792C127.648 15.0027 128.24 14.432 129.018 14.08C129.808 13.7173 130.768 13.536 131.898 13.536C133.029 13.536 133.984 13.7173 134.762 14.08C135.552 14.432 136.149 15.0027 136.554 15.792C136.96 16.5707 137.162 17.6 137.162 18.88C137.162 20.736 136.709 22.08 135.802 22.912C134.896 23.744 133.594 24.16 131.898 24.16ZM131.898 21.6C132.666 21.6 133.221 21.3867 133.562 20.96C133.914 20.5227 134.09 19.8293 134.09 18.88C134.09 17.8667 133.914 17.152 133.562 16.736C133.221 16.3093 132.666 16.096 131.898 16.096C131.13 16.096 130.57 16.3093 130.218 16.736C129.877 17.152 129.706 17.8667 129.706 18.88C129.706 19.8293 129.877 20.5227 130.218 20.96C130.57 21.3867 131.13 21.6 131.898 21.6Z" fill="#6C63FF"/>
</svg>
