<svg width="26" height="26" viewBox="0 0 26 26" fill="none" xmlns="http://www.w3.org/2000/svg">
<g clip-path="url(#clip0_1617_1382)">
<g clip-path="url(#clip1_1617_1382)">
<path d="M0 12.5159C0 5.60353 5.60353 0 12.5159 0C19.4283 0 25.0318 5.60353 25.0317 12.5159C25.0317 19.4283 19.4281 25.0318 12.5159 25.0317C5.60353 25.0317 0 19.4281 0 12.5159ZM12.5159 24.0953C18.911 24.0953 24.0953 18.911 24.0953 12.5159C24.0953 6.12078 18.911 0.936508 12.5159 0.936372C6.12078 0.936372 0.936508 6.12064 0.936372 12.5159C0.936372 18.911 6.12064 24.0953 12.5159 24.0953Z" fill="#E8C547"/>
<g clip-path="url(#clip2_1617_1382)">
<g clip-path="url(#clip3_1617_1382)">
<path d="M12.5159 5.50403C8.64331 5.50403 5.50403 8.64331 5.50403 12.5159C5.50403 16.3884 8.64331 19.5278 12.5159 19.5278C16.3885 19.5278 19.5278 16.3884 19.5278 12.5159C19.5278 8.64331 16.3885 5.50403 12.5159 5.50403ZM13.2609 15.7391C13.2609 16.3069 12.8234 16.7442 12.232 16.7442C11.6405 16.7442 11.203 16.3069 11.203 15.7391V15.7154C11.203 15.1476 11.6405 14.7099 12.232 14.7099C12.8234 14.7099 13.2609 15.1476 13.2609 15.7154V15.7391ZM15.331 10.7594C15.331 12.2615 14.2901 12.8768 13.0011 13.137L12.9656 13.5662C12.918 13.8735 12.6696 14.1456 12.3267 14.1456H11.9304C11.5873 14.1456 11.3389 13.8856 11.2918 13.5662V12.5455C11.2326 12.1551 11.6405 11.8829 12.0194 11.8356C13.0482 11.7057 13.5213 11.3863 13.5213 10.8068V10.7831C13.5213 10.2509 13.1192 9.94329 12.433 9.94329C11.9245 9.94329 11.4869 10.0972 11.0612 10.4164C10.9191 10.5229 10.7299 10.6058 10.5288 10.6058C10.0794 10.6058 9.70077 10.227 9.70077 9.77792C9.70077 9.55293 9.79545 9.31645 10.0085 9.13901C10.6354 8.61876 11.4277 8.28732 12.4685 8.28732C14.1719 8.28732 15.331 9.16257 15.331 10.7357V10.7594Z" fill="#E8C547"/>
</g>
</g>
</g>
</g>
<defs>
<clipPath id="clip0_1617_1382">
<rect width="25.0317" height="25.0317" fill="white"/>
</clipPath>
<clipPath id="clip1_1617_1382">
<rect width="25.0317" height="25.0317" fill="white"/>
</clipPath>
<clipPath id="clip2_1617_1382">
<rect width="14.0238" height="14.0237" fill="white" transform="translate(5.50403 5.50403)"/>
</clipPath>
<clipPath id="clip3_1617_1382">
<rect width="14.0238" height="14.0237" fill="white" transform="translate(5.50403 5.50403)"/>
</clipPath>
</defs>
</svg>
