<svg width="140" height="36" viewBox="0 0 140 36" fill="none" xmlns="http://www.w3.org/2000/svg">
<rect width="140" height="36" rx="4" fill="#007BFF"/>
<path d="M0 4C0 1.79086 1.79086 0 4 0H36V36H4C1.79086 36 0 34.2091 0 32V4Z" fill="#007BFF"/>
<path d="M22.7319 21.9796C21.4346 23.2769 20.1298 23.9482 18.8174 23.9934C17.4975 24.0312 16.2454 23.4579 15.0612 22.2738C13.8394 21.0519 13.2473 19.7583 13.285 18.3932C13.3227 17.028 14.0166 15.6703 15.3667 14.3202C15.8193 13.8677 16.253 13.4868 16.6678 13.1775C17.0902 12.8607 17.5163 12.593 17.9462 12.3743L19.7677 14.1958C19.3077 14.3994 18.8777 14.6559 18.478 14.9651C18.0782 15.2743 17.6936 15.6138 17.324 15.9833C16.6225 16.6848 16.253 17.3711 16.2152 18.0424C16.1851 18.7062 16.5245 19.3925 17.2335 20.1015C17.8972 20.7653 18.527 21.0934 19.1229 21.0858C19.7263 21.0707 20.3259 20.7653 20.9217 20.1694C21.1178 19.9733 21.2913 19.7772 21.4422 19.5811C21.5855 19.3774 21.7099 19.1776 21.8155 18.9815L20.752 17.918L19.3039 19.3661L17.9915 18.0537L21.2159 14.8293L24.8815 18.495C24.7759 18.9475 24.5572 19.4755 24.2253 20.0789C23.901 20.6748 23.4032 21.3083 22.7319 21.9796Z" fill="#F5F5F5"/>
<path d="M36 0H136C138.209 0 140 1.79086 140 4V32C140 34.2091 138.209 36 136 36H36V0Z" fill="#007BFF"/>
<path d="M50.048 24.816C49.6747 24.816 49.2693 24.8 48.832 24.768C48.3947 24.7467 47.9787 24.704 47.584 24.64C47.2 24.576 46.88 24.5013 46.624 24.416V22.496C46.912 22.592 47.2427 22.672 47.616 22.736C48 22.8 48.3893 22.848 48.784 22.88C49.1787 22.912 49.5413 22.928 49.872 22.928C50.4373 22.928 50.88 22.896 51.2 22.832C51.5307 22.7787 51.696 22.6773 51.696 22.528C51.696 22.4 51.6427 22.3147 51.536 22.272C51.4293 22.24 51.2267 22.224 50.928 22.224H48.928C48.1493 22.224 47.5467 22.1013 47.12 21.856C46.704 21.6 46.496 21.2213 46.496 20.72C46.496 20.016 46.8853 19.5253 47.664 19.248C47.2267 19.024 46.9067 18.7413 46.704 18.4C46.5013 18.0587 46.4 17.6267 46.4 17.104C46.4 16.1227 46.7307 15.4027 47.392 14.944C48.064 14.4853 49.0293 14.256 50.288 14.256C50.5547 14.256 50.8533 14.2773 51.184 14.32C51.5147 14.352 51.7547 14.384 51.904 14.416H54.88L54.816 16.24H53.808C54 16.4853 54.096 16.784 54.096 17.136C54.096 17.9147 53.8667 18.5333 53.408 18.992C52.96 19.44 52.2507 19.664 51.28 19.664C51.1413 19.664 50.992 19.6587 50.832 19.648C50.672 19.6267 50.5227 19.6107 50.384 19.6C50.1493 19.6213 49.9467 19.664 49.776 19.728C49.6053 19.792 49.52 19.8987 49.52 20.048C49.52 20.1547 49.568 20.2293 49.664 20.272C49.76 20.304 49.8933 20.32 50.064 20.32H51.808C52.5867 20.32 53.2 20.5013 53.648 20.864C54.096 21.2267 54.32 21.76 54.32 22.464C54.32 23.2107 53.9733 23.7867 53.28 24.192C52.5867 24.608 51.5093 24.816 50.048 24.816ZM50.304 18.016C50.7733 18.016 51.0987 17.936 51.28 17.776C51.4613 17.616 51.552 17.3493 51.552 16.976C51.552 16.6027 51.4613 16.3307 51.28 16.16C51.0987 15.9893 50.7733 15.904 50.304 15.904C49.8667 15.904 49.5467 15.9893 49.344 16.16C49.152 16.32 49.056 16.592 49.056 16.976C49.056 17.3387 49.1467 17.6053 49.328 17.776C49.52 17.936 49.8453 18.016 50.304 18.016ZM58.5814 22.16C57.696 22.16 57.0027 21.9093 56.5014 21.408C56 20.9067 55.7494 20.1707 55.7494 19.2V14.416H58.7574V18.96C58.7574 19.6213 59.0934 19.952 59.7654 19.952C60.0107 19.952 60.2507 19.8987 60.4854 19.792C60.72 19.6853 60.9067 19.552 61.0454 19.392V14.416H64.0534V22H61.2374L61.1574 21.424C60.8587 21.6373 60.4907 21.8133 60.0534 21.952C59.6267 22.0907 59.136 22.16 58.5814 22.16ZM69.6616 22.16C68.7763 22.16 67.9923 22.016 67.3096 21.728C66.6376 21.4293 66.1096 20.9867 65.7256 20.4C65.3523 19.8133 65.1656 19.088 65.1656 18.224C65.1656 17.0187 65.507 16.0587 66.1896 15.344C66.8723 14.6187 67.891 14.256 69.2456 14.256C70.483 14.256 71.4483 14.5707 72.1416 15.2C72.8456 15.8293 73.1976 16.688 73.1976 17.776V19.104H67.9336C68.0723 19.5093 68.3443 19.7973 68.7496 19.968C69.155 20.1387 69.7043 20.224 70.3976 20.224C70.835 20.224 71.2723 20.1867 71.7096 20.112C72.1576 20.0267 72.515 19.9307 72.7816 19.824V21.632C72.035 21.984 70.995 22.16 69.6616 22.16ZM67.9336 17.472H70.6056V17.2C70.6056 16.9013 70.5096 16.656 70.3176 16.464C70.1363 16.272 69.811 16.176 69.3416 16.176C68.819 16.176 68.451 16.288 68.2376 16.512C68.035 16.7253 67.9336 17.0453 67.9336 17.472ZM77.1956 22.16C76.545 22.16 75.9316 22.112 75.3556 22.016C74.7903 21.9307 74.3423 21.8187 74.0116 21.68V19.52C74.385 19.6907 74.8276 19.824 75.3396 19.92C75.8623 20.016 76.305 20.064 76.6676 20.064C77.0516 20.064 77.3396 20.0533 77.5316 20.032C77.7343 20.0107 77.8356 19.92 77.8356 19.76C77.8356 19.5787 77.6596 19.44 77.3076 19.344C76.9556 19.248 76.513 19.1093 75.9796 18.928C75.2863 18.6827 74.769 18.3947 74.4276 18.064C74.0863 17.7333 73.9156 17.2533 73.9156 16.624C73.9156 15.8667 74.2143 15.2853 74.8116 14.88C75.409 14.464 76.3476 14.256 77.6276 14.256C78.1183 14.256 78.625 14.2933 79.1476 14.368C79.6703 14.4427 80.081 14.528 80.3796 14.624V16.736C80.0596 16.5973 79.7076 16.496 79.3236 16.432C78.9503 16.368 78.609 16.336 78.2996 16.336C77.9583 16.336 77.6543 16.352 77.3876 16.384C77.121 16.416 76.9876 16.5067 76.9876 16.656C76.9876 16.8267 77.137 16.9493 77.4356 17.024C77.745 17.0987 78.1556 17.216 78.6676 17.376C79.2436 17.5467 79.6916 17.7333 80.0116 17.936C80.3423 18.1387 80.5716 18.384 80.6996 18.672C80.8383 18.96 80.9076 19.3173 80.9076 19.744C80.9076 20.512 80.593 21.1093 79.9636 21.536C79.345 21.952 78.4223 22.16 77.1956 22.16ZM84.5863 22.16C83.9356 22.16 83.3223 22.112 82.7463 22.016C82.1809 21.9307 81.7329 21.8187 81.4023 21.68V19.52C81.7756 19.6907 82.2183 19.824 82.7303 19.92C83.2529 20.016 83.6956 20.064 84.0583 20.064C84.4423 20.064 84.7303 20.0533 84.9223 20.032C85.1249 20.0107 85.2263 19.92 85.2263 19.76C85.2263 19.5787 85.0503 19.44 84.6983 19.344C84.3463 19.248 83.9036 19.1093 83.3703 18.928C82.6769 18.6827 82.1596 18.3947 81.8183 18.064C81.4769 17.7333 81.3063 17.2533 81.3063 16.624C81.3063 15.8667 81.6049 15.2853 82.2023 14.88C82.7996 14.464 83.7383 14.256 85.0182 14.256C85.5089 14.256 86.0156 14.2933 86.5383 14.368C87.0609 14.4427 87.4716 14.528 87.7703 14.624V16.736C87.4503 16.5973 87.0983 16.496 86.7143 16.432C86.3409 16.368 85.9996 16.336 85.6903 16.336C85.3489 16.336 85.0449 16.352 84.7783 16.384C84.5116 16.416 84.3783 16.5067 84.3783 16.656C84.3783 16.8267 84.5276 16.9493 84.8263 17.024C85.1356 17.0987 85.5463 17.216 86.0583 17.376C86.6343 17.5467 87.0823 17.7333 87.4023 17.936C87.7329 18.1387 87.9623 18.384 88.0903 18.672C88.2289 18.96 88.2983 19.3173 88.2983 19.744C88.2983 20.512 87.9836 21.1093 87.3543 21.536C86.7356 21.952 85.8129 22.16 84.5863 22.16ZM93.3648 22.16C92.4794 22.16 91.6954 22.016 91.0128 21.728C90.3408 21.4293 89.8128 20.9867 89.4288 20.4C89.0554 19.8133 88.8688 19.088 88.8688 18.224C88.8688 17.0187 89.2101 16.0587 89.8928 15.344C90.5754 14.6187 91.5941 14.256 92.9488 14.256C94.1861 14.256 95.1514 14.5707 95.8448 15.2C96.5488 15.8293 96.9008 16.688 96.9008 17.776V19.104H91.6368C91.7754 19.5093 92.0474 19.7973 92.4528 19.968C92.8581 20.1387 93.4074 20.224 94.1008 20.224C94.5381 20.224 94.9754 20.1867 95.4128 20.112C95.8608 20.0267 96.2181 19.9307 96.4848 19.824V21.632C95.7381 21.984 94.6981 22.16 93.3648 22.16ZM91.6368 17.472H94.3088V17.2C94.3088 16.9013 94.2128 16.656 94.0208 16.464C93.8394 16.272 93.5141 16.176 93.0448 16.176C92.5221 16.176 92.1541 16.288 91.9408 16.512C91.7381 16.7253 91.6368 17.0453 91.6368 17.472ZM98.0169 22V14.416H100.913L100.993 15.024C101.302 14.8427 101.697 14.6773 102.177 14.528C102.657 14.3787 103.142 14.288 103.633 14.256V16.496C103.356 16.5173 103.052 16.5547 102.721 16.608C102.401 16.6613 102.086 16.7307 101.777 16.816C101.478 16.8907 101.228 16.976 101.025 17.072V22H98.0169ZM107.368 22.16C106.717 22.16 106.104 22.112 105.528 22.016C104.962 21.9307 104.514 21.8187 104.184 21.68V19.52C104.557 19.6907 105 19.824 105.512 19.92C106.034 20.016 106.477 20.064 106.84 20.064C107.224 20.064 107.512 20.0533 107.704 20.032C107.906 20.0107 108.008 19.92 108.008 19.76C108.008 19.5787 107.832 19.44 107.48 19.344C107.128 19.248 106.685 19.1093 106.152 18.928C105.458 18.6827 104.941 18.3947 104.6 18.064C104.258 17.7333 104.088 17.2533 104.088 16.624C104.088 15.8667 104.386 15.2853 104.984 14.88C105.581 14.464 106.52 14.256 107.799 14.256C108.29 14.256 108.797 14.2933 109.32 14.368C109.842 14.4427 110.253 14.528 110.552 14.624V16.736C110.232 16.5973 109.88 16.496 109.496 16.432C109.122 16.368 108.781 16.336 108.472 16.336C108.13 16.336 107.826 16.352 107.56 16.384C107.293 16.416 107.16 16.5067 107.16 16.656C107.16 16.8267 107.309 16.9493 107.608 17.024C107.917 17.0987 108.328 17.216 108.84 17.376C109.416 17.5467 109.864 17.7333 110.184 17.936C110.514 18.1387 110.744 18.384 110.872 18.672C111.01 18.96 111.08 19.3173 111.08 19.744C111.08 20.512 110.765 21.1093 110.136 21.536C109.517 21.952 108.594 22.16 107.368 22.16ZM111.884 22V19.84H114.252V22H111.884ZM115.904 13.408V11.232H119.152V13.408H115.904ZM116.144 22V16.608H115.04L115.296 14.416H119.152V22H116.144ZM124.707 22.16C123.192 22.16 122.072 21.824 121.347 21.152C120.632 20.48 120.275 19.4987 120.275 18.208C120.275 16.928 120.638 15.952 121.363 15.28C122.088 14.5973 123.203 14.256 124.707 14.256C126.222 14.256 127.342 14.5973 128.067 15.28C128.803 15.952 129.171 16.928 129.171 18.208C129.171 19.4987 128.808 20.48 128.083 21.152C127.358 21.824 126.232 22.16 124.707 22.16ZM124.707 19.968C125.198 19.968 125.55 19.8293 125.763 19.552C125.987 19.2747 126.099 18.8267 126.099 18.208C126.099 17.6 125.987 17.1573 125.763 16.88C125.55 16.592 125.198 16.448 124.707 16.448C124.227 16.448 123.88 16.592 123.667 16.88C123.454 17.1573 123.347 17.6 123.347 18.208C123.347 18.8267 123.454 19.2747 123.667 19.552C123.88 19.8293 124.227 19.968 124.707 19.968Z" fill="#F5F5F5"/>
</svg>
