<svg width="68" height="68" viewBox="0 0 68 68" fill="none" xmlns="http://www.w3.org/2000/svg">
<path d="M0 0H68V48C68 59.0457 59.0457 68 48 68H0V0Z" fill="#7D53DE"/>
<path d="M28.8571 17.7143H32.2857V21.1429H28.8571V17.7143ZM25.4286 17.7143H28.8571V21.1429H25.4286V17.7143ZM25.4286 21.1429H28.8571V24.5714H25.4286V21.1429ZM28.8571 21.1429H32.2857V24.5714H28.8571V21.1429ZM32.2857 21.1429H35.7143V24.5714H32.2857V21.1429ZM32.2857 17.7143H35.7143V21.1429H32.2857V17.7143ZM35.7143 17.7143H39.1429V21.1429H35.7143V17.7143ZM39.1429 17.7143H42.5714V21.1429H39.1429V17.7143ZM39.1429 21.1429H42.5714V24.5714H39.1429V21.1429ZM35.7143 21.1429H39.1429V24.5714H35.7143V21.1429ZM39.1429 24.5714H42.5714V28H39.1429V24.5714ZM42.5714 21.1429H46V24.5714H42.5714V21.1429ZM42.5714 24.5714H46V28H42.5714V24.5714ZM42.5714 41.7143H46V45.1429H42.5714V41.7143ZM42.5714 45.1429H46V48.5714H42.5714V45.1429ZM39.1429 45.1429H42.5714V48.5714H39.1429V45.1429ZM39.1429 41.7143H42.5714V45.1429H39.1429V41.7143ZM35.7143 45.1429H39.1429V48.5714H35.7143V45.1429ZM39.1429 48.5714H42.5714V52H39.1429V48.5714ZM35.7143 48.5714H39.1429V52H35.7143V48.5714ZM32.2857 48.5714H35.7143V52H32.2857V48.5714ZM32.2857 45.1429H35.7143V48.5714H32.2857V45.1429ZM28.8571 48.5714H32.2857V52H28.8571V48.5714ZM25.4286 48.5714H28.8571V52H25.4286V48.5714ZM25.4286 45.1429H28.8571V48.5714H25.4286V45.1429ZM28.8571 45.1429H32.2857V48.5714H28.8571V45.1429ZM28.8571 41.7143H32.2857V45.1429H28.8571V41.7143ZM25.4286 41.7143H28.8571V45.1429H25.4286V41.7143ZM22 45.1429H25.4286V48.5714H22V45.1429ZM22 41.7143H25.4286V45.1429H22V41.7143ZM22 38.2857H25.4286V41.7143H22V38.2857ZM22 34.8571H25.4286V38.2857H22V34.8571ZM22 31.4286H25.4286V34.8571H22V31.4286ZM22 28H25.4286V31.4286H22V28ZM22 24.5714H25.4286V28H22V24.5714ZM25.4286 24.5714H28.8571V28H25.4286V24.5714ZM22 21.1429H25.4286V24.5714H22V21.1429ZM28.8571 24.5714H32.2857V28H28.8571V24.5714ZM25.4286 28H28.8571V31.4286H25.4286V28ZM25.4286 31.4286H28.8571V34.8571H25.4286V31.4286ZM25.4286 34.8571H28.8571V38.2857H25.4286V34.8571ZM25.4286 38.2857H28.8571V41.7143H25.4286V38.2857ZM42.5714 38.2857H46V41.7143H42.5714V38.2857ZM39.1429 38.2857H42.5714V41.7143H39.1429V38.2857ZM39.1429 34.8571H42.5714V38.2857H39.1429V34.8571ZM42.5714 34.8571H46V38.2857H42.5714V34.8571ZM42.5714 31.4286H46V34.8571H42.5714V31.4286ZM39.1429 31.4286H42.5714V34.8571H39.1429V31.4286ZM35.7143 31.4286H39.1429V34.8571H35.7143V31.4286ZM32.2857 31.4286H35.7143V34.8571H32.2857V31.4286ZM32.2857 34.8571H35.7143V38.2857H32.2857V34.8571ZM35.7143 34.8571H39.1429V38.2857H35.7143V34.8571Z" fill="#EEF8FF"/>
</svg>
