<svg width="33" height="33" viewBox="0 0 33 33" fill="none" xmlns="http://www.w3.org/2000/svg">
<path d="M7.88889 16.5H25.1111M9.61111 10.4722C9.61111 10.4722 11.3333 11.3333 13.0556 11.3333C15.6389 11.3333 17.3611 9.61111 19.9444 9.61111C21.6667 9.61111 23.3889 10.4722 23.3889 10.4722M9.61111 22.5278C9.61111 22.5278 11.3333 23.3889 13.0556 23.3889C15.6389 23.3889 17.3611 21.6667 19.9444 21.6667C21.6667 21.6667 23.3889 22.5278 23.3889 22.5278M32 16.5C32 25.0605 25.0605 32 16.5 32C7.93959 32 1 25.0605 1 16.5C1 7.93959 7.93959 1 16.5 1C25.0605 1 32 7.93959 32 16.5Z" stroke="white" stroke-width="2" stroke-linecap="round" stroke-linejoin="round"/>
</svg>
