<svg width="51" height="51" viewBox="0 0 51 51" fill="none" xmlns="http://www.w3.org/2000/svg">
<rect width="51" height="51" rx="6" fill="#505050"/>
<path d="M16.8889 25.5H34.1111M18.6111 19.4722C18.6111 19.4722 20.3333 20.3333 22.0556 20.3333C24.6389 20.3333 26.3611 18.6111 28.9444 18.6111C30.6667 18.6111 32.3889 19.4722 32.3889 19.4722M18.6111 31.5278C18.6111 31.5278 20.3333 32.3889 22.0556 32.3889C24.6389 32.3889 26.3611 30.6667 28.9444 30.6667C30.6667 30.6667 32.3889 31.5278 32.3889 31.5278M41 25.5C41 34.0605 34.0605 41 25.5 41C16.9396 41 10 34.0605 10 25.5C10 16.9396 16.9396 10 25.5 10C34.0605 10 41 16.9396 41 25.5Z" stroke="#EBE3D6" stroke-width="2" stroke-linecap="round" stroke-linejoin="round"/>
</svg>
