<svg width="163" height="59" viewBox="0 0 163 59" fill="none" xmlns="http://www.w3.org/2000/svg">
<path d="M13.8571 19.7143H15.7857V21.6429H13.8571V19.7143ZM11.9286 19.7143H13.8571V21.6429H11.9286V19.7143ZM11.9286 21.6429H13.8571V23.5714H11.9286V21.6429ZM13.8571 21.6429H15.7857V23.5714H13.8571V21.6429ZM15.7857 21.6429H17.7143V23.5714H15.7857V21.6429ZM15.7857 19.7143H17.7143V21.6429H15.7857V19.7143ZM17.7143 19.7143H19.6429V21.6429H17.7143V19.7143ZM19.6429 19.7143H21.5714V21.6429H19.6429V19.7143ZM19.6429 21.6429H21.5714V23.5714H19.6429V21.6429ZM17.7143 21.6429H19.6429V23.5714H17.7143V21.6429ZM19.6429 23.5714H21.5714V25.5H19.6429V23.5714ZM21.5714 21.6429H23.5V23.5714H21.5714V21.6429ZM21.5714 23.5714H23.5V25.5H21.5714V23.5714ZM21.5714 33.2143H23.5V35.1429H21.5714V33.2143ZM21.5714 35.1429H23.5V37.0714H21.5714V35.1429ZM19.6429 35.1429H21.5714V37.0714H19.6429V35.1429ZM19.6429 33.2143H21.5714V35.1429H19.6429V33.2143ZM17.7143 35.1429H19.6429V37.0714H17.7143V35.1429ZM19.6429 37.0714H21.5714V39H19.6429V37.0714ZM17.7143 37.0714H19.6429V39H17.7143V37.0714ZM15.7857 37.0714H17.7143V39H15.7857V37.0714ZM15.7857 35.1429H17.7143V37.0714H15.7857V35.1429ZM13.8571 37.0714H15.7857V39H13.8571V37.0714ZM11.9286 37.0714H13.8571V39H11.9286V37.0714ZM11.9286 35.1429H13.8571V37.0714H11.9286V35.1429ZM13.8571 35.1429H15.7857V37.0714H13.8571V35.1429ZM13.8571 33.2143H15.7857V35.1429H13.8571V33.2143ZM11.9286 33.2143H13.8571V35.1429H11.9286V33.2143ZM10 35.1429H11.9286V37.0714H10V35.1429ZM10 33.2143H11.9286V35.1429H10V33.2143ZM10 31.2857H11.9286V33.2143H10V31.2857ZM10 29.3571H11.9286V31.2857H10V29.3571ZM10 27.4286H11.9286V29.3571H10V27.4286ZM10 25.5H11.9286V27.4286H10V25.5ZM10 23.5714H11.9286V25.5H10V23.5714ZM11.9286 23.5714H13.8571V25.5H11.9286V23.5714ZM10 21.6429H11.9286V23.5714H10V21.6429ZM13.8571 23.5714H15.7857V25.5H13.8571V23.5714ZM11.9286 25.5H13.8571V27.4286H11.9286V25.5ZM11.9286 27.4286H13.8571V29.3571H11.9286V27.4286ZM11.9286 29.3571H13.8571V31.2857H11.9286V29.3571ZM11.9286 31.2857H13.8571V33.2143H11.9286V31.2857ZM21.5714 31.2857H23.5V33.2143H21.5714V31.2857ZM19.6429 31.2857H21.5714V33.2143H19.6429V31.2857ZM19.6429 29.3571H21.5714V31.2857H19.6429V29.3571ZM21.5714 29.3571H23.5V31.2857H21.5714V29.3571ZM21.5714 27.4286H23.5V29.3571H21.5714V27.4286ZM19.6429 27.4286H21.5714V29.3571H19.6429V27.4286ZM17.7143 27.4286H19.6429V29.3571H17.7143V27.4286ZM15.7857 27.4286H17.7143V29.3571H15.7857V27.4286ZM15.7857 29.3571H17.7143V31.2857H15.7857V29.3571ZM17.7143 29.3571H19.6429V31.2857H17.7143V29.3571ZM38.9336 37.0714H37.005V35.1429H38.9336V37.0714ZM38.9336 39H37.005V37.0714H38.9336V39ZM37.005 39H35.0765V37.0714H37.005V39ZM37.005 37.0714H35.0765V35.1429H37.005V37.0714ZM37.005 35.1429H35.0765V33.2143H37.005V35.1429ZM37.005 33.2143H35.0765V31.2857H37.005V33.2143ZM37.005 31.2857H35.0765V29.3571H37.005V31.2857ZM38.9336 31.2857H37.005V29.3571H38.9336V31.2857ZM38.9336 33.2143H37.005V31.2857H38.9336V33.2143ZM38.9336 35.1429H37.005V33.2143H38.9336V35.1429ZM38.9336 29.3571H37.005V27.4286H38.9336V29.3571ZM37.005 29.3571H35.0765V27.4286H37.005V29.3571ZM37.005 27.4286H35.0765V25.5H37.005V27.4286ZM37.005 25.5H35.0765V23.5714H37.005V25.5ZM38.9336 25.5H37.005V23.5714H38.9336V25.5ZM38.9336 27.4286H37.005V25.5H38.9336V27.4286ZM29.2907 25.5H27.3622V23.5714H29.2907V25.5ZM27.3622 25.5H25.4336V23.5714H27.3622V25.5ZM27.3622 27.4286H25.4336V25.5H27.3622V27.4286ZM27.3622 29.3571H25.4336V27.4286H27.3622V29.3571ZM27.3622 31.2857H25.4336V29.3571H27.3622V31.2857ZM27.3622 33.2143H25.4336V31.2857H27.3622V33.2143ZM27.3622 35.1429H25.4336V33.2143H27.3622V35.1429ZM27.3622 37.0714H25.4336V35.1429H27.3622V37.0714ZM29.2907 33.2143H27.3622V31.2857H29.2907V33.2143ZM29.2907 31.2857H27.3622V29.3571H29.2907V31.2857ZM29.2907 29.3571H27.3622V27.4286H29.2907V29.3571ZM29.2907 27.4286H27.3622V25.5H29.2907V27.4286ZM29.2907 35.1429H27.3622V33.2143H29.2907V35.1429ZM35.0765 37.0714H33.1479V35.1429H35.0765V37.0714ZM33.1479 37.0714H31.2193V35.1429H33.1479V37.0714ZM31.2193 37.0714H29.2907V35.1429H31.2193V37.0714ZM31.2193 39H29.2907V37.0714H31.2193V39ZM29.2907 39H27.3622V37.0714H29.2907V39ZM29.2907 37.0714H27.3622V35.1429H29.2907V37.0714ZM33.1479 39H31.2193V37.0714H33.1479V39ZM44.7243 23.5714H46.6529V25.5H44.7243V23.5714ZM42.7958 23.5714H44.7243V25.5H42.7958V23.5714ZM42.7958 25.5H44.7243V27.4286H42.7958V25.5ZM44.7243 25.5H46.6529V27.4286H44.7243V25.5ZM46.6529 23.5714H48.5815V25.5H46.6529V23.5714ZM48.5815 23.5714H50.51V25.5H48.5815V23.5714ZM50.51 23.5714H52.4386V25.5H50.51V23.5714ZM50.51 25.5H52.4386V27.4286H50.51V25.5ZM48.5815 25.5H50.51V27.4286H48.5815V25.5ZM52.4386 25.5H54.3672V27.4286H52.4386V25.5ZM52.4386 27.4286H54.3672V29.3571H52.4386V27.4286ZM52.4386 35.1429H54.3672V37.0714H52.4386V35.1429ZM50.51 35.1429H52.4386V37.0714H50.51V35.1429ZM50.51 27.4286H52.4386V29.3571H50.51V27.4286ZM48.5815 35.1429H50.51V37.0714H48.5815V35.1429ZM50.51 37.0714H52.4386V39H50.51V37.0714ZM48.5815 37.0714H50.51V39H48.5815V37.0714ZM46.6529 37.0714H48.5815V39H46.6529V37.0714ZM44.7243 37.0714H46.6529V39H44.7243V37.0714ZM42.7958 37.0714H44.7243V39H42.7958V37.0714ZM42.7958 35.1429H44.7243V37.0714H42.7958V35.1429ZM44.7243 35.1429H46.6529V37.0714H44.7243V35.1429ZM42.7958 33.2143H44.7243V35.1429H42.7958V33.2143ZM40.8672 35.1429H42.7958V37.0714H40.8672V35.1429ZM40.8672 33.2143H42.7958V35.1429H40.8672V33.2143ZM40.8672 31.2857H42.7958V33.2143H40.8672V31.2857ZM40.8672 29.3571H42.7958V31.2857H40.8672V29.3571ZM40.8672 27.4286H42.7958V29.3571H40.8672V27.4286ZM40.8672 25.5H42.7958V27.4286H40.8672V25.5ZM42.7958 27.4286H44.7243V29.3571H42.7958V27.4286ZM42.7958 29.3571H44.7243V31.2857H42.7958V29.3571ZM42.7958 31.2857H44.7243V33.2143H42.7958V31.2857ZM46.6529 35.1429H48.5815V37.0714H46.6529V35.1429ZM46.6529 25.5H48.5815V27.4286H46.6529V25.5ZM50.51 29.3571H52.4386V31.2857H50.51V29.3571ZM52.4386 29.3571H54.3672V31.2857H52.4386V29.3571ZM44.7243 31.2857H46.6529V33.2143H44.7243V31.2857ZM46.6529 31.2857H48.5815V33.2143H46.6529V31.2857ZM48.5815 31.2857H50.51V33.2143H48.5815V31.2857ZM50.51 31.2857H52.4386V33.2143H50.51V31.2857ZM52.4386 31.2857H54.3672V33.2143H52.4386V31.2857ZM48.5815 29.3571H50.51V31.2857H48.5815V29.3571ZM46.6529 29.3571H48.5815V31.2857H46.6529V29.3571ZM44.7243 29.3571H46.6529V31.2857H44.7243V29.3571ZM56.3008 25.5H58.2294V27.4286H56.3008V25.5ZM58.2294 27.4286H60.1579V29.3571H58.2294V27.4286ZM56.3008 27.4286H58.2294V29.3571H56.3008V27.4286ZM56.3008 29.3571H58.2294V31.2857H56.3008V29.3571ZM58.2294 29.3571H60.1579V31.2857H58.2294V29.3571ZM58.2294 31.2857H60.1579V33.2143H58.2294V31.2857ZM60.1579 31.2857H62.0865V33.2143H60.1579V31.2857ZM62.0865 31.2857H64.0151V33.2143H62.0865V31.2857ZM64.0151 29.3571H65.9436V31.2857H64.0151V29.3571ZM62.0865 29.3571H64.0151V31.2857H62.0865V29.3571ZM60.1579 29.3571H62.0865V31.2857H60.1579V29.3571ZM64.0151 31.2857H65.9436V33.2143H64.0151V31.2857ZM65.9436 31.2857H67.8722V33.2143H65.9436V31.2857ZM65.9436 33.2143H67.8722V35.1429H65.9436V33.2143ZM64.0151 33.2143H65.9436V35.1429H64.0151V33.2143ZM64.0151 35.1429H65.9436V37.0714H64.0151V35.1429ZM65.9436 35.1429H67.8722V37.0714H65.9436V35.1429ZM64.0151 37.0714H65.9436V39H64.0151V37.0714ZM62.0865 35.1429H64.0151V37.0714H62.0865V35.1429ZM60.1579 35.1429H62.0865V37.0714H60.1579V35.1429ZM58.2294 35.1429H60.1579V37.0714H58.2294V35.1429ZM56.3008 35.1429H58.2294V37.0714H56.3008V35.1429ZM58.2294 37.0714H60.1579V39H58.2294V37.0714ZM60.1579 37.0714H62.0865V39H60.1579V37.0714ZM62.0865 37.0714H64.0151V39H62.0865V37.0714ZM65.9436 25.5H67.8722V27.4286H65.9436V25.5ZM64.0151 25.5H65.9436V27.4286H64.0151V25.5ZM64.0151 23.5714H65.9436V25.5H64.0151V23.5714ZM62.0865 23.5714H64.0151V25.5H62.0865V23.5714ZM60.1579 23.5714H62.0865V25.5H60.1579V23.5714ZM58.2294 23.5714H60.1579V25.5H58.2294V23.5714ZM58.2294 25.5H60.1579V27.4286H58.2294V25.5ZM60.1579 25.5H62.0865V27.4286H60.1579V25.5ZM62.0865 25.5H64.0151V27.4286H62.0865V25.5ZM69.8008 25.5H71.7294V27.4286H69.8008V25.5ZM71.7294 27.4286H73.6579V29.3571H71.7294V27.4286ZM69.8008 27.4286H71.7294V29.3571H69.8008V27.4286ZM69.8008 29.3571H71.7294V31.2857H69.8008V29.3571ZM71.7294 29.3571H73.6579V31.2857H71.7294V29.3571ZM71.7294 31.2857H73.6579V33.2143H71.7294V31.2857ZM73.6579 31.2857H75.5865V33.2143H73.6579V31.2857ZM75.5865 31.2857H77.5151V33.2143H75.5865V31.2857ZM77.5151 29.3571H79.4436V31.2857H77.5151V29.3571ZM75.5865 29.3571H77.5151V31.2857H75.5865V29.3571ZM73.6579 29.3571H75.5865V31.2857H73.6579V29.3571ZM77.5151 31.2857H79.4436V33.2143H77.5151V31.2857ZM79.4436 31.2857H81.3722V33.2143H79.4436V31.2857ZM79.4436 33.2143H81.3722V35.1429H79.4436V33.2143ZM77.5151 33.2143H79.4436V35.1429H77.5151V33.2143ZM77.5151 35.1429H79.4436V37.0714H77.5151V35.1429ZM79.4436 35.1429H81.3722V37.0714H79.4436V35.1429ZM77.5151 37.0714H79.4436V39H77.5151V37.0714ZM75.5865 35.1429H77.5151V37.0714H75.5865V35.1429ZM73.6579 35.1429H75.5865V37.0714H73.6579V35.1429ZM71.7294 35.1429H73.6579V37.0714H71.7294V35.1429ZM69.8008 35.1429H71.7294V37.0714H69.8008V35.1429ZM71.7294 37.0714H73.6579V39H71.7294V37.0714ZM73.6579 37.0714H75.5865V39H73.6579V37.0714ZM75.5865 37.0714H77.5151V39H75.5865V37.0714ZM79.4436 25.5H81.3722V27.4286H79.4436V25.5ZM77.5151 25.5H79.4436V27.4286H77.5151V25.5ZM77.5151 23.5714H79.4436V25.5H77.5151V23.5714ZM75.5865 23.5714H77.5151V25.5H75.5865V23.5714ZM73.6579 23.5714H75.5865V25.5H73.6579V23.5714ZM71.7294 23.5714H73.6579V25.5H71.7294V23.5714ZM71.7294 25.5H73.6579V27.4286H71.7294V25.5ZM73.6579 25.5H75.5865V27.4286H73.6579V25.5ZM75.5865 25.5H77.5151V27.4286H75.5865V25.5ZM87.1579 23.5714H89.0865V25.5H87.1579V23.5714ZM85.2294 23.5714H87.1579V25.5H85.2294V23.5714ZM85.2294 25.5H87.1579V27.4286H85.2294V25.5ZM87.1579 25.5H89.0865V27.4286H87.1579V25.5ZM89.0865 23.5714H91.0151V25.5H89.0865V23.5714ZM91.0151 23.5714H92.9436V25.5H91.0151V23.5714ZM92.9436 23.5714H94.8722V25.5H92.9436V23.5714ZM92.9436 25.5H94.8722V27.4286H92.9436V25.5ZM91.0151 25.5H92.9436V27.4286H91.0151V25.5ZM94.8722 25.5H96.8008V27.4286H94.8722V25.5ZM94.8722 27.4286H96.8008V29.3571H94.8722V27.4286ZM94.8722 35.1429H96.8008V37.0714H94.8722V35.1429ZM92.9436 35.1429H94.8722V37.0714H92.9436V35.1429ZM92.9436 27.4286H94.8722V29.3571H92.9436V27.4286ZM91.0151 35.1429H92.9436V37.0714H91.0151V35.1429ZM92.9436 37.0714H94.8722V39H92.9436V37.0714ZM91.0151 37.0714H92.9436V39H91.0151V37.0714ZM89.0865 37.0714H91.0151V39H89.0865V37.0714ZM87.1579 37.0714H89.0865V39H87.1579V37.0714ZM85.2294 37.0714H87.1579V39H85.2294V37.0714ZM85.2294 35.1429H87.1579V37.0714H85.2294V35.1429ZM87.1579 35.1429H89.0865V37.0714H87.1579V35.1429ZM85.2294 33.2143H87.1579V35.1429H85.2294V33.2143ZM83.3008 35.1429H85.2294V37.0714H83.3008V35.1429ZM83.3008 33.2143H85.2294V35.1429H83.3008V33.2143ZM83.3008 31.2857H85.2294V33.2143H83.3008V31.2857ZM83.3008 29.3571H85.2294V31.2857H83.3008V29.3571ZM83.3008 27.4286H85.2294V29.3571H83.3008V27.4286ZM83.3008 25.5H85.2294V27.4286H83.3008V25.5ZM85.2294 27.4286H87.1579V29.3571H85.2294V27.4286ZM85.2294 29.3571H87.1579V31.2857H85.2294V29.3571ZM85.2294 31.2857H87.1579V33.2143H85.2294V31.2857ZM89.0865 35.1429H91.0151V37.0714H89.0865V35.1429ZM89.0865 25.5H91.0151V27.4286H89.0865V25.5ZM92.9436 29.3571H94.8722V31.2857H92.9436V29.3571ZM94.8722 29.3571H96.8008V31.2857H94.8722V29.3571ZM87.1579 31.2857H89.0865V33.2143H87.1579V31.2857ZM89.0865 31.2857H91.0151V33.2143H89.0865V31.2857ZM91.0151 31.2857H92.9436V33.2143H91.0151V31.2857ZM92.9436 31.2857H94.8722V33.2143H92.9436V31.2857ZM94.8722 31.2857H96.8008V33.2143H94.8722V31.2857ZM91.0151 29.3571H92.9436V31.2857H91.0151V29.3571ZM89.0865 29.3571H91.0151V31.2857H89.0865V29.3571ZM87.1579 29.3571H89.0865V31.2857H87.1579V29.3571ZM98.7344 25.5H100.663V27.4286H98.7344V25.5ZM98.7344 23.5714H100.663V25.5H98.7344V23.5714ZM100.663 23.5714H102.592V25.5H100.663V23.5714ZM100.663 25.5H102.592V27.4286H100.663V25.5ZM100.663 27.4286H102.592V29.3571H100.663V27.4286ZM100.663 29.3571H102.592V31.2857H100.663V29.3571ZM100.663 31.2857H102.592V33.2143H100.663V31.2857ZM98.7344 31.2857H100.663V33.2143H98.7344V31.2857ZM98.7344 29.3571H100.663V31.2857H98.7344V29.3571ZM98.7344 27.4286H100.663V29.3571H98.7344V27.4286ZM98.7344 33.2143H100.663V35.1429H98.7344V33.2143ZM100.663 33.2143H102.592V35.1429H100.663V33.2143ZM100.663 35.1429H102.592V37.0714H100.663V35.1429ZM100.663 37.0714H102.592V39H100.663V37.0714ZM98.7344 37.0714H100.663V39H98.7344V37.0714ZM98.7344 35.1429H100.663V37.0714H98.7344V35.1429ZM102.592 25.5H104.52V27.4286H102.592V25.5ZM104.52 25.5H106.449V27.4286H104.52V25.5ZM106.449 25.5H108.377V27.4286H106.449V25.5ZM106.449 23.5714H108.377V25.5H106.449V23.5714ZM104.52 23.5714H106.449V25.5H104.52V23.5714ZM102.592 27.4286H104.52V29.3571H102.592V27.4286ZM108.377 25.5H110.306V27.4286H108.377V25.5ZM106.449 27.4286H108.377V29.3571H106.449V27.4286ZM112.234 25.5H114.163V27.4286H112.234V25.5ZM114.163 27.4286H116.092V29.3571H114.163V27.4286ZM112.234 27.4286H114.163V29.3571H112.234V27.4286ZM112.234 29.3571H114.163V31.2857H112.234V29.3571ZM114.163 29.3571H116.092V31.2857H114.163V29.3571ZM114.163 31.2857H116.092V33.2143H114.163V31.2857ZM116.092 31.2857H118.02V33.2143H116.092V31.2857ZM118.02 31.2857H119.949V33.2143H118.02V31.2857ZM119.949 29.3571H121.877V31.2857H119.949V29.3571ZM118.02 29.3571H119.949V31.2857H118.02V29.3571ZM116.092 29.3571H118.02V31.2857H116.092V29.3571ZM119.949 31.2857H121.877V33.2143H119.949V31.2857ZM121.877 31.2857H123.806V33.2143H121.877V31.2857ZM121.877 33.2143H123.806V35.1429H121.877V33.2143ZM119.949 33.2143H121.877V35.1429H119.949V33.2143ZM119.949 35.1429H121.877V37.0714H119.949V35.1429ZM121.877 35.1429H123.806V37.0714H121.877V35.1429ZM119.949 37.0714H121.877V39H119.949V37.0714ZM118.02 35.1429H119.949V37.0714H118.02V35.1429ZM116.092 35.1429H118.02V37.0714H116.092V35.1429ZM114.163 35.1429H116.092V37.0714H114.163V35.1429ZM112.234 35.1429H114.163V37.0714H112.234V35.1429ZM114.163 37.0714H116.092V39H114.163V37.0714ZM116.092 37.0714H118.02V39H116.092V37.0714ZM118.02 37.0714H119.949V39H118.02V37.0714ZM121.877 25.5H123.806V27.4286H121.877V25.5ZM119.949 25.5H121.877V27.4286H119.949V25.5ZM119.949 23.5714H121.877V25.5H119.949V23.5714ZM118.02 23.5714H119.949V25.5H118.02V23.5714ZM116.092 23.5714H118.02V25.5H116.092V23.5714ZM114.163 23.5714H116.092V25.5H114.163V23.5714ZM114.163 25.5H116.092V27.4286H114.163V25.5ZM116.092 25.5H118.02V27.4286H116.092V25.5ZM118.02 25.5H119.949V27.4286H118.02V25.5ZM125.734 35.1429H127.663V37.0714H125.734V35.1429ZM127.663 35.1429H129.592V37.0714H127.663V35.1429ZM127.663 37.0714H129.592V39H127.663V37.0714ZM125.734 37.0714H127.663V39H125.734V37.0714ZM131.535 19.7143H135.392V23.5714H131.535V19.7143ZM131.535 25.5H135.392V39H131.535V25.5ZM141.193 23.5714H143.122V25.5H141.193V23.5714ZM139.265 23.5714H141.193V25.5H139.265V23.5714ZM139.265 25.5H141.193V27.4286H139.265V25.5ZM141.193 25.5H143.122V27.4286H141.193V25.5ZM143.122 23.5714H145.05V25.5H143.122V23.5714ZM145.05 23.5714H146.979V25.5H145.05V23.5714ZM146.979 23.5714H148.907V25.5H146.979V23.5714ZM146.979 25.5H148.907V27.4286H146.979V25.5ZM145.05 25.5H146.979V27.4286H145.05V25.5ZM146.979 29.3571H148.907V31.2857H146.979V29.3571ZM148.907 25.5H150.836V27.4286H148.907V25.5ZM148.907 27.4286H150.836V29.3571H148.907V27.4286ZM148.907 29.3571H150.836V31.2857H148.907V29.3571ZM148.907 31.2857H150.836V33.2143H148.907V31.2857ZM148.907 33.2143H150.836V35.1429H148.907V33.2143ZM148.907 35.1429H150.836V37.0714H148.907V35.1429ZM146.979 35.1429H148.907V37.0714H146.979V35.1429ZM146.979 33.2143H148.907V35.1429H146.979V33.2143ZM146.979 31.2857H148.907V33.2143H146.979V31.2857ZM146.979 27.4286H148.907V29.3571H146.979V27.4286ZM145.05 35.1429H146.979V37.0714H145.05V35.1429ZM146.979 37.0714H148.907V39H146.979V37.0714ZM145.05 37.0714H146.979V39H145.05V37.0714ZM143.122 37.0714H145.05V39H143.122V37.0714ZM141.193 37.0714H143.122V39H141.193V37.0714ZM139.265 37.0714H141.193V39H139.265V37.0714ZM139.265 35.1429H141.193V37.0714H139.265V35.1429ZM141.193 35.1429H143.122V37.0714H141.193V35.1429ZM139.265 33.2143H141.193V35.1429H139.265V33.2143ZM137.336 35.1429H139.265V37.0714H137.336V35.1429ZM137.336 33.2143H139.265V35.1429H137.336V33.2143ZM137.336 31.2857H139.265V33.2143H137.336V31.2857ZM137.336 29.3571H139.265V31.2857H137.336V29.3571ZM137.336 27.4286H139.265V29.3571H137.336V27.4286ZM137.336 25.5H139.265V27.4286H137.336V25.5ZM139.265 27.4286H141.193V29.3571H139.265V27.4286ZM139.265 29.3571H141.193V31.2857H139.265V29.3571ZM139.265 31.2857H141.193V33.2143H139.265V31.2857ZM143.122 35.1429H145.05V37.0714H143.122V35.1429ZM143.122 25.5H145.05V27.4286H143.122V25.5Z" fill="#7D53DE"/>
</svg>
