<svg width="64" height="32" viewBox="0 0 64 32" fill="none" xmlns="http://www.w3.org/2000/svg">
<g clip-path="url(#clip0_1660_1460)">
<g clip-path="url(#clip1_1660_1460)">
<g clip-path="url(#clip2_1660_1460)">
<path d="M62.6624 17.3954H0.670957C0.3216 17.3954 0.0383911 17.6115 0.0383911 17.8781C0.0383911 18.1447 0.3216 18.3608 0.670957 18.3608H62.6624C63.0117 18.3608 63.295 18.1447 63.295 17.8781C63.295 17.6115 63.0117 17.3954 62.6624 17.3954Z" fill="#E8C547"/>
<g clip-path="url(#clip3_1660_1460)">
<g clip-path="url(#clip4_1660_1460)">
<g clip-path="url(#clip5_1660_1460)">
<g clip-path="url(#clip6_1660_1460)">
<path d="M7.85743 21.0622V27.4027C7.85743 27.9768 7.77139 28.5169 7.59931 29.0229C7.42894 29.5306 7.1819 29.9753 6.85819 30.3569C6.53448 30.7369 6.1358 31.0384 5.66217 31.2616C5.19023 31.4831 4.65271 31.5938 4.04958 31.5938C3.71736 31.5938 3.38172 31.5564 3.04268 31.4814C2.70363 31.4064 2.38333 31.2914 2.08177 31.1364C1.78021 30.9796 1.51017 30.782 1.27165 30.5435C1.03142 30.305 0.843158 30.023 0.70686 29.6976L1.61665 29.3551C1.69673 29.5579 1.7998 29.7453 1.92588 29.9174C2.05366 30.0877 2.20018 30.2343 2.36544 30.3569C2.53241 30.4796 2.71556 30.575 2.9149 30.6432C3.11423 30.7113 3.32465 30.7454 3.54613 30.7454C3.96184 30.7454 4.31025 30.6602 4.59137 30.4898C4.87078 30.3194 5.09568 30.0971 5.26605 29.8228C5.43813 29.5485 5.56079 29.2376 5.63406 28.89C5.70902 28.5424 5.7465 28.1898 5.7465 27.832V27.4078C5.49776 27.7485 5.1979 28.0015 4.84693 28.1668C4.49426 28.3303 4.10836 28.4121 3.68924 28.4121C3.13894 28.4121 2.64826 28.3141 2.21722 28.1182C1.78447 27.924 1.41817 27.6574 1.11831 27.3183C0.818454 26.9793 0.589302 26.5806 0.430855 26.1223C0.274111 25.6657 0.19574 25.175 0.19574 24.6503C0.19574 24.1255 0.274111 23.6348 0.430855 23.1782C0.589302 22.7199 0.818454 22.3213 1.11831 21.9822C1.41817 21.6432 1.78447 21.3765 2.21722 21.1823C2.64826 20.9864 3.13894 20.8884 3.68924 20.8884C3.96695 20.8884 4.23188 20.9302 4.48404 21.0137C4.73619 21.0954 4.96704 21.213 5.1766 21.3663C5.38616 21.518 5.57102 21.7003 5.73117 21.9132C5.89132 22.1279 6.0174 22.3664 6.1094 22.6288L7.04475 21.0622H7.85743ZM5.73628 24.6503C5.73628 24.4629 5.72691 24.2652 5.70817 24.0574C5.68943 23.8495 5.65706 23.6434 5.61105 23.4389C5.56505 23.2362 5.50116 23.0419 5.41938 22.8562C5.33931 22.6705 5.23538 22.5061 5.1076 22.363C4.98153 22.2199 4.82904 22.1066 4.65015 22.0231C4.47126 21.9396 4.2634 21.8979 4.02658 21.8979C3.78806 21.8979 3.58191 21.9405 3.40813 22.0257C3.23264 22.1109 3.08272 22.2259 2.95834 22.3707C2.83397 22.5138 2.73089 22.6791 2.64912 22.8665C2.56904 23.0539 2.506 23.2489 2.46 23.4517C2.414 23.6561 2.38163 23.8614 2.36289 24.0676C2.34415 24.2737 2.33478 24.468 2.33478 24.6503C2.33478 24.8326 2.34415 25.0276 2.36289 25.2355C2.38163 25.4451 2.414 25.6512 2.46 25.854C2.506 26.0584 2.56904 26.2543 2.64912 26.4417C2.73089 26.6292 2.83397 26.7944 2.95834 26.9375C3.08272 27.0806 3.23264 27.1948 3.40813 27.28C3.58191 27.3652 3.78806 27.4078 4.02658 27.4078C4.24296 27.4078 4.43463 27.3635 4.60159 27.2749C4.77026 27.1846 4.91849 27.0645 5.04627 26.9145C5.17234 26.7646 5.27883 26.5942 5.36572 26.4034C5.45431 26.2126 5.52502 26.015 5.57783 25.8105C5.63235 25.6061 5.67239 25.4033 5.69795 25.2023C5.7235 25.0012 5.73628 24.8172 5.73628 24.6503ZM9.24767 25.1869C9.24767 24.8581 9.27578 24.5174 9.33201 24.1647C9.38823 23.8103 9.46916 23.4568 9.57479 23.1041C9.68042 22.7498 9.8082 22.3996 9.95813 22.0538C10.1081 21.7096 10.2767 21.3791 10.4641 21.0622H12.0052C11.9012 21.374 11.8084 21.6994 11.7266 22.0384C11.6465 22.3775 11.5784 22.7165 11.5222 23.0556C11.4659 23.3946 11.4216 23.7268 11.3893 24.0523C11.3586 24.376 11.3433 24.6775 11.3433 24.9569C11.3433 25.1188 11.3509 25.2917 11.3663 25.4757C11.3799 25.6614 11.4055 25.8471 11.4429 26.0328C11.4804 26.2169 11.5332 26.394 11.6014 26.5644C11.6712 26.7365 11.7598 26.8873 11.8672 27.0168C11.9762 27.1479 12.1082 27.2527 12.2633 27.3311C12.42 27.4078 12.604 27.4461 12.8153 27.4461C13.0231 27.4461 13.2097 27.3992 13.375 27.3055C13.5385 27.2118 13.6825 27.0892 13.8069 26.9375C13.9329 26.7859 14.0394 26.6121 14.1263 26.4162C14.2132 26.2203 14.2848 26.0192 14.341 25.8131C14.3972 25.6069 14.4389 25.405 14.4662 25.2074C14.4935 25.0115 14.5071 24.8343 14.5071 24.6758V21.0622H16.6155V28.269H15.8053L14.8368 26.59C14.7158 26.8694 14.5693 27.1224 14.3972 27.349C14.2251 27.5756 14.0283 27.7698 13.8069 27.9317C13.5871 28.0935 13.3434 28.2187 13.076 28.3073C12.8068 28.3942 12.5163 28.4377 12.2045 28.4377C11.7053 28.4377 11.2709 28.3567 10.9011 28.1949C10.5297 28.0313 10.2214 27.8064 9.97602 27.5202C9.73068 27.234 9.54838 26.8915 9.42912 26.4929C9.30816 26.0959 9.24767 25.6606 9.24767 25.1869ZM20.109 24.8496C20.3662 24.9075 20.6243 24.9535 20.8833 24.9876C21.1406 25.02 21.4004 25.0362 21.6628 25.0362C21.9371 25.0362 22.1918 25.0106 22.4269 24.9595C22.662 24.9067 22.8656 24.8189 23.0377 24.6963C23.2115 24.5736 23.3478 24.4109 23.4466 24.2082C23.5471 24.0037 23.5974 23.7498 23.5974 23.4466C23.5974 23.2012 23.5641 22.9764 23.4977 22.7719C23.4313 22.5675 23.3324 22.3928 23.2012 22.248C23.0701 22.1032 22.9091 21.9899 22.7182 21.9081C22.5257 21.8263 22.3025 21.7854 22.0487 21.7854C21.8119 21.7854 21.5989 21.8297 21.4098 21.9183C21.2207 22.0052 21.0545 22.1228 20.9114 22.271C20.7683 22.4175 20.6456 22.5888 20.5434 22.7847C20.4412 22.9806 20.3569 23.1842 20.2904 23.3955C20.224 23.6084 20.1763 23.8231 20.1473 24.0395C20.1183 24.2559 20.1039 24.4595 20.1039 24.6503C20.1039 24.6843 20.1039 24.7176 20.1039 24.7499C20.1039 24.784 20.1056 24.8172 20.109 24.8496ZM25.3071 23.4261C25.3071 23.7226 25.2594 23.9858 25.1639 24.2158C25.0668 24.4475 24.9365 24.6503 24.7729 24.8241C24.6094 24.9995 24.4194 25.1478 24.203 25.2687C23.9867 25.388 23.7558 25.4868 23.5105 25.5652C23.2651 25.6418 23.0121 25.6964 22.7515 25.7287C22.4908 25.7628 22.2378 25.7798 21.9924 25.7798C21.6807 25.7798 21.3731 25.7577 21.0699 25.7134C20.7666 25.6708 20.4668 25.601 20.1703 25.5038C20.2163 25.7798 20.2896 26.0414 20.3901 26.2884C20.4889 26.5355 20.6218 26.7518 20.7888 26.9375C20.9557 27.1215 21.161 27.2681 21.4047 27.3771C21.6466 27.4844 21.9345 27.5381 22.2685 27.5381C22.4882 27.5381 22.6978 27.5049 22.8971 27.4384C23.0982 27.372 23.2813 27.2783 23.4466 27.1573C23.6135 27.0381 23.7601 26.8949 23.8861 26.728C24.0139 26.561 24.117 26.3762 24.1954 26.1734L25.1077 26.5107C24.9697 26.8379 24.7815 27.1215 24.5429 27.3618C24.3027 27.6003 24.0318 27.7979 23.7303 27.9547C23.4287 28.1097 23.1084 28.2247 22.7694 28.2997C22.4303 28.3746 22.0947 28.4121 21.7624 28.4121C21.2138 28.4121 20.7061 28.3201 20.2393 28.1361C19.7742 27.9504 19.373 27.6914 19.0356 27.3592C18.6983 27.0253 18.4342 26.6275 18.2434 26.1657C18.0526 25.704 17.9572 25.1989 17.9572 24.6503C17.9572 24.1017 18.0526 23.5965 18.2434 23.1348C18.4342 22.6731 18.6983 22.2753 19.0356 21.9413C19.373 21.6091 19.7742 21.3501 20.2393 21.1644C20.7061 20.9804 21.2138 20.8884 21.7624 20.8884C22.0282 20.8884 22.3008 20.9072 22.5802 20.9447C22.8579 20.9821 23.128 21.0409 23.3904 21.121C23.6527 21.2028 23.9006 21.3084 24.134 21.4379C24.3657 21.5657 24.5685 21.7241 24.7423 21.9132C24.9144 22.104 25.0515 22.3238 25.1537 22.5726C25.2559 22.8213 25.3071 23.1058 25.3071 23.4261ZM32.8231 25.9664C32.8231 26.2833 32.7779 26.5644 32.6876 26.8098C32.5956 27.0551 32.4704 27.2681 32.312 27.4487C32.1535 27.6292 31.9661 27.7809 31.7497 27.9035C31.5334 28.0262 31.3016 28.125 31.0546 28.2C30.8076 28.275 30.5486 28.3295 30.2777 28.3636C30.0085 28.3959 29.7402 28.4121 29.4727 28.4121C29.1149 28.4121 28.7989 28.3891 28.5246 28.3431C28.2503 28.2971 27.9887 28.2239 27.74 28.1233C27.4895 28.0211 27.2408 27.8891 26.9938 27.7272C26.7467 27.5637 26.4707 27.366 26.1657 27.1343L27.395 26.13C27.5074 26.3412 27.6565 26.5329 27.8422 26.705C28.0279 26.8788 28.2204 27.0278 28.4198 27.1522C28.6191 27.2766 28.8125 27.372 28.9999 27.4384C29.1873 27.5049 29.3389 27.5381 29.4548 27.5381C29.5502 27.5381 29.6584 27.5355 29.7794 27.5304C29.9003 27.5236 30.023 27.5108 30.1474 27.4921C30.2717 27.4734 30.3944 27.4452 30.5154 27.4078C30.6363 27.3703 30.7437 27.3192 30.8374 27.2544C30.9311 27.1897 31.006 27.1088 31.0623 27.0116C31.1185 26.9145 31.1466 26.797 31.1466 26.659C31.1466 26.5176 31.11 26.394 31.0367 26.2884C30.9635 26.1828 30.8689 26.0899 30.753 26.0098C30.6355 25.9315 30.5026 25.865 30.3544 25.8105C30.2044 25.756 30.0537 25.7083 29.902 25.6674C29.7487 25.6265 29.6013 25.5899 29.4599 25.5575C29.3185 25.5268 29.1958 25.497 29.0919 25.4681C28.9011 25.4135 28.7 25.3582 28.4888 25.3019C28.2758 25.2457 28.0654 25.181 27.8575 25.1077C27.6497 25.0362 27.4512 24.9501 27.2621 24.8496C27.073 24.7508 26.9069 24.6315 26.7638 24.4918C26.6189 24.3521 26.5039 24.1877 26.4187 23.9986C26.3336 23.8095 26.291 23.588 26.291 23.3341C26.291 22.8673 26.3838 22.4772 26.5695 22.1637C26.7535 21.8502 26.998 21.5989 27.303 21.4098C27.6062 21.2207 27.9513 21.0861 28.338 21.006C28.7247 20.9276 29.1175 20.8884 29.5161 20.8884C29.7921 20.8884 30.0818 20.9165 30.385 20.9728C30.6883 21.029 30.983 21.1116 31.2693 21.2207C31.5572 21.3314 31.8255 21.466 32.0743 21.6244C32.3247 21.7829 32.5334 21.9635 32.7004 22.1662L31.4712 23.1782C31.3792 22.9278 31.2591 22.7131 31.1108 22.5342C30.9643 22.3553 30.8042 22.2088 30.6304 22.0947C30.4583 21.9805 30.282 21.8962 30.1014 21.8417C29.9191 21.7889 29.7512 21.7624 29.5979 21.7624C29.448 21.7624 29.2793 21.7684 29.0919 21.7803C28.9062 21.7923 28.7307 21.8272 28.5655 21.8851C28.4019 21.9447 28.263 22.0333 28.1489 22.1509C28.033 22.2702 27.9751 22.4337 27.9751 22.6416C27.9751 22.7915 28.01 22.9193 28.0799 23.0249C28.148 23.1305 28.2383 23.2217 28.3508 23.2984C28.4632 23.3767 28.591 23.4415 28.7341 23.4926C28.8772 23.5454 29.0238 23.5914 29.1737 23.6306C29.3236 23.6698 29.4693 23.7038 29.6107 23.7328C29.7521 23.7618 29.879 23.7933 29.9915 23.8274C30.1823 23.8802 30.385 23.9347 30.5997 23.9909C30.8144 24.0471 31.0256 24.1119 31.2335 24.1852C31.4414 24.2584 31.6415 24.3436 31.8341 24.4407C32.0283 24.5395 32.1978 24.6596 32.3426 24.8011C32.4891 24.9425 32.6059 25.1077 32.6927 25.2968C32.7796 25.486 32.8231 25.7091 32.8231 25.9664ZM40.3544 25.9664C40.3544 26.2833 40.3084 26.5644 40.2164 26.8098C40.1244 27.0551 40.0001 27.2681 39.8433 27.4487C39.6849 27.6292 39.4975 27.7809 39.2811 27.9035C39.0647 28.0262 38.833 28.125 38.586 28.2C38.3372 28.275 38.0782 28.3295 37.8091 28.3636C37.5382 28.3959 37.2698 28.4121 37.004 28.4121C36.6463 28.4121 36.3302 28.3891 36.0559 28.3431C35.7816 28.2971 35.5192 28.2239 35.2688 28.1233C35.02 28.0211 34.7713 27.8891 34.5226 27.7272C34.2755 27.5637 34.0004 27.366 33.6971 27.1343L34.9263 26.13C35.0388 26.3412 35.187 26.5329 35.371 26.705C35.5567 26.8788 35.7492 27.0278 35.9486 27.1522C36.1479 27.2766 36.3413 27.372 36.5287 27.4384C36.7161 27.5049 36.8686 27.5381 36.9862 27.5381C37.0816 27.5381 37.1889 27.5355 37.3082 27.5304C37.4291 27.5236 37.5526 27.5108 37.6787 27.4921C37.8031 27.4734 37.9258 27.4452 38.0467 27.4078C38.166 27.3703 38.2725 27.3192 38.3662 27.2544C38.4599 27.1897 38.5348 27.1088 38.5911 27.0116C38.6473 26.9145 38.6754 26.797 38.6754 26.659C38.6754 26.5176 38.6388 26.394 38.5655 26.2884C38.494 26.1828 38.3994 26.0899 38.2818 26.0098C38.166 25.9315 38.0331 25.865 37.8832 25.8105C37.7332 25.756 37.5825 25.7083 37.4308 25.6674C37.2792 25.6265 37.1327 25.5899 36.9913 25.5575C36.8499 25.5268 36.7272 25.497 36.6233 25.4681C36.4324 25.4135 36.2305 25.3582 36.0176 25.3019C35.8063 25.2457 35.5968 25.181 35.3889 25.1077C35.1793 25.0362 34.98 24.9501 34.7909 24.8496C34.6018 24.7508 34.4357 24.6315 34.2925 24.4918C34.1494 24.3521 34.0353 24.1877 33.9501 23.9986C33.8649 23.8095 33.8223 23.588 33.8223 23.3341C33.8223 22.8673 33.9143 22.4772 34.0983 22.1637C34.284 21.8502 34.5285 21.5989 34.8318 21.4098C35.135 21.2207 35.4809 21.0861 35.8694 21.006C36.2561 20.9276 36.6488 20.8884 37.0475 20.8884C37.3218 20.8884 37.6106 20.9165 37.9138 20.9728C38.2188 21.029 38.5144 21.1116 38.8006 21.2207C39.0869 21.3314 39.3552 21.466 39.6056 21.6244C39.8544 21.7829 40.0622 21.9635 40.2292 22.1662L39 23.1782C38.908 22.9278 38.7887 22.7131 38.6422 22.5342C38.494 22.3553 38.3338 22.2088 38.1617 22.0947C37.9879 21.9805 37.8108 21.8962 37.6302 21.8417C37.4496 21.7889 37.2826 21.7624 37.1293 21.7624C36.9793 21.7624 36.8107 21.7684 36.6233 21.7803C36.4358 21.7923 36.2604 21.8272 36.0968 21.8851C35.9315 21.9447 35.7918 22.0333 35.6777 22.1509C35.5635 22.2702 35.5065 22.4337 35.5065 22.6416C35.5065 22.7915 35.5405 22.9193 35.6087 23.0249C35.6768 23.1305 35.7671 23.2217 35.8796 23.2984C35.992 23.3767 36.1207 23.4415 36.2655 23.4926C36.4086 23.5454 36.5551 23.5914 36.705 23.6306C36.855 23.6698 37.0006 23.7038 37.142 23.7328C37.2834 23.7618 37.4095 23.7933 37.5203 23.8274C37.7128 23.8802 37.9164 23.9347 38.1311 23.9909C38.344 24.0471 38.5544 24.1119 38.7623 24.1852C38.9701 24.2584 39.1712 24.3436 39.3654 24.4407C39.5579 24.5395 39.7275 24.6596 39.874 24.8011C40.0188 24.9425 40.1355 25.1077 40.2241 25.2968C40.311 25.486 40.3544 25.7091 40.3544 25.9664ZM43.416 24.8496C43.675 24.9075 43.9331 24.9535 44.1904 24.9876C44.4476 25.02 44.7075 25.0362 44.9698 25.0362C45.2441 25.0362 45.4989 25.0106 45.734 24.9595C45.9691 24.9067 46.1735 24.8189 46.3473 24.6963C46.5194 24.5736 46.6557 24.4109 46.7562 24.2082C46.855 24.0037 46.9044 23.7498 46.9044 23.4466C46.9044 23.2012 46.8712 22.9764 46.8048 22.7719C46.7383 22.5675 46.6395 22.3928 46.5083 22.248C46.3771 22.1032 46.2161 21.9899 46.0253 21.9081C45.8345 21.8263 45.6122 21.7854 45.3583 21.7854C45.1198 21.7854 44.906 21.8297 44.7168 21.9183C44.5277 22.0052 44.3616 22.1228 44.2185 22.271C44.0754 22.4175 43.9527 22.5888 43.8505 22.7847C43.7483 22.9806 43.6639 23.1842 43.5975 23.3955C43.531 23.6084 43.4833 23.8231 43.4544 24.0395C43.4254 24.2559 43.4109 24.4595 43.4109 24.6503C43.4109 24.6843 43.4109 24.7176 43.4109 24.7499C43.4109 24.784 43.4126 24.8172 43.416 24.8496ZM48.6141 23.4261C48.6141 23.7226 48.5664 23.9858 48.471 24.2158C48.3756 24.4475 48.2453 24.6503 48.08 24.8241C47.9164 24.9995 47.7265 25.1478 47.5101 25.2687C47.2937 25.388 47.0629 25.4868 46.8175 25.5652C46.5722 25.6418 46.3192 25.6964 46.0585 25.7287C45.7996 25.7628 45.5474 25.7798 45.3021 25.7798C44.9903 25.7798 44.6819 25.7577 44.3769 25.7134C44.0737 25.6708 43.7747 25.601 43.4799 25.5038C43.5259 25.7798 43.5983 26.0414 43.6972 26.2884C43.7977 26.5355 43.9306 26.7518 44.0958 26.9375C44.2628 27.1215 44.4681 27.2681 44.7117 27.3771C44.9554 27.4844 45.2433 27.5381 45.5755 27.5381C45.7953 27.5381 46.0057 27.5049 46.2068 27.4384C46.4061 27.372 46.5892 27.2783 46.7562 27.1573C46.9215 27.0381 47.068 26.8949 47.1958 26.728C47.3218 26.561 47.4241 26.3762 47.5024 26.1734L48.4148 26.5107C48.2768 26.8379 48.0885 27.1215 47.85 27.3618C47.6115 27.6003 47.3414 27.7979 47.0399 27.9547C46.7383 28.1097 46.418 28.2247 46.079 28.2997C45.7399 28.3746 45.4034 28.4121 45.0695 28.4121C44.5209 28.4121 44.014 28.3201 43.5489 28.1361C43.0821 27.9504 42.68 27.6914 42.3427 27.3592C42.0071 27.0253 41.743 26.6275 41.5504 26.1657C41.3596 25.704 41.2642 25.1989 41.2642 24.6503C41.2642 24.1017 41.3596 23.5965 41.5504 23.1348C41.743 22.6731 42.0071 22.2753 42.3427 21.9413C42.68 21.6091 43.0821 21.3501 43.5489 21.1644C44.014 20.9804 44.5209 20.8884 45.0695 20.8884C45.337 20.8884 45.6096 20.9072 45.8873 20.9447C46.1667 20.9821 46.4376 21.0409 46.7 21.121C46.9607 21.2028 47.2077 21.3084 47.4411 21.4379C47.6745 21.5657 47.8773 21.7241 48.0493 21.9132C48.2214 22.104 48.3586 22.3238 48.4608 22.5726C48.563 22.8213 48.6141 23.1058 48.6141 23.4261ZM56.056 21.6986L54.8728 23.6638C54.8217 23.4985 54.7569 23.312 54.6786 23.1041C54.5985 22.8946 54.5005 22.6995 54.3847 22.5189C54.2688 22.3383 54.13 22.1867 53.9681 22.064C53.8046 21.9413 53.6171 21.88 53.4059 21.88C53.2099 21.88 53.0404 21.9303 52.8973 22.0308C52.7542 22.1296 52.6324 22.2591 52.5319 22.4192C52.4313 22.5794 52.3496 22.7608 52.2865 22.9636C52.2218 23.1646 52.1715 23.3682 52.1357 23.5744C52.1 23.7805 52.0761 23.9781 52.0642 24.1673C52.0523 24.3564 52.0463 24.5191 52.0463 24.6554V28.269H49.9303V21.0622H50.7404L51.5965 22.7412C51.7124 22.4703 51.8453 22.2216 51.9952 21.995C52.1451 21.7684 52.318 21.5733 52.514 21.4098C52.7082 21.2445 52.9297 21.1167 53.1784 21.0264C53.4255 20.9344 53.7049 20.8884 54.0167 20.8884C54.1785 20.8884 54.3591 20.9021 54.5585 20.9293C54.7595 20.9566 54.9554 21.0017 55.1462 21.0648C55.3371 21.1295 55.5134 21.2138 55.6752 21.3178C55.8388 21.4217 55.9657 21.5486 56.056 21.6986ZM63.1376 25.9664C63.1376 26.2833 63.0916 26.5644 62.9996 26.8098C62.9093 27.0551 62.7849 27.2681 62.6265 27.4487C62.468 27.6292 62.2806 27.7809 62.0642 27.9035C61.8479 28.0262 61.6162 28.125 61.3691 28.2C61.1221 28.275 60.8631 28.3295 60.5922 28.3636C60.3213 28.3959 60.053 28.4121 59.7872 28.4121C59.4294 28.4121 59.1134 28.3891 58.8391 28.3431C58.5648 28.2971 58.3024 28.2239 58.052 28.1233C57.8032 28.0211 57.5553 27.8891 57.3083 27.7272C57.0595 27.5637 56.7835 27.366 56.4803 27.1343L57.7095 26.13C57.822 26.3412 57.971 26.5329 58.1567 26.705C58.3407 26.8788 58.5333 27.0278 58.7343 27.1522C58.9336 27.2766 59.127 27.372 59.3144 27.4384C59.5001 27.5049 59.6518 27.5381 59.7693 27.5381C59.8647 27.5381 59.9729 27.5355 60.0939 27.5304C60.2148 27.5236 60.3375 27.5108 60.4619 27.4921C60.5863 27.4734 60.7089 27.4452 60.8299 27.4078C60.9509 27.3703 61.0582 27.3192 61.1519 27.2544C61.2439 27.1897 61.318 27.1088 61.3742 27.0116C61.4305 26.9145 61.4586 26.797 61.4586 26.659C61.4586 26.5176 61.4228 26.394 61.3512 26.2884C61.278 26.1828 61.1834 26.0899 61.0676 26.0098C60.95 25.9315 60.8163 25.865 60.6663 25.8105C60.5164 25.756 60.3656 25.7083 60.214 25.6674C60.0624 25.6265 59.9158 25.5899 59.7744 25.5575C59.633 25.5268 59.5104 25.497 59.4064 25.4681C59.2156 25.4135 59.0137 25.3582 58.8007 25.3019C58.5895 25.2457 58.3799 25.181 58.1721 25.1077C57.9642 25.0362 57.7657 24.9501 57.5766 24.8496C57.3875 24.7508 57.2205 24.6315 57.0757 24.4918C56.9326 24.3521 56.8185 24.1877 56.7333 23.9986C56.6481 23.8095 56.6055 23.588 56.6055 23.3341C56.6055 22.8673 56.6983 22.4772 56.884 22.1637C57.068 21.8502 57.3125 21.5989 57.6175 21.4098C57.9208 21.2207 58.2658 21.0861 58.6525 21.006C59.0393 20.9276 59.432 20.8884 59.8307 20.8884C60.105 20.8884 60.3946 20.9165 60.6996 20.9728C61.0028 21.029 61.2976 21.1116 61.5838 21.2207C61.8717 21.3314 62.1401 21.466 62.3888 21.6244C62.6393 21.7829 62.8471 21.9635 63.0124 22.1662L61.7831 23.1782C61.6928 22.9278 61.5736 22.7131 61.4253 22.5342C61.2771 22.3553 61.117 22.2088 60.9449 22.0947C60.7728 21.9805 60.5956 21.8962 60.4133 21.8417C60.2327 21.7889 60.0658 21.7624 59.9124 21.7624C59.7625 21.7624 59.5938 21.7684 59.4064 21.7803C59.219 21.7923 59.0435 21.8272 58.88 21.8851C58.7147 21.9447 58.575 22.0333 58.4609 22.1509C58.3467 22.2702 58.2896 22.4337 58.2896 22.6416C58.2896 22.7915 58.3237 22.9193 58.3919 23.0249C58.4617 23.1305 58.5529 23.2217 58.6653 23.2984C58.7777 23.3767 58.9055 23.4415 59.0486 23.4926C59.1918 23.5454 59.3383 23.5914 59.4882 23.6306C59.6381 23.6698 59.7838 23.7038 59.9252 23.7328C60.0666 23.7618 60.1936 23.7933 60.306 23.8274C60.4968 23.8802 60.6996 23.9347 60.9142 23.9909C61.1289 24.0471 61.3402 24.1119 61.548 24.1852C61.7559 24.2584 61.9561 24.3436 62.1486 24.4407C62.3428 24.5395 62.5123 24.6596 62.6571 24.8011C62.8037 24.9425 62.9204 25.1077 63.0073 25.2968C63.0942 25.486 63.1376 25.7091 63.1376 25.9664Z" fill="#E8C547"/>
</g>
</g>
</g>
</g>
<g clip-path="url(#clip7_1660_1460)">
<g clip-path="url(#clip8_1660_1460)">
<path d="M23.5294 14.8681H39.804V1.55261H32.4065V3.03201H38.3244V13.3885H25.0089V10.4295H23.5294V14.8681Z" fill="#E8C547"/>
<path d="M25.0089 3.03198H23.5294V4.51156H25.0089V3.03198Z" fill="#E8C547"/>
<path d="M30.9269 5.99097H29.4473V7.47055H30.9269V5.99097Z" fill="#E8C547"/>
<path d="M30.9269 3.03197V1.55258H27.9679V0.072998H26.4884V1.55258H25.009V3.03197H26.4884V4.51155H25.009V5.99095H26.4884V7.47053H23.5294V8.95011H26.4884V10.4295H27.9679V8.95011H29.4473V7.47053H27.9679V5.99095H29.4473V4.51155H27.9679V3.03197H30.9269Z" fill="#E8C547"/>
</g>
</g>
</g>
</g>
</g>
<defs>
<clipPath id="clip0_1660_1460">
<rect width="63.3333" height="31.6667" fill="white"/>
</clipPath>
<clipPath id="clip1_1660_1460">
<rect width="63.2566" height="31.5207" fill="white" transform="translate(0.0383911 0.072998)"/>
</clipPath>
<clipPath id="clip2_1660_1460">
<rect width="63.2566" height="31.5207" fill="white" transform="translate(0.0383911 0.072998)"/>
</clipPath>
<clipPath id="clip3_1660_1460">
<rect width="62.9419" height="10.7055" fill="white" transform="translate(0.19574 20.8882)"/>
</clipPath>
<clipPath id="clip4_1660_1460">
<rect width="62.9419" height="10.7055" fill="white" transform="translate(0.19574 20.8882)"/>
</clipPath>
<clipPath id="clip5_1660_1460">
<rect width="62.9419" height="10.7055" fill="white" transform="translate(0.19574 20.8882)"/>
</clipPath>
<clipPath id="clip6_1660_1460">
<rect width="62.9419" height="10.7055" fill="white" transform="translate(0.19574 20.8882)"/>
</clipPath>
<clipPath id="clip7_1660_1460">
<rect width="16.2746" height="14.7951" fill="white" transform="translate(23.5294 0.072998)"/>
</clipPath>
<clipPath id="clip8_1660_1460">
<rect width="16.2746" height="14.7951" fill="white" transform="translate(23.5294 0.072998)"/>
</clipPath>
</defs>
</svg>
