<svg width="140" height="36" viewBox="0 0 140 36" fill="none" xmlns="http://www.w3.org/2000/svg">
<rect width="36" height="36" fill="#9B7DD7"/>
<path d="M22.7319 21.9796C21.4346 23.2769 20.1298 23.9482 18.8174 23.9934C17.4975 24.0312 16.2454 23.4579 15.0612 22.2738C13.8394 21.0519 13.2473 19.7583 13.285 18.3932C13.3227 17.028 14.0166 15.6703 15.3667 14.3202C15.8193 13.8677 16.253 13.4868 16.6678 13.1775C17.0902 12.8607 17.5163 12.593 17.9462 12.3743L19.7677 14.1958C19.3077 14.3994 18.8777 14.6559 18.478 14.9651C18.0782 15.2743 17.6936 15.6138 17.324 15.9833C16.6225 16.6848 16.253 17.3711 16.2152 18.0424C16.1851 18.7062 16.5245 19.3925 17.2335 20.1015C17.8972 20.7653 18.527 21.0934 19.1229 21.0858C19.7263 21.0707 20.3259 20.7653 20.9217 20.1694C21.1178 19.9733 21.2913 19.7772 21.4422 19.5811C21.5855 19.3774 21.7099 19.1776 21.8155 18.9815L20.752 17.918L19.3039 19.3661L17.9915 18.0537L21.2159 14.8293L24.8815 18.495C24.7759 18.9475 24.5572 19.4755 24.2253 20.0789C23.901 20.6748 23.4032 21.3083 22.7319 21.9796Z" fill="white"/>
<rect width="104" height="36" transform="translate(36)" fill="#9B7DD7"/>
<path d="M50.048 26.816C49.6747 26.816 49.2693 26.8 48.832 26.768C48.3947 26.7467 47.9787 26.704 47.584 26.64C47.2 26.576 46.88 26.5013 46.624 26.416V24.496C46.912 24.592 47.2427 24.672 47.616 24.736C48 24.8 48.3893 24.848 48.784 24.88C49.1787 24.912 49.5413 24.928 49.872 24.928C50.4373 24.928 50.88 24.896 51.2 24.832C51.5307 24.7787 51.696 24.6773 51.696 24.528C51.696 24.4 51.6427 24.3147 51.536 24.272C51.4293 24.24 51.2267 24.224 50.928 24.224H48.928C48.1493 24.224 47.5467 24.1013 47.12 23.856C46.704 23.6 46.496 23.2213 46.496 22.72C46.496 22.016 46.8853 21.5253 47.664 21.248C47.2267 21.024 46.9067 20.7413 46.704 20.4C46.5013 20.0587 46.4 19.6267 46.4 19.104C46.4 18.1227 46.7307 17.4027 47.392 16.944C48.064 16.4853 49.0293 16.256 50.288 16.256C50.5547 16.256 50.8533 16.2773 51.184 16.32C51.5147 16.352 51.7547 16.384 51.904 16.416H54.88L54.816 18.24H53.808C54 18.4853 54.096 18.784 54.096 19.136C54.096 19.9147 53.8667 20.5333 53.408 20.992C52.96 21.44 52.2507 21.664 51.28 21.664C51.1413 21.664 50.992 21.6587 50.832 21.648C50.672 21.6267 50.5227 21.6107 50.384 21.6C50.1493 21.6213 49.9467 21.664 49.776 21.728C49.6053 21.792 49.52 21.8987 49.52 22.048C49.52 22.1547 49.568 22.2293 49.664 22.272C49.76 22.304 49.8933 22.32 50.064 22.32H51.808C52.5867 22.32 53.2 22.5013 53.648 22.864C54.096 23.2267 54.32 23.76 54.32 24.464C54.32 25.2107 53.9733 25.7867 53.28 26.192C52.5867 26.608 51.5093 26.816 50.048 26.816ZM50.304 20.016C50.7733 20.016 51.0987 19.936 51.28 19.776C51.4613 19.616 51.552 19.3493 51.552 18.976C51.552 18.6027 51.4613 18.3307 51.28 18.16C51.0987 17.9893 50.7733 17.904 50.304 17.904C49.8667 17.904 49.5467 17.9893 49.344 18.16C49.152 18.32 49.056 18.592 49.056 18.976C49.056 19.3387 49.1467 19.6053 49.328 19.776C49.52 19.936 49.8453 20.016 50.304 20.016ZM58.5814 24.16C57.696 24.16 57.0027 23.9093 56.5014 23.408C56 22.9067 55.7494 22.1707 55.7494 21.2V16.416H58.7574V20.96C58.7574 21.6213 59.0934 21.952 59.7654 21.952C60.0107 21.952 60.2507 21.8987 60.4854 21.792C60.72 21.6853 60.9067 21.552 61.0454 21.392V16.416H64.0534V24H61.2374L61.1574 23.424C60.8587 23.6373 60.4907 23.8133 60.0534 23.952C59.6267 24.0907 59.136 24.16 58.5814 24.16ZM69.6616 24.16C68.7763 24.16 67.9923 24.016 67.3096 23.728C66.6376 23.4293 66.1096 22.9867 65.7256 22.4C65.3523 21.8133 65.1656 21.088 65.1656 20.224C65.1656 19.0187 65.507 18.0587 66.1896 17.344C66.8723 16.6187 67.891 16.256 69.2456 16.256C70.483 16.256 71.4483 16.5707 72.1416 17.2C72.8456 17.8293 73.1976 18.688 73.1976 19.776V21.104H67.9336C68.0723 21.5093 68.3443 21.7973 68.7496 21.968C69.155 22.1387 69.7043 22.224 70.3976 22.224C70.835 22.224 71.2723 22.1867 71.7096 22.112C72.1576 22.0267 72.515 21.9307 72.7816 21.824V23.632C72.035 23.984 70.995 24.16 69.6616 24.16ZM67.9336 19.472H70.6056V19.2C70.6056 18.9013 70.5096 18.656 70.3176 18.464C70.1363 18.272 69.811 18.176 69.3416 18.176C68.819 18.176 68.451 18.288 68.2376 18.512C68.035 18.7253 67.9336 19.0453 67.9336 19.472ZM77.1956 24.16C76.545 24.16 75.9316 24.112 75.3556 24.016C74.7903 23.9307 74.3423 23.8187 74.0116 23.68V21.52C74.385 21.6907 74.8276 21.824 75.3396 21.92C75.8623 22.016 76.305 22.064 76.6676 22.064C77.0516 22.064 77.3396 22.0533 77.5316 22.032C77.7343 22.0107 77.8356 21.92 77.8356 21.76C77.8356 21.5787 77.6596 21.44 77.3076 21.344C76.9556 21.248 76.513 21.1093 75.9796 20.928C75.2863 20.6827 74.769 20.3947 74.4276 20.064C74.0863 19.7333 73.9156 19.2533 73.9156 18.624C73.9156 17.8667 74.2143 17.2853 74.8116 16.88C75.409 16.464 76.3476 16.256 77.6276 16.256C78.1183 16.256 78.625 16.2933 79.1476 16.368C79.6703 16.4427 80.081 16.528 80.3796 16.624V18.736C80.0596 18.5973 79.7076 18.496 79.3236 18.432C78.9503 18.368 78.609 18.336 78.2996 18.336C77.9583 18.336 77.6543 18.352 77.3876 18.384C77.121 18.416 76.9876 18.5067 76.9876 18.656C76.9876 18.8267 77.137 18.9493 77.4356 19.024C77.745 19.0987 78.1556 19.216 78.6676 19.376C79.2436 19.5467 79.6916 19.7333 80.0116 19.936C80.3423 20.1387 80.5716 20.384 80.6996 20.672C80.8383 20.96 80.9076 21.3173 80.9076 21.744C80.9076 22.512 80.593 23.1093 79.9636 23.536C79.345 23.952 78.4223 24.16 77.1956 24.16ZM84.5863 24.16C83.9356 24.16 83.3223 24.112 82.7463 24.016C82.1809 23.9307 81.7329 23.8187 81.4023 23.68V21.52C81.7756 21.6907 82.2183 21.824 82.7303 21.92C83.2529 22.016 83.6956 22.064 84.0583 22.064C84.4423 22.064 84.7303 22.0533 84.9223 22.032C85.1249 22.0107 85.2263 21.92 85.2263 21.76C85.2263 21.5787 85.0503 21.44 84.6983 21.344C84.3463 21.248 83.9036 21.1093 83.3703 20.928C82.6769 20.6827 82.1596 20.3947 81.8183 20.064C81.4769 19.7333 81.3063 19.2533 81.3063 18.624C81.3063 17.8667 81.6049 17.2853 82.2023 16.88C82.7996 16.464 83.7383 16.256 85.0182 16.256C85.5089 16.256 86.0156 16.2933 86.5383 16.368C87.0609 16.4427 87.4716 16.528 87.7703 16.624V18.736C87.4503 18.5973 87.0983 18.496 86.7143 18.432C86.3409 18.368 85.9996 18.336 85.6903 18.336C85.3489 18.336 85.0449 18.352 84.7783 18.384C84.5116 18.416 84.3783 18.5067 84.3783 18.656C84.3783 18.8267 84.5276 18.9493 84.8263 19.024C85.1356 19.0987 85.5463 19.216 86.0583 19.376C86.6343 19.5467 87.0823 19.7333 87.4023 19.936C87.7329 20.1387 87.9623 20.384 88.0903 20.672C88.2289 20.96 88.2983 21.3173 88.2983 21.744C88.2983 22.512 87.9836 23.1093 87.3543 23.536C86.7356 23.952 85.8129 24.16 84.5863 24.16ZM93.3648 24.16C92.4794 24.16 91.6954 24.016 91.0128 23.728C90.3408 23.4293 89.8128 22.9867 89.4288 22.4C89.0554 21.8133 88.8688 21.088 88.8688 20.224C88.8688 19.0187 89.2101 18.0587 89.8928 17.344C90.5754 16.6187 91.5941 16.256 92.9488 16.256C94.1861 16.256 95.1514 16.5707 95.8448 17.2C96.5488 17.8293 96.9008 18.688 96.9008 19.776V21.104H91.6368C91.7754 21.5093 92.0474 21.7973 92.4528 21.968C92.8581 22.1387 93.4074 22.224 94.1008 22.224C94.5381 22.224 94.9754 22.1867 95.4128 22.112C95.8608 22.0267 96.2181 21.9307 96.4848 21.824V23.632C95.7381 23.984 94.6981 24.16 93.3648 24.16ZM91.6368 19.472H94.3088V19.2C94.3088 18.9013 94.2128 18.656 94.0208 18.464C93.8394 18.272 93.5141 18.176 93.0448 18.176C92.5221 18.176 92.1541 18.288 91.9408 18.512C91.7381 18.7253 91.6368 19.0453 91.6368 19.472ZM98.0169 24V16.416H100.913L100.993 17.024C101.302 16.8427 101.697 16.6773 102.177 16.528C102.657 16.3787 103.142 16.288 103.633 16.256V18.496C103.356 18.5173 103.052 18.5547 102.721 18.608C102.401 18.6613 102.086 18.7307 101.777 18.816C101.478 18.8907 101.228 18.976 101.025 19.072V24H98.0169ZM107.368 24.16C106.717 24.16 106.104 24.112 105.528 24.016C104.962 23.9307 104.514 23.8187 104.184 23.68V21.52C104.557 21.6907 105 21.824 105.512 21.92C106.034 22.016 106.477 22.064 106.84 22.064C107.224 22.064 107.512 22.0533 107.704 22.032C107.906 22.0107 108.008 21.92 108.008 21.76C108.008 21.5787 107.832 21.44 107.48 21.344C107.128 21.248 106.685 21.1093 106.152 20.928C105.458 20.6827 104.941 20.3947 104.6 20.064C104.258 19.7333 104.088 19.2533 104.088 18.624C104.088 17.8667 104.386 17.2853 104.984 16.88C105.581 16.464 106.52 16.256 107.799 16.256C108.29 16.256 108.797 16.2933 109.32 16.368C109.842 16.4427 110.253 16.528 110.552 16.624V18.736C110.232 18.5973 109.88 18.496 109.496 18.432C109.122 18.368 108.781 18.336 108.472 18.336C108.13 18.336 107.826 18.352 107.56 18.384C107.293 18.416 107.16 18.5067 107.16 18.656C107.16 18.8267 107.309 18.9493 107.608 19.024C107.917 19.0987 108.328 19.216 108.84 19.376C109.416 19.5467 109.864 19.7333 110.184 19.936C110.514 20.1387 110.744 20.384 110.872 20.672C111.01 20.96 111.08 21.3173 111.08 21.744C111.08 22.512 110.765 23.1093 110.136 23.536C109.517 23.952 108.594 24.16 107.368 24.16ZM111.884 24V21.84H114.252V24H111.884ZM115.904 15.408V13.232H119.152V15.408H115.904ZM116.144 24V18.608H115.04L115.296 16.416H119.152V24H116.144ZM124.707 24.16C123.192 24.16 122.072 23.824 121.347 23.152C120.632 22.48 120.275 21.4987 120.275 20.208C120.275 18.928 120.638 17.952 121.363 17.28C122.088 16.5973 123.203 16.256 124.707 16.256C126.222 16.256 127.342 16.5973 128.067 17.28C128.803 17.952 129.171 18.928 129.171 20.208C129.171 21.4987 128.808 22.48 128.083 23.152C127.358 23.824 126.232 24.16 124.707 24.16ZM124.707 21.968C125.198 21.968 125.55 21.8293 125.763 21.552C125.987 21.2747 126.099 20.8267 126.099 20.208C126.099 19.6 125.987 19.1573 125.763 18.88C125.55 18.592 125.198 18.448 124.707 18.448C124.227 18.448 123.88 18.592 123.667 18.88C123.454 19.1573 123.347 19.6 123.347 20.208C123.347 20.8267 123.454 21.2747 123.667 21.552C123.88 21.8293 124.227 21.968 124.707 21.968Z" fill="white"/>
</svg>
