<svg width="36" height="36" viewBox="0 0 36 36" fill="none" xmlns="http://www.w3.org/2000/svg">
<path d="M0 11C0 4.92487 4.92487 0 11 0H36V36H0V11Z" fill="#297373"/>
<path d="M22.7319 21.9796C21.4346 23.2769 20.1298 23.9482 18.8174 23.9934C17.4975 24.0312 16.2454 23.4579 15.0612 22.2738C13.8394 21.0519 13.2473 19.7583 13.285 18.3932C13.3227 17.028 14.0166 15.6703 15.3667 14.3202C15.8193 13.8677 16.253 13.4868 16.6678 13.1775C17.0902 12.8607 17.5163 12.593 17.9462 12.3743L19.7677 14.1958C19.3077 14.3994 18.8777 14.6559 18.478 14.9651C18.0782 15.2743 17.6936 15.6138 17.324 15.9833C16.6225 16.6848 16.253 17.3711 16.2152 18.0424C16.1851 18.7062 16.5245 19.3925 17.2335 20.1015C17.8972 20.7653 18.527 21.0934 19.1229 21.0858C19.7263 21.0707 20.3259 20.7653 20.9217 20.1694C21.1178 19.9733 21.2913 19.7772 21.4422 19.5811C21.5855 19.3774 21.7099 19.1776 21.8155 18.9815L20.752 17.918L19.3039 19.3661L17.9915 18.0537L21.2159 14.8293L24.8815 18.495C24.7759 18.9475 24.5572 19.4755 24.2253 20.0789C23.901 20.6748 23.4032 21.3083 22.7319 21.9796Z" fill="#F5F5F5"/>
</svg>
