<svg width="84" height="26" viewBox="0 0 84 26" fill="none" xmlns="http://www.w3.org/2000/svg">
<g clip-path="url(#clip0_1617_1381)">
<g clip-path="url(#clip1_1617_1381)">
<g clip-path="url(#clip2_1617_1381)">
<g clip-path="url(#clip3_1617_1381)">
<g clip-path="url(#clip4_1617_1381)">
<g clip-path="url(#clip5_1617_1381)">
<g clip-path="url(#clip6_1617_1381)">
<path d="M33.1304 17.7919C32.7136 17.7919 32.3086 17.7421 31.9153 17.6424C31.5203 17.5428 31.1687 17.3932 30.8606 17.1939L31.3091 16.1338C31.5266 16.3059 31.7803 16.4491 32.0703 16.5633C32.3602 16.6756 32.7136 16.7318 33.1304 16.7318C33.7737 16.7318 34.2794 16.5623 34.6472 16.2235C35.0133 15.8828 35.1963 15.3409 35.1963 14.5979V13.728C35.0151 13.9455 34.7551 14.1521 34.4162 14.3478C34.0755 14.5417 33.6695 14.6387 33.1984 14.6387C32.6638 14.6387 32.1564 14.5 31.6761 14.2228C31.1959 13.9473 30.8063 13.5423 30.5072 13.0077C30.2082 12.4731 30.0587 11.8298 30.0587 11.0777C30.0587 10.3709 30.2064 9.74118 30.5018 9.18846C30.7954 8.63573 31.1913 8.2008 31.6897 7.88366C32.1881 7.56653 32.7363 7.40796 33.3343 7.40796C33.733 7.40796 34.0954 7.47592 34.4216 7.61183C34.7478 7.74775 35.0287 7.91538 35.2643 8.11472V7.57106H36.3788V14.4756C36.3788 15.2548 36.2429 15.8891 35.9711 16.3784C35.6992 16.8677 35.3214 17.2256 34.8375 17.4521C34.3518 17.6787 33.7828 17.7919 33.1304 17.7919ZM33.4702 13.5514C33.8326 13.5514 34.1588 13.4698 34.4488 13.3067C34.7388 13.1436 34.9743 12.9533 35.1556 12.7359V9.03895C34.9562 8.89397 34.7161 8.76259 34.4352 8.64479C34.1543 8.527 33.8281 8.4681 33.4566 8.4681C33.0851 8.4681 32.7363 8.56777 32.4101 8.76712C32.0839 8.96646 31.8193 9.2537 31.6163 9.62882C31.4115 10.0058 31.3091 10.4661 31.3091 11.0097C31.3091 11.5262 31.4115 11.9747 31.6163 12.3553C31.8193 12.7359 32.0839 13.0303 32.4101 13.2387C32.7363 13.4472 33.0896 13.5514 33.4702 13.5514ZM40.7961 14.8018C40.3883 14.8018 40.0032 14.7157 39.6408 14.5435C39.2783 14.3714 38.9839 14.0923 38.7573 13.7063C38.5308 13.3221 38.4175 12.8083 38.4175 12.165V7.57106H39.6408V12.0019C39.6408 12.5546 39.7586 12.9778 39.9942 13.2714C40.2298 13.5668 40.5741 13.7145 41.0271 13.7145C41.3986 13.7145 41.7584 13.6392 42.1063 13.4888C42.4561 13.3402 42.7668 13.1391 43.0387 12.8854V7.57106H44.2619V12.8038C44.2619 13.1934 44.3453 13.449 44.512 13.5704C44.6805 13.6936 44.8645 13.7552 45.0638 13.7552L44.8056 14.7066C43.9629 14.7066 43.4419 14.3714 43.2426 13.7009C42.9254 14.0271 42.5584 14.2916 42.1416 14.4946C41.7248 14.6994 41.2763 14.8018 40.7961 14.8018ZM49.3859 14.8018C48.3711 14.8018 47.5665 14.4774 46.9721 13.8286C46.3795 13.1817 46.0832 12.2737 46.0832 11.1049C46.0832 10.3981 46.2164 9.76565 46.4828 9.20749C46.751 8.65114 47.1252 8.21167 47.6055 7.8891C48.0857 7.56834 48.6429 7.40796 49.2772 7.40796C49.9568 7.40796 50.5204 7.55475 50.968 7.84833C51.4174 8.14372 51.7554 8.54059 51.9819 9.03895C52.2085 9.53731 52.3217 10.0855 52.3217 10.6835C52.3217 11.0007 52.3081 11.3087 52.281 11.6078H47.3336C47.4152 12.2692 47.6462 12.7857 48.0268 13.1572C48.4074 13.5287 48.9102 13.7145 49.5355 13.7145C49.9432 13.7145 50.3102 13.671 50.6364 13.584C50.9626 13.4988 51.2752 13.3883 51.5742 13.2523L51.8596 14.2989C51.5334 14.4439 51.1664 14.5644 50.7587 14.6604C50.351 14.7547 49.8934 14.8018 49.3859 14.8018ZM47.32 10.6156H51.1936C51.1936 9.92693 51.0215 9.39686 50.6771 9.02536C50.3328 8.65385 49.8571 8.4681 49.25 8.4681C48.7245 8.4681 48.2896 8.65114 47.9452 9.0172C47.6009 9.38508 47.3925 9.91787 47.32 10.6156ZM55.8528 14.8018C55.3182 14.8018 54.8362 14.7338 54.4067 14.5979C53.9754 14.462 53.6193 14.2853 53.3384 14.0678L53.8549 13.0485C54.0904 13.2478 54.3877 13.4127 54.7465 13.5432C55.1035 13.6755 55.4859 13.7416 55.8936 13.7416C56.401 13.7416 56.7843 13.6574 57.0434 13.4888C57.3008 13.3221 57.4294 13.1074 57.4294 12.8446C57.4294 12.6543 57.3823 12.4867 57.2881 12.3417C57.192 12.1967 57.0172 12.0536 56.7635 11.9122C56.5098 11.7727 56.1428 11.6214 55.6625 11.4583C55.0011 11.2317 54.5054 10.9617 54.1756 10.6482C53.844 10.3365 53.6782 9.90428 53.6782 9.35156C53.6782 8.80789 53.9165 8.34759 54.3931 7.97065C54.8679 7.59552 55.5266 7.40796 56.3693 7.40796C56.8224 7.40796 57.2256 7.45508 57.579 7.54931C57.9323 7.64536 58.2495 7.76587 58.5304 7.91085L58.1906 8.91663C57.9459 8.77165 57.6678 8.65385 57.3561 8.56324C57.0425 8.47263 56.6955 8.42733 56.3149 8.42733C55.8438 8.42733 55.4859 8.52247 55.2412 8.71275C54.9966 8.90303 54.8742 9.11144 54.8742 9.33796C54.8742 9.55543 54.9694 9.74118 55.1597 9.89522C55.3499 10.0493 55.7214 10.2169 56.2742 10.3981C57.1712 10.6971 57.7964 11.0279 58.1498 11.3903C58.5032 11.7527 58.6799 12.2058 58.6799 12.7495C58.6799 13.3837 58.4244 13.8839 57.9133 14.25C57.4005 14.6178 56.7136 14.8018 55.8528 14.8018ZM62.2137 14.8018C61.6791 14.8018 61.197 14.7338 60.7675 14.5979C60.3362 14.462 59.9801 14.2853 59.6992 14.0678L60.2157 13.0485C60.4513 13.2478 60.7485 13.4127 61.1073 13.5432C61.4643 13.6755 61.8467 13.7416 62.2545 13.7416C62.7619 13.7416 63.1452 13.6574 63.4043 13.4888C63.6616 13.3221 63.7903 13.1074 63.7903 12.8446C63.7903 12.6543 63.7432 12.4867 63.649 12.3417C63.5529 12.1967 63.378 12.0536 63.1243 11.9122C62.8706 11.7727 62.5036 11.6214 62.0234 11.4583C61.3619 11.2317 60.8663 10.9617 60.5365 10.6482C60.2049 10.3365 60.039 9.90428 60.039 9.35156C60.039 8.80789 60.2773 8.34759 60.7539 7.97065C61.2287 7.59552 61.8875 7.40796 62.7302 7.40796C63.1832 7.40796 63.5864 7.45508 63.9398 7.54931C64.2932 7.64536 64.6103 7.76587 64.8912 7.91085L64.5514 8.91663C64.3068 8.77165 64.0286 8.65385 63.7169 8.56324C63.4034 8.47263 63.0564 8.42733 62.6758 8.42733C62.2046 8.42733 61.8467 8.52247 61.6021 8.71275C61.3574 8.90303 61.2351 9.11144 61.2351 9.33796C61.2351 9.55543 61.3302 9.74118 61.5205 9.89522C61.7108 10.0493 62.0823 10.2169 62.635 10.3981C63.5321 10.6971 64.1573 11.0279 64.5107 11.3903C64.864 11.7527 65.0407 12.2058 65.0407 12.7495C65.0407 13.3837 64.7852 13.8839 64.2742 14.25C63.7613 14.6178 63.0745 14.8018 62.2137 14.8018ZM69.4988 14.8018C68.4839 14.8018 67.6793 14.4774 67.0849 13.8286C66.4923 13.1817 66.196 12.2737 66.196 11.1049C66.196 10.3981 66.3292 9.76565 66.5956 9.20749C66.8638 8.65114 67.238 8.21167 67.7183 7.8891C68.1985 7.56834 68.7558 7.40796 69.39 7.40796C70.0696 7.40796 70.6332 7.55475 71.0808 7.84833C71.5303 8.14372 71.8682 8.54059 72.0948 9.03895C72.3213 9.53731 72.4346 10.0855 72.4346 10.6835C72.4346 11.0007 72.421 11.3087 72.3938 11.6078H67.4464C67.528 12.2692 67.7591 12.7857 68.1396 13.1572C68.5202 13.5287 69.0231 13.7145 69.6483 13.7145C70.056 13.7145 70.423 13.671 70.7492 13.584C71.0754 13.4988 71.388 13.3883 71.687 13.2523L71.9724 14.2989C71.6462 14.4439 71.2793 14.5644 70.8715 14.6604C70.4638 14.7547 70.0062 14.8018 69.4988 14.8018ZM67.4329 10.6156H71.3065C71.3065 9.92693 71.1343 9.39686 70.79 9.02536C70.4457 8.65385 69.9699 8.4681 69.3629 8.4681C68.8373 8.4681 68.4024 8.65114 68.0581 9.0172C67.7137 9.38508 67.5053 9.91787 67.4329 10.6156ZM75.2888 14.6387H74.0655V7.57106H75.248V9.10691C75.3658 8.80789 75.5244 8.52881 75.7237 8.26967C75.9231 8.01233 76.1722 7.80393 76.4713 7.64445C76.7703 7.48679 77.1191 7.40796 77.5178 7.40796C77.6537 7.40796 77.7896 7.4143 77.9256 7.42699C78.0615 7.44148 78.1747 7.46233 78.2653 7.48951L77.8984 8.75353C77.7262 8.68104 77.5223 8.64479 77.2868 8.64479C76.9515 8.64479 76.6316 8.73993 76.3272 8.93022C76.0246 9.1205 75.7754 9.41498 75.5797 9.81367C75.3857 10.2124 75.2888 10.7198 75.2888 11.3359V14.6387ZM81.0489 14.8018C80.5143 14.8018 80.0323 14.7338 79.6028 14.5979C79.1715 14.462 78.8154 14.2853 78.5345 14.0678L79.0509 13.0485C79.2865 13.2478 79.5837 13.4127 79.9425 13.5432C80.2996 13.6755 80.6819 13.7416 81.0897 13.7416C81.5971 13.7416 81.9804 13.6574 82.2395 13.4888C82.4969 13.3221 82.6255 13.1074 82.6255 12.8446C82.6255 12.6543 82.5784 12.4867 82.4842 12.3417C82.3881 12.1967 82.2132 12.0536 81.9595 11.9122C81.7058 11.7727 81.3389 11.6214 80.8586 11.4583C80.1972 11.2317 79.7015 10.9617 79.3717 10.6482C79.0401 10.3365 78.8743 9.90428 78.8743 9.35156C78.8743 8.80789 79.1126 8.34759 79.5892 7.97065C80.064 7.59552 80.7227 7.40796 81.5654 7.40796C82.0184 7.40796 82.4217 7.45508 82.775 7.54931C83.1284 7.64536 83.4456 7.76587 83.7264 7.91085L83.3867 8.91663C83.142 8.77165 82.8638 8.65385 82.5521 8.56324C82.2386 8.47263 81.8916 8.42733 81.511 8.42733C81.0398 8.42733 80.6819 8.52247 80.4373 8.71275C80.1926 8.90303 80.0703 9.11144 80.0703 9.33796C80.0703 9.55543 80.1655 9.74118 80.3557 9.89522C80.546 10.0493 80.9175 10.2169 81.4702 10.3981C82.3673 10.6971 82.9925 11.0279 83.3459 11.3903C83.6993 11.7527 83.876 12.2058 83.876 12.7495C83.876 13.3837 83.6204 13.8839 83.1094 14.25C82.5965 14.6178 81.9097 14.8018 81.0489 14.8018Z" fill="#E8C547"/>
</g>
</g>
</g>
</g>
<g clip-path="url(#clip7_1617_1381)">
<g clip-path="url(#clip8_1617_1381)">
<path d="M0.12146 12.6C0.12146 5.68764 5.72499 0.0841064 12.6374 0.0841064C19.5497 0.0841064 25.1533 5.68764 25.1531 12.6C25.1531 19.5124 19.5496 25.1159 12.6374 25.1158C5.72499 25.1158 0.12146 19.5122 0.12146 12.6ZM12.6374 24.1794C19.0325 24.1794 24.2167 18.9951 24.2167 12.6C24.2167 6.20488 19.0325 1.02061 12.6374 1.02048C6.24224 1.02048 1.05797 6.20475 1.05783 12.6C1.05783 18.9951 6.2421 24.1794 12.6374 24.1794Z" fill="#E8C547"/>
<g clip-path="url(#clip9_1617_1381)">
<g clip-path="url(#clip10_1617_1381)">
<path d="M12.6374 5.58813C8.76477 5.58813 5.62549 8.72742 5.62549 12.6C5.62549 16.4725 8.76477 19.6119 12.6374 19.6119C16.51 19.6119 19.6492 16.4725 19.6492 12.6C19.6492 8.72742 16.51 5.58813 12.6374 5.58813ZM13.3823 15.8232C13.3823 16.391 12.9448 16.8283 12.3535 16.8283C11.762 16.8283 11.3245 16.391 11.3245 15.8232V15.7995C11.3245 15.2317 11.762 14.794 12.3535 14.794C12.9448 14.794 13.3823 15.2317 13.3823 15.7995V15.8232ZM15.4525 10.8435C15.4525 12.3456 14.4116 12.9609 13.1225 13.2211L13.0871 13.6503C13.0395 13.9576 12.7911 14.2298 12.4481 14.2298H12.0519C11.7088 14.2298 11.4604 13.9697 11.4133 13.6503V12.6296C11.3541 12.2392 11.762 11.967 12.1408 11.9197C13.1697 11.7898 13.6428 11.4705 13.6428 10.8909V10.8672C13.6428 10.335 13.2406 10.0274 12.5545 10.0274C12.046 10.0274 11.6084 10.1813 11.1827 10.5005C11.0406 10.607 10.8514 10.6899 10.6502 10.6899C10.2008 10.6899 9.82223 10.3112 9.82223 9.86203C9.82223 9.63704 9.91691 9.40055 10.13 9.22312C10.7568 8.70287 11.5492 8.37142 12.59 8.37142C14.2933 8.37142 15.4525 9.24668 15.4525 10.8198V10.8435Z" fill="#E8C547"/>
</g>
</g>
</g>
</g>
</g>
</g>
</g>
<defs>
<clipPath id="clip0_1617_1381">
<rect width="84" height="25.2" fill="white"/>
</clipPath>
<clipPath id="clip1_1617_1381">
<rect width="83.7572" height="25.0317" fill="white" transform="translate(0.12146 0.0841064)"/>
</clipPath>
<clipPath id="clip2_1617_1381">
<rect width="83.7572" height="25.0317" fill="white" transform="translate(0.12146 0.0841064)"/>
</clipPath>
<clipPath id="clip3_1617_1381">
<rect width="53.8227" height="10.384" fill="white" transform="translate(30.0559 7.40796)"/>
</clipPath>
<clipPath id="clip4_1617_1381">
<rect width="53.8227" height="10.384" fill="white" transform="translate(30.0559 7.40796)"/>
</clipPath>
<clipPath id="clip5_1617_1381">
<rect width="53.8227" height="10.384" fill="white" transform="translate(30.0559 7.40796)"/>
</clipPath>
<clipPath id="clip6_1617_1381">
<rect width="53.8227" height="10.384" fill="white" transform="translate(30.0559 7.40796)"/>
</clipPath>
<clipPath id="clip7_1617_1381">
<rect width="25.0317" height="25.0317" fill="white" transform="translate(0.12146 0.0841064)"/>
</clipPath>
<clipPath id="clip8_1617_1381">
<rect width="25.0317" height="25.0317" fill="white" transform="translate(0.12146 0.0841064)"/>
</clipPath>
<clipPath id="clip9_1617_1381">
<rect width="14.0238" height="14.0237" fill="white" transform="translate(5.62549 5.58813)"/>
</clipPath>
<clipPath id="clip10_1617_1381">
<rect width="14.0238" height="14.0237" fill="white" transform="translate(5.62549 5.58813)"/>
</clipPath>
</defs>
</svg>
