<?xml version="1.0" ?>
<!-- Uploaded to: SVG Repo, www.svgrepo.com, Generator: SVG Repo Mixer Tools -->
<svg width="800px" height="800px" viewBox="0 0 128 128" xmlns="http://www.w3.org/2000/svg">
<defs>
<style>.cls-1{fill:#2e2f42;}</style>
</defs>
<title/>
<g data-name="Layer 2" id="Layer_2">
<g id="Export">
<path class="cls-1" d="M64,3A61,61,0,1,1,3,64,61.06,61.06,0,0,1,64,3m0-3a64,64,0,1,0,64,64A64,64,0,0,0,64,0Z"/>
<path class="cls-1" d="M86.26,94.81a1.47,1.47,0,0,1-.85-.26,38,38,0,0,0-24.09-6.7A37.48,37.48,0,0,0,42.6,94.54a1.5,1.5,0,1,1-1.72-2.46,40.5,40.5,0,0,1,20.23-7.22,41,41,0,0,1,26,7.22,1.5,1.5,0,0,1-.85,2.73Z"/>
<path class="cls-1" d="M39.65,66.2A11.24,11.24,0,1,1,50.89,55,11.26,11.26,0,0,1,39.65,66.2Zm0-19.48A8.24,8.24,0,1,0,47.89,55,8.25,8.25,0,0,0,39.65,46.72Z"/>
<path class="cls-1" d="M88.35,66.2A11.24,11.24,0,1,1,99.59,55,11.26,11.26,0,0,1,88.35,66.2Zm0-19.48A8.24,8.24,0,1,0,96.59,55,8.24,8.24,0,0,0,88.35,46.72Z"/>
</g>
</g>
</svg>