<svg width="28" height="27" viewBox="0 0 28 27" fill="none" xmlns="http://www.w3.org/2000/svg">
<path d="M27.3 10C27.3 9.80001 26.4 5.70001 23.5 4.40001C20.6 3.10001 16.9 5.10001 16.8 5.20001C16.4 5.40001 16.2 5.80001 16.3 6.30001C16.3 6.50001 17.2 10.6 20.1 11.9C20.8 12.2 21.6 12.3 22.3 12.3C24.6 12.3 26.7 11.1 26.8 11C27.2 10.9 27.4 10.4 27.3 10Z" fill="url(#paint0_linear_18_15)"/>
<path d="M16.7 16.5C14.5 12.8 14 8.3 15.2 4.1C17.5 2.8 20.1 2 23 2C23.6 2 24 1.6 24 1C24 0.4 23.6 0 23 0C14.4 0 7.3 6 5.5 14C2.1 14.2 0 16.1 0 19C0 22.3 2.7 25 6 25C9.3 25 12 22.3 12 19C12 16.4 10.3 14.6 7.5 14.1C8.3 10.8 10.2 7.9 12.7 5.7C12.1 9.8 12.9 14 15 17.6C12.9 19.4 12.5 21.9 13.9 24C14.7 25.3 16.1 26.3 17.6 26.7C18.1 26.8 18.5 26.9 19 26.9C20.1 26.9 21.1 26.6 22.1 26C24.8 24.3 25.6 20.6 23.9 17.8C22.3 15.4 19.5 15 16.7 16.5Z" fill="url(#paint1_linear_18_15)"/>
<defs>
<linearGradient id="paint0_linear_18_15" x1="16.2745" y1="3.96228" x2="21.2467" y2="17.5526" gradientUnits="userSpaceOnUse">
<stop stop-color="#43248C"/>
<stop offset="1" stop-color="#946DF0"/>
</linearGradient>
<linearGradient id="paint1_linear_18_15" x1="0" y1="0" x2="20.4865" y2="38.9364" gradientUnits="userSpaceOnUse">
<stop stop-color="#43248C"/>
<stop offset="1" stop-color="#946DF0"/>
</linearGradient>
</defs>
</svg>
