<svg width="28" height="28" viewBox="0 0 28 28" fill="none" xmlns="http://www.w3.org/2000/svg">
<path d="M27.4 12.2C27 11.6 26.7 11.1 26.6 10.7C25.6 6.90002 23 3.70002 19.5 1.90002C22.2 4.80002 24 9.10002 24 14C24 18.9 22.2 23.2 19.4 26.2C22.9 24.4 25.5 21.2 26.5 17.4C26.6 16.9 26.9 16.4 27.3 15.9C27.7 15.4 27.9 14.7 27.9 14.1C27.9 13.5 27.8 12.7 27.4 12.2Z" fill="url(#paint0_linear_18_20)"/>
<path d="M15.7 16.5C15.9 15.7 16 14.9 16 14C16 13.2 15.9 12.5 15.7 11.8L12.6 14L15.7 16.5Z" fill="url(#paint1_linear_18_20)"/>
<path d="M12 12L15 9.79998C14.3 8.39998 13.2 7.49998 12 7.09998V12Z" fill="url(#paint2_linear_18_20)"/>
<path d="M6.3 11.5C6.1 12.3 6 13.1 6 14C6 14.8 6.1 15.5 6.3 16.2L9.4 13.9L6.3 11.5Z" fill="url(#paint3_linear_18_20)"/>
<path d="M10 11.9V7.09998C8.80001 7.39998 7.80001 8.29998 7.10001 9.59998L10 11.9Z" fill="url(#paint4_linear_18_20)"/>
<path d="M12 16.1V20.9C13.2 20.6 14.2 19.7 14.9 18.4L12 16.1Z" fill="url(#paint5_linear_18_20)"/>
<path d="M11 0C4.9 0 0 6.3 0 14C0 21.7 4.9 28 11 28C17.1 28 22 21.7 22 14C22 6.3 17.1 0 11 0ZM11 23C7.1 23 4 19 4 14C4 9 7.1 5 11 5C14.9 5 18 9 18 14C18 19 14.9 23 11 23Z" fill="url(#paint6_linear_18_20)"/>
<path d="M10 16L7 18.2C7.7 19.6 8.8 20.5 10 20.9V16Z" fill="url(#paint7_linear_18_20)"/>
<defs>
<linearGradient id="paint0_linear_18_20" x1="19.4" y1="1.90002" x2="40.7082" y2="17.2705" gradientUnits="userSpaceOnUse">
<stop stop-color="#43248C"/>
<stop offset="1" stop-color="#946DF0"/>
</linearGradient>
<linearGradient id="paint1_linear_18_20" x1="12.6" y1="11.8" x2="16.6175" y2="17.7933" gradientUnits="userSpaceOnUse">
<stop stop-color="#43248C"/>
<stop offset="1" stop-color="#946DF0"/>
</linearGradient>
<linearGradient id="paint2_linear_18_20" x1="12" y1="7.09998" x2="16.4076" y2="12.6649" gradientUnits="userSpaceOnUse">
<stop stop-color="#43248C"/>
<stop offset="1" stop-color="#946DF0"/>
</linearGradient>
<linearGradient id="paint3_linear_18_20" x1="6" y1="11.5" x2="10.0175" y2="17.4933" gradientUnits="userSpaceOnUse">
<stop stop-color="#43248C"/>
<stop offset="1" stop-color="#946DF0"/>
</linearGradient>
<linearGradient id="paint4_linear_18_20" x1="7.10001" y1="7.09998" x2="11.4305" y2="12.4953" gradientUnits="userSpaceOnUse">
<stop stop-color="#43248C"/>
<stop offset="1" stop-color="#946DF0"/>
</linearGradient>
<linearGradient id="paint5_linear_18_20" x1="12" y1="16.1" x2="16.3305" y2="21.4953" gradientUnits="userSpaceOnUse">
<stop stop-color="#43248C"/>
<stop offset="1" stop-color="#946DF0"/>
</linearGradient>
<linearGradient id="paint6_linear_18_20" x1="0" y1="0" x2="23.1282" y2="37.4742" gradientUnits="userSpaceOnUse">
<stop stop-color="#43248C"/>
<stop offset="1" stop-color="#946DF0"/>
</linearGradient>
<linearGradient id="paint7_linear_18_20" x1="7" y1="16" x2="11.4076" y2="21.5649" gradientUnits="userSpaceOnUse">
<stop stop-color="#43248C"/>
<stop offset="1" stop-color="#946DF0"/>
</linearGradient>
</defs>
</svg>
