<svg width="26" height="26" viewBox="0 0 26 26" fill="none" xmlns="http://www.w3.org/2000/svg">
<path d="M15 11.4C15 8.1 14.5 4.7 13.8 2.5C13.5 1.7 13.3 0.9 13 0C12.8 0.8 12.5 1.6 12.2 2.5C11.5 4.6 11 8 11 11.4C11 17.3 12.4 19.8 13 19.8C13.6 19.8 15 17.3 15 11.4Z" fill="url(#paint0_linear_18_38)"/>
<path d="M10.1 19.2C9.4 17.4 9 14.8 9 11.5C9 8.00002 9.5 4.30002 10.3 2.00002C10.4 1.80002 10.4 1.60002 10.5 1.40002C10.1 1.90002 9.6 2.50002 9.1 3.00002C7.2 5.00002 6 8.20002 6 11.4C6 15.1 7.6 18 10.1 19.2Z" fill="url(#paint1_linear_18_38)"/>
<path d="M20 11.4C20 8.19999 18.8 4.89999 16.9 2.89999C16.4 2.39999 16 1.79999 15.5 1.29999C15.6 1.49999 15.6 1.69999 15.7 1.89999C16.5 4.19999 17 7.89999 17 11.4C17 14.7 16.6 17.3 15.9 19.1C18.4 18 20 15.1 20 11.4Z" fill="url(#paint2_linear_18_38)"/>
<path d="M26 12.2C26 8.7 23.9 5.1 20.5 2.9C19.6 2.3 18.7 1.7 17.9 1C18.1 1.2 18.2 1.3 18.4 1.5C20.7 3.9 22.1 7.7 22.1 11.4C22.1 17.4 18.3 21.8 13.1 21.8C7.9 21.8 4.1 17.4 4.1 11.4C4.1 7.7 5.5 3.9 7.8 1.5C8 1.3 8.1 1.2 8.3 1C7.5 1.6 6.7 2.2 5.7 2.9C2.1 5.1 0 8.7 0 12.2C0 17.2 4.4 21 10.7 21.7L9.3 23.1C8.9 23.5 8.9 24.1 9.3 24.5C9.5 24.7 9.8 24.8 10 24.8C10.2 24.8 10.5 24.7 10.7 24.5L12 23.2V24.8C12 25.4 12.4 25.8 13 25.8C13.6 25.8 14 25.4 14 24.8V23.2L15.3 24.5C15.5 24.7 15.8 24.8 16 24.8C16.2 24.8 16.5 24.7 16.7 24.5C17.1 24.1 17.1 23.5 16.7 23.1L15.3 21.7C21.6 20.9 26 17.2 26 12.2Z" fill="url(#paint3_linear_18_38)"/>
<defs>
<linearGradient id="paint0_linear_18_38" x1="11" y1="0" x2="23.9904" y2="5.41182" gradientUnits="userSpaceOnUse">
<stop stop-color="#43248C"/>
<stop offset="1" stop-color="#946DF0"/>
</linearGradient>
<linearGradient id="paint1_linear_18_38" x1="6" y1="1.40002" x2="19.4853" y2="8.43044" gradientUnits="userSpaceOnUse">
<stop stop-color="#43248C"/>
<stop offset="1" stop-color="#946DF0"/>
</linearGradient>
<linearGradient id="paint2_linear_18_38" x1="15.5" y1="1.29999" x2="28.9853" y2="8.3304" gradientUnits="userSpaceOnUse">
<stop stop-color="#43248C"/>
<stop offset="1" stop-color="#946DF0"/>
</linearGradient>
<linearGradient id="paint3_linear_18_38" x1="0" y1="1" x2="17.464" y2="38.7565" gradientUnits="userSpaceOnUse">
<stop stop-color="#43248C"/>
<stop offset="1" stop-color="#946DF0"/>
</linearGradient>
</defs>
</svg>
