<svg width="17" height="28" viewBox="0 0 17 28" fill="none" xmlns="http://www.w3.org/2000/svg">
<path d="M7.87443 12.6744C7.87443 17.4744 5.77443 21.9744 2.07443 24.8744L0.374433 26.1744C-0.0255668 26.4744 -0.125567 26.9744 0.174433 27.4744C0.374433 27.7744 0.674433 27.9744 1.07443 27.9744C1.17443 27.9744 1.27443 27.9744 1.37443 27.8744L5.47443 26.3744C11.3744 24.1744 15.5744 18.8744 16.5744 12.5744C13.6744 11.7744 10.7744 11.7744 7.87443 12.6744Z" fill="url(#paint0_linear_18_32)"/>
<path d="M13.7744 5.67443C13.8744 4.17443 14.7744 2.77443 16.0744 1.77443C16.4744 1.47443 16.5744 0.774433 16.2744 0.374433C15.9744 -0.0255666 15.2744 -0.125567 14.8744 0.174433C13.0744 1.47443 11.8744 3.37443 11.7744 5.47443C9.57444 5.77443 7.77444 7.67443 7.77444 9.97443V10.5744C10.6744 9.77443 13.7744 9.77443 16.6744 10.5744C16.6744 10.3744 16.6744 10.1744 16.6744 9.97443C16.7744 7.97443 15.5744 6.27443 13.7744 5.67443Z" fill="url(#paint1_linear_18_32)"/>
<defs>
<linearGradient id="paint0_linear_18_32" x1="0" y1="11.9864" x2="11.3404" y2="36.2301" gradientUnits="userSpaceOnUse">
<stop stop-color="#43248C"/>
<stop offset="1" stop-color="#946DF0"/>
</linearGradient>
<linearGradient id="paint1_linear_18_32" x1="7.77444" y1="0" x2="16.2254" y2="14.6773" gradientUnits="userSpaceOnUse">
<stop stop-color="#43248C"/>
<stop offset="1" stop-color="#946DF0"/>
</linearGradient>
</defs>
</svg>
